STARTFONT 2.1
FONTBOUNDINGBOX 14 14 0 -4
CHARS 21116
STARTCHAR 0000
ENCODING 0
SWIDTH 520 0
DWIDTH 0 0
BBX 0 14 0 -4
BITMAP
80
ENDCHAR
STARTCHAR 3041
ENCODING 12353
SWIDTH 520 0
DWIDTH 14 0
BBX 14 14 0 -4
BITMAP
0000
0000
0000
0400
0580
1e00
0500
07c0
0d60
1d20
1620
1640
1f80
0000
ENDCHAR
STARTCHAR 3042
ENCODING 12354
SWIDTH 520 0
DWIDTH 14 0
BBX 14 14 0 -4
BITMAP
0000
0400
0460
1f80
0480
07c0
1cb0
1598
2508
2308
2608
1d30
00e0
0000
ENDCHAR
STARTCHAR 3043
ENCODING 12355
SWIDTH 520 0
DWIDTH 14 0
BBX 14 14 0 -4
BITMAP
0000
0000
0000
0000
0000
0000
0800
1840
1020
1020
1210
1610
0c00
0000
ENDCHAR
STARTCHAR 3044
ENCODING 12356
SWIDTH 520 0
DWIDTH 14 0
BBX 14 14 0 -4
BITMAP
0000
0000
1000
1020
2030
2010
2010
2010
2008
2208
2400
1800
0000
0000
ENDCHAR
STARTCHAR 3045
ENCODING 12357
SWIDTH 520 0
DWIDTH 14 0
BBX 14 14 0 -4
BITMAP
0000
0000
0000
0000
0600
01c0
0000
0780
0c40
0040
00c0
0180
0600
0000
ENDCHAR
STARTCHAR 3046
ENCODING 12358
SWIDTH 520 0
DWIDTH 14 0
BBX 14 14 0 -4
BITMAP
0000
0e00
03c0
0000
07c0
1860
0020
0020
0020
0040
00c0
0180
0600
0000
ENDCHAR
STARTCHAR 3047
ENCODING 12359
SWIDTH 520 0
DWIDTH 14 0
BBX 14 14 0 -4
BITMAP
0000
0000
0000
0000
0f80
01c0
1f80
0180
0300
0780
0c80
10f0
0000
0000
ENDCHAR
STARTCHAR 3048
ENCODING 12360
SWIDTH 520 0
DWIDTH 14 0
BBX 14 14 0 -4
BITMAP
0000
0000
0f80
0000
01c0
1e80
0100
0300
0780
0c80
1080
20f8
0000
0000
ENDCHAR
STARTCHAR 3049
ENCODING 12361
SWIDTH 520 0
DWIDTH 14 0
BBX 14 14 0 -4
BITMAP
0000
0000
0000
0000
0400
0780
1c60
0410
07c0
0c60
1420
1520
1cc0
0000
ENDCHAR
STARTCHAR 304A
ENCODING 12362
SWIDTH 520 0
DWIDTH 14 0
BBX 14 14 0 -4
BITMAP
0000
0400
0400
07a0
1c10
0408
0400
07e0
1c10
3408
2508
2488
1870
0000
ENDCHAR
STARTCHAR 304B
ENCODING 12363
SWIDTH 520 0
DWIDTH 14 0
BBX 14 14 0 -4
BITMAP
0000
0400
0400
0800
0840
3f20
5910
1110
1108
2100
2900
4600
0000
0000
ENDCHAR
STARTCHAR 304C
ENCODING 12364
SWIDTH 520 0
DWIDTH 14 0
BBX 14 14 0 -4
BITMAP
0000
0410
0428
0810
0840
3f20
5910
1110
1108
2100
2900
4600
0000
0000
ENDCHAR
STARTCHAR 304D
ENCODING 12365
SWIDTH 520 0
DWIDTH 14 0
BBX 14 14 0 -4
BITMAP
0000
0200
0200
03c0
3f00
01f0
3f80
00c0
07c0
1860
1000
1000
0fc0
0000
ENDCHAR
STARTCHAR 304E
ENCODING 12366
SWIDTH 520 0
DWIDTH 14 0
BBX 14 14 0 -4
BITMAP
0000
0210
0228
03d0
3f00
01f0
3f80
00c0
07c0
1860
1000
1000
0fc0
0000
ENDCHAR
STARTCHAR 304F
ENCODING 12367
SWIDTH 520 0
DWIDTH 14 0
BBX 14 14 0 -4
BITMAP
0000
0040
0080
0180
0300
0600
0c00
0c00
0600
0300
0180
0080
0040
0000
ENDCHAR
STARTCHAR 3050
ENCODING 12368
SWIDTH 520 0
DWIDTH 14 0
BBX 14 14 0 -4
BITMAP
0000
0040
0090
01a8
0338
0610
0c00
0800
0400
0200
0300
0180
0080
0040
ENDCHAR
STARTCHAR 3051
ENCODING 12369
SWIDTH 520 0
DWIDTH 14 0
BBX 14 14 0 -4
BITMAP
0000
0040
2040
2040
2078
27e0
2040
2040
2040
2040
2080
1080
0100
0000
ENDCHAR
STARTCHAR 3052
ENCODING 12370
SWIDTH 520 0
DWIDTH 14 0
BBX 14 14 0 -4
BITMAP
0050
2068
2078
2050
2070
27c0
2040
2040
2040
2040
2080
2080
0100
0000
ENDCHAR
STARTCHAR 3053
ENCODING 12371
SWIDTH 520 0
DWIDTH 14 0
BBX 14 14 0 -4
BITMAP
0000
0000
0000
1fe0
0000
0000
0000
0000
2000
2000
2000
1ff0
0000
0000
ENDCHAR
STARTCHAR 3054
ENCODING 12372
SWIDTH 520 0
DWIDTH 14 0
BBX 14 14 0 -4
BITMAP
0000
0010
0028
1ff0
0000
0000
0000
0000
2000
2000
2000
1fe0
0000
0000
ENDCHAR
STARTCHAR 3055
ENCODING 12373
SWIDTH 520 0
DWIDTH 14 0
BBX 14 14 0 -4
BITMAP
0000
0400
0230
07c0
3d00
0180
00c0
07e0
1800
1000
1000
0fc0
0000
0000
ENDCHAR
STARTCHAR 3056
ENCODING 12374
SWIDTH 520 0
DWIDTH 14 0
BBX 14 14 0 -4
BITMAP
0030
0478
0230
03e0
3f00
0080
0060
07f0
1800
1000
1000
0fe0
0000
0000
ENDCHAR
STARTCHAR 3057
ENCODING 12375
SWIDTH 520 0
DWIDTH 14 0
BBX 14 14 0 -4
BITMAP
0000
1000
1000
1000
1000
1000
1000
1000
1000
1020
18c0
0f00
0000
0000
ENDCHAR
STARTCHAR 3058
ENCODING 12376
SWIDTH 520 0
DWIDTH 14 0
BBX 14 14 0 -4
BITMAP
0000
1080
1140
10a0
1040
1000
1000
1000
1000
1010
1860
0f80
0000
0000
ENDCHAR
STARTCHAR 3059
ENCODING 12377
SWIDTH 520 0
DWIDTH 14 0
BBX 14 14 0 -4
BITMAP
0000
0100
0100
0100
7ff8
0100
0700
0900
0900
0700
0100
0200
0600
0c00
ENDCHAR
STARTCHAR 305A
ENCODING 12378
SWIDTH 520 0
DWIDTH 14 0
BBX 14 14 0 -4
BITMAP
0000
0150
0128
0100
7ff8
0100
0700
0900
0900
0700
0100
0200
0600
0c00
ENDCHAR
STARTCHAR 305B
ENCODING 12379
SWIDTH 520 0
DWIDTH 14 0
BBX 14 14 0 -4
BITMAP
0000
0040
0840
0840
0848
7ff0
0840
0840
0840
0b80
0800
0800
07e0
0000
ENDCHAR
STARTCHAR 305C
ENCODING 12380
SWIDTH 520 0
DWIDTH 14 0
BBX 14 14 0 -4
BITMAP
0000
0058
0874
0848
0848
7ff0
0840
0840
0840
0b80
0800
0800
07e0
0000
ENDCHAR
STARTCHAR 305D
ENCODING 12381
SWIDTH 520 0
DWIDTH 14 0
BBX 14 14 0 -4
BITMAP
0000
0180
1f00
0200
0400
08f0
7f80
0200
0400
0400
0400
0200
01c0
0000
ENDCHAR
STARTCHAR 305E
ENCODING 12382
SWIDTH 520 0
DWIDTH 14 0
BBX 14 14 0 -4
BITMAP
0000
01d0
1f28
0210
0400
08f0
7f80
0200
0400
0400
0400
0200
01c0
0000
ENDCHAR
STARTCHAR 305F
ENCODING 12383
SWIDTH 520 0
DWIDTH 14 0
BBX 14 14 0 -4
BITMAP
0000
0400
0400
0580
3e00
0800
08f0
0980
1000
1000
1300
20f8
0000
0000
ENDCHAR
STARTCHAR 3060
ENCODING 12384
SWIDTH 520 0
DWIDTH 14 0
BBX 14 14 0 -4
BITMAP
0000
0410
0448
0728
3c10
0800
08f0
0980
1000
1000
1300
20f8
0000
0000
ENDCHAR
STARTCHAR 3061
ENCODING 12385
SWIDTH 520 0
DWIDTH 14 0
BBX 14 14 0 -4
BITMAP
0000
0400
0400
0800
3fe0
0800
0800
1bc0
1c20
1020
0020
0040
0780
0000
ENDCHAR
STARTCHAR 3062
ENCODING 12386
SWIDTH 520 0
DWIDTH 14 0
BBX 14 14 0 -4
BITMAP
0000
0410
0448
0828
3f90
0800
0800
1bc0
1c20
1020
0020
0040
0780
0000
ENDCHAR
STARTCHAR 3063
ENCODING 12387
SWIDTH 520 0
DWIDTH 14 0
BBX 14 14 0 -4
BITMAP
0000
0000
0000
0000
0000
0fc0
3060
0020
0020
0020
00c0
0700
0000
0000
ENDCHAR
STARTCHAR 3064
ENCODING 12388
SWIDTH 520 0
DWIDTH 14 0
BBX 14 14 0 -4
BITMAP
0000
0000
0000
07c0
3820
4010
0010
0010
0010
0020
00c0
0700
0000
0000
ENDCHAR
STARTCHAR 3065
ENCODING 12389
SWIDTH 520 0
DWIDTH 14 0
BBX 14 14 0 -4
BITMAP
0000
0008
0024
07f0
3810
4008
0008
0008
0008
0010
0060
0780
0000
0000
ENDCHAR
STARTCHAR 3066
ENCODING 12390
SWIDTH 520 0
DWIDTH 14 0
BBX 14 14 0 -4
BITMAP
0000
0000
0000
3ff8
0180
0300
0600
0400
0400
0400
0200
0180
00e0
0000
ENDCHAR
STARTCHAR 3067
ENCODING 12391
SWIDTH 520 0
DWIDTH 14 0
BBX 14 14 0 -4
BITMAP
0000
0000
0000
3ff8
0180
0310
0668
0430
0400
0400
0200
0180
00e0
0000
ENDCHAR
STARTCHAR 3068
ENCODING 12392
SWIDTH 520 0
DWIDTH 14 0
BBX 14 14 0 -4
BITMAP
0000
0400
0400
0400
0400
0460
0780
0c00
1000
2000
2000
3000
0fe0
0000
ENDCHAR
STARTCHAR 3069
ENCODING 12393
SWIDTH 520 0
DWIDTH 14 0
BBX 14 14 0 -4
BITMAP
0000
0420
0450
0428
0410
0460
0780
0c00
1000
2000
2000
3000
0fe0
0000
ENDCHAR
STARTCHAR 306A
ENCODING 12394
SWIDTH 520 0
DWIDTH 14 0
BBX 14 14 0 -4
BITMAP
0400
0800
0e00
7c80
1060
1090
3080
2080
2080
4780
08e0
0890
0700
0000
ENDCHAR
STARTCHAR 306B
ENCODING 12395
SWIDTH 520 0
DWIDTH 14 0
BBX 14 14 0 -4
BITMAP
0000
1000
1000
23f0
2000
2000
2000
2000
2400
2300
21f8
2000
0000
0000
ENDCHAR
STARTCHAR 306C
ENCODING 12396
SWIDTH 520 0
DWIDTH 14 0
BBX 14 14 0 -4
BITMAP
0000
0100
1100
1100
17e0
1910
3908
2a08
4608
44f8
4f18
38e4
0000
0000
ENDCHAR
STARTCHAR 306D
ENCODING 12397
SWIDTH 520 0
DWIDTH 14 0
BBX 14 14 0 -4
BITMAP
0800
0800
0800
1de0
6b10
0c10
1810
1810
2810
49f0
0918
09e4
0800
0000
ENDCHAR
STARTCHAR 306E
ENCODING 12398
SWIDTH 520 0
DWIDTH 14 0
BBX 14 14 0 -4
BITMAP
0000
0000
03c0
0d30
1110
1108
2308
2208
2208
2218
3410
1c60
00c0
0000
ENDCHAR
STARTCHAR 306F
ENCODING 12399
SWIDTH 520 0
DWIDTH 14 0
BBX 14 14 0 -4
BITMAP
0000
0040
1040
1040
27f8
2040
2040
2040
2040
23c0
2470
2448
2380
0000
ENDCHAR
STARTCHAR 3070
ENCODING 12400
SWIDTH 520 0
DWIDTH 14 0
BBX 14 14 0 -4
BITMAP
0010
1068
1050
2040
27f0
2040
2040
2040
2040
23c0
2470
2448
2380
0000
ENDCHAR
STARTCHAR 3071
ENCODING 12401
SWIDTH 520 0
DWIDTH 14 0
BBX 14 14 0 -4
BITMAP
0000
001c
1054
105c
27fc
2040
2040
2040
2040
23c0
2478
2444
2380
0000
ENDCHAR
STARTCHAR 3072
ENCODING 12402
SWIDTH 520 0
DWIDTH 14 0
BBX 14 14 0 -4
BITMAP
0000
0000
0c80
78c0
1040
1060
2060
2050
2048
2040
20c0
1080
0f00
0000
ENDCHAR
STARTCHAR 3073
ENCODING 12403
SWIDTH 520 0
DWIDTH 14 0
BBX 14 14 0 -4
BITMAP
0010
0068
0cb0
78c0
1040
1060
2060
2050
2048
2040
20c0
1080
0f00
0000
ENDCHAR
STARTCHAR 3074
ENCODING 12404
SWIDTH 520 0
DWIDTH 14 0
BBX 14 14 0 -4
BITMAP
0000
0038
04a8
38b8
7040
1040
2060
2050
2050
2048
20c0
1080
0f00
0000
ENDCHAR
STARTCHAR 3075
ENCODING 12405
SWIDTH 520 0
DWIDTH 14 0
BBX 14 14 0 -4
BITMAP
0000
0800
0700
0180
0400
0800
0c00
0320
0910
1088
2084
4880
0700
0000
ENDCHAR
STARTCHAR 3076
ENCODING 12406
SWIDTH 520 0
DWIDTH 14 0
BBX 14 14 0 -4
BITMAP
0000
0810
0748
01a8
0410
0800
0c00
0320
0910
1088
2084
4880
0700
0000
ENDCHAR
STARTCHAR 3077
ENCODING 12407
SWIDTH 520 0
DWIDTH 14 0
BBX 14 14 0 -4
BITMAP
0000
0838
0728
01b8
0400
0800
0c20
0310
0918
1088
2084
4880
0700
0000
ENDCHAR
STARTCHAR 3078
ENCODING 12408
SWIDTH 520 0
DWIDTH 14 0
BBX 14 14 0 -4
BITMAP
0000
0000
0000
0000
0600
1900
3080
4060
0030
0008
0000
0000
0000
0000
ENDCHAR
STARTCHAR 3079
ENCODING 12409
SWIDTH 520 0
DWIDTH 14 0
BBX 14 14 0 -4
BITMAP
0000
0000
0020
0050
0620
1900
3080
4060
0030
0008
0000
0000
0000
0000
ENDCHAR
STARTCHAR 307A
ENCODING 12410
SWIDTH 520 0
DWIDTH 14 0
BBX 14 14 0 -4
BITMAP
0000
0000
0070
0050
0670
1900
3080
6060
0030
0008
0000
0000
0000
0000
ENDCHAR
STARTCHAR 307B
ENCODING 12411
SWIDTH 520 0
DWIDTH 14 0
BBX 14 14 0 -4
BITMAP
0000
2000
2fe0
4080
4080
4ff0
4080
4080
4080
47c0
48e0
4890
4700
0000
ENDCHAR
STARTCHAR 307C
ENCODING 12412
SWIDTH 520 0
DWIDTH 14 0
BBX 14 14 0 -4
BITMAP
0010
2028
2ff0
4080
4080
4ff0
4080
4080
4080
4780
48e0
4890
4700
0000
ENDCHAR
STARTCHAR 307D
ENCODING 12413
SWIDTH 520 0
DWIDTH 14 0
BBX 14 14 0 -4
BITMAP
0000
2038
2fe8
4098
4080
4ff8
4080
4080
47c0
48f0
4888
4700
0000
0000
ENDCHAR
STARTCHAR 307E
ENCODING 12414
SWIDTH 520 0
DWIDTH 14 0
BBX 14 14 0 -4
BITMAP
0000
0100
0100
3ff8
0100
0100
1ff0
0100
0100
0f80
11e0
1110
0e00
0000
ENDCHAR
STARTCHAR 307F
ENCODING 12415
SWIDTH 520 0
DWIDTH 14 0
BBX 14 14 0 -4
BITMAP
0000
0300
1d00
0200
0220
0420
1e20
2dc0
4870
5848
3080
0080
0100
0000
ENDCHAR
STARTCHAR 3080
ENCODING 12416
SWIDTH 520 0
DWIDTH 14 0
BBX 14 14 0 -4
BITMAP
0000
0800
0800
0800
7f40
0830
3808
4800
4800
5820
3820
0820
0fe0
0000
ENDCHAR
STARTCHAR 3081
ENCODING 12417
SWIDTH 520 0
DWIDTH 14 0
BBX 14 14 0 -4
BITMAP
0000
0080
1080
1080
0fe0
0930
1918
3508
2708
2208
2710
1920
00c0
0000
ENDCHAR
STARTCHAR 3082
ENCODING 12418
SWIDTH 520 0
DWIDTH 14 0
BBX 14 14 0 -4
BITMAP
0000
0400
0400
0400
0780
3c00
0400
07a0
3c10
0410
0410
0630
03e0
0000
ENDCHAR
STARTCHAR 3083
ENCODING 12419
SWIDTH 520 0
DWIDTH 14 0
BBX 14 14 0 -4
BITMAP
0000
0000
0000
0000
1200
1200
1bc0
1c20
6a20
09c0
0400
0400
0200
0000
ENDCHAR
STARTCHAR 3084
ENCODING 12420
SWIDTH 520 0
DWIDTH 14 0
BBX 14 14 0 -4
BITMAP
0000
0100
1100
1100
11f0
0e08
3808
4908
0cf0
0400
0400
0600
0200
0000
ENDCHAR
STARTCHAR 3085
ENCODING 12421
SWIDTH 520 0
DWIDTH 14 0
BBX 14 14 0 -4
BITMAP
0000
0000
0000
0080
1080
13e0
14b0
1890
1c90
13b0
11e0
1100
0200
0000
ENDCHAR
STARTCHAR 3086
ENCODING 12422
SWIDTH 520 0
DWIDTH 14 0
BBX 14 14 0 -4
BITMAP
0000
0080
0080
23e0
2490
2888
3088
3488
2688
2390
21e0
2100
0100
0200
ENDCHAR
STARTCHAR 3087
ENCODING 12423
SWIDTH 520 0
DWIDTH 14 0
BBX 14 14 0 -4
BITMAP
0000
0000
0000
0000
0100
0100
01e0
0100
0100
0780
0960
0910
0600
0000
ENDCHAR
STARTCHAR 3088
ENCODING 12424
SWIDTH 520 0
DWIDTH 14 0
BBX 14 14 0 -4
BITMAP
0000
0100
0100
0100
01f0
0100
0100
0100
1f00
21c0
2130
2308
1e00
0000
ENDCHAR
STARTCHAR 3089
ENCODING 12425
SWIDTH 520 0
DWIDTH 14 0
BBX 14 14 0 -4
BITMAP
0000
1800
0e00
0180
1000
1000
13c0
1630
1810
1010
0010
0060
0780
0000
ENDCHAR
STARTCHAR 308A
ENCODING 12426
SWIDTH 520 0
DWIDTH 14 0
BBX 14 14 0 -4
BITMAP
0000
0420
0420
0820
0820
0820
0920
0b20
0e20
0040
0040
0180
0300
0000
ENDCHAR
STARTCHAR 308B
ENCODING 12427
SWIDTH 520 0
DWIDTH 14 0
BBX 14 14 0 -4
BITMAP
0000
00c0
0f80
0080
0100
0200
07c0
0c20
1010
2e10
0910
08a0
07c0
0000
ENDCHAR
STARTCHAR 308C
ENCODING 12428
SWIDTH 520 0
DWIDTH 14 0
BBX 14 14 0 -4
BITMAP
0000
0800
0800
0800
39c0
4a40
0c40
1840
3840
2844
484c
0830
0800
0000
ENDCHAR
STARTCHAR 308D
ENCODING 12429
SWIDTH 520 0
DWIDTH 14 0
BBX 14 14 0 -4
BITMAP
0000
0000
0fc0
0080
0100
0200
07c0
0c30
1010
2010
0010
0060
0780
0000
ENDCHAR
STARTCHAR 308E
ENCODING 12430
SWIDTH 520 0
DWIDTH 14 0
BBX 14 14 0 -4
BITMAP
0000
0000
0000
0400
0400
0400
3ee0
0530
0610
0c10
1c10
1420
24c0
0400
ENDCHAR
STARTCHAR 308F
ENCODING 12431
SWIDTH 520 0
DWIDTH 14 0
BBX 14 14 0 -4
BITMAP
0000
0800
0800
0c00
79e0
0e10
0808
1808
3808
2810
4830
08c0
0800
0000
ENDCHAR
STARTCHAR 3090
ENCODING 12432
SWIDTH 520 0
DWIDTH 14 0
BBX 14 14 0 -4
BITMAP
0000
0080
0f80
0100
0100
07e0
0a10
1208
2408
25c8
2d30
18e0
0000
0000
ENDCHAR
STARTCHAR 3091
ENCODING 12433
SWIDTH 520 0
DWIDTH 14 0
BBX 14 14 0 -4
BITMAP
0000
0180
0f80
0300
07c0
1820
3720
0960
07c0
0800
1cf0
2398
4208
0000
ENDCHAR
STARTCHAR 3092
ENCODING 12434
SWIDTH 520 0
DWIDTH 14 0
BBX 14 14 0 -4
BITMAP
0000
0200
0200
3fe0
0400
0800
0f30
19c0
2700
0900
1100
1000
0fe0
0000
ENDCHAR
STARTCHAR 3093
ENCODING 12435
SWIDTH 520 0
DWIDTH 14 0
BBX 14 14 0 -4
BITMAP
0000
0200
0600
0400
0c00
0800
1808
1e08
3318
2110
6130
40e0
0000
0000
ENDCHAR
STARTCHAR 3094
ENCODING 12436
SWIDTH 520 0
DWIDTH 14 0
BBX 14 14 0 -4
BITMAP
0000
1c10
07a8
0010
0000
0f80
30c0
0040
0040
00c0
0080
0300
0c00
0000
ENDCHAR
STARTCHAR 309B
ENCODING 12443
SWIDTH 520 0
DWIDTH 14 0
BBX 14 14 0 -4
BITMAP
0100
0480
0200
0000
0000
0000
0000
0000
0000
0000
0000
0000
0000
0000
ENDCHAR
STARTCHAR 309C
ENCODING 12444
SWIDTH 520 0
DWIDTH 14 0
BBX 14 14 0 -4
BITMAP
0000
0038
0028
0038
0000
0000
0000
0000
0000
0000
0000
0000
0000
0000
ENDCHAR
STARTCHAR 309D
ENCODING 12445
SWIDTH 520 0
DWIDTH 14 0
BBX 14 14 0 -4
BITMAP
0000
0000
0000
0800
0400
0600
0200
0100
00c0
00c0
0300
0000
0000
0000
ENDCHAR
STARTCHAR 309E
ENCODING 12446
SWIDTH 520 0
DWIDTH 14 0
BBX 14 14 0 -4
BITMAP
0000
0000
0820
04d0
0630
0200
0100
0080
0060
01c0
0200
0000
0000
0000
ENDCHAR
STARTCHAR 30A1
ENCODING 12449
SWIDTH 520 0
DWIDTH 14 0
BBX 14 14 0 -4
BITMAP
0000
0000
0000
0000
3fe0
0040
0280
0300
0200
0200
0400
0c00
1800
0000
ENDCHAR
STARTCHAR 30A2
ENCODING 12450
SWIDTH 520 0
DWIDTH 14 0
BBX 14 14 0 -4
BITMAP
0000
0000
7ff8
0018
0230
0260
02c0
0200
0200
0400
0c00
1800
3000
0000
ENDCHAR
STARTCHAR 30A3
ENCODING 12451
SWIDTH 520 0
DWIDTH 14 0
BBX 14 14 0 -4
BITMAP
0000
0000
0000
0000
0040
0080
0100
0600
0a00
3200
0200
0200
0200
0000
ENDCHAR
STARTCHAR 30A4
ENCODING 12452
SWIDTH 520 0
DWIDTH 14 0
BBX 14 14 0 -4
BITMAP
0000
0000
0020
0040
0080
0300
0600
1a00
6200
0200
0200
0200
0200
0000
ENDCHAR
STARTCHAR 30A5
ENCODING 12453
SWIDTH 520 0
DWIDTH 14 0
BBX 14 14 0 -4
BITMAP
0000
0000
0000
0000
0100
0100
1fe0
1020
1020
0040
00c0
0180
0600
0000
ENDCHAR
STARTCHAR 30A6
ENCODING 12454
SWIDTH 520 0
DWIDTH 14 0
BBX 14 14 0 -4
BITMAP
0100
0100
0100
3ff0
2010
2010
2010
2020
0020
0040
00c0
0100
0600
0000
ENDCHAR
STARTCHAR 30A7
ENCODING 12455
SWIDTH 520 0
DWIDTH 14 0
BBX 14 14 0 -4
BITMAP
0000
0000
0000
0000
0000
0000
0fe0
0100
0100
0100
0100
1ff0
0000
0000
ENDCHAR
STARTCHAR 30A8
ENCODING 12456
SWIDTH 520 0
DWIDTH 14 0
BBX 14 14 0 -4
BITMAP
0000
0000
0000
3fe0
0200
0200
0200
0200
0200
0200
7ff0
0000
0000
0000
ENDCHAR
STARTCHAR 30A9
ENCODING 12457
SWIDTH 520 0
DWIDTH 14 0
BBX 14 14 0 -4
BITMAP
0000
0000
0000
0000
0100
0100
3ff0
0300
0300
0500
1900
2100
0700
0000
ENDCHAR
STARTCHAR 30AA
ENCODING 12458
SWIDTH 520 0
DWIDTH 14 0
BBX 14 14 0 -4
BITMAP
0000
0100
0100
0100
7ff8
0300
0300
0500
0900
1900
2100
4100
0700
0000
ENDCHAR
STARTCHAR 30AB
ENCODING 12459
SWIDTH 520 0
DWIDTH 14 0
BBX 14 14 0 -4
BITMAP
0000
0200
0200
0200
3fe0
0220
0220
0420
0420
0820
1840
31c0
6000
0000
ENDCHAR
STARTCHAR 30AC
ENCODING 12460
SWIDTH 520 0
DWIDTH 14 0
BBX 14 14 0 -4
BITMAP
0010
0268
0218
0200
3fe0
0220
0220
0420
0420
0820
1840
31c0
6000
0000
ENDCHAR
STARTCHAR 30AD
ENCODING 12461
SWIDTH 520 0
DWIDTH 14 0
BBX 14 14 0 -4
BITMAP
0400
0400
0400
07c0
3e00
0200
0200
03f0
7e00
0200
0100
0100
0100
0000
ENDCHAR
STARTCHAR 30AE
ENCODING 12462
SWIDTH 520 0
DWIDTH 14 0
BBX 14 14 0 -4
BITMAP
0410
0448
0428
07c0
3e00
0200
0200
03f0
7e00
0200
0100
0100
0100
0000
ENDCHAR
STARTCHAR 30AF
ENCODING 12463
SWIDTH 520 0
DWIDTH 14 0
BBX 14 14 0 -4
BITMAP
0000
0400
0800
0fe0
1020
1020
2040
4040
0080
0100
0200
0c00
1800
0000
ENDCHAR
STARTCHAR 30B0
ENCODING 12464
SWIDTH 520 0
DWIDTH 14 0
BBX 14 14 0 -4
BITMAP
0010
0448
0838
0fc0
1040
1040
2080
4080
0100
0300
0600
0c00
1000
0000
ENDCHAR
STARTCHAR 30B1
ENCODING 12465
SWIDTH 520 0
DWIDTH 14 0
BBX 14 14 0 -4
BITMAP
0000
0800
0800
1000
1ff8
2040
2040
4040
0080
0100
0300
0600
0800
0000
ENDCHAR
STARTCHAR 30B2
ENCODING 12466
SWIDTH 520 0
DWIDTH 14 0
BBX 14 14 0 -4
BITMAP
0000
0810
0828
1010
1ff0
2080
2080
4080
0100
0100
0200
0400
0800
0000
ENDCHAR
STARTCHAR 30B3
ENCODING 12467
SWIDTH 520 0
DWIDTH 14 0
BBX 14 14 0 -4
BITMAP
0000
0000
0000
0000
3fe0
0020
0020
0020
0020
0020
3fe0
0020
0000
0000
ENDCHAR
STARTCHAR 30B4
ENCODING 12468
SWIDTH 520 0
DWIDTH 14 0
BBX 14 14 0 -4
BITMAP
0000
0010
0048
0028
3fc0
0040
0040
0040
0040
0040
3fc0
0040
0000
0000
ENDCHAR
STARTCHAR 30B5
ENCODING 12469
SWIDTH 520 0
DWIDTH 14 0
BBX 14 14 0 -4
BITMAP
0000
0840
0840
0840
0840
7ff8
0840
0840
0840
0080
0080
0100
0600
0000
ENDCHAR
STARTCHAR 30B6
ENCODING 12470
SWIDTH 520 0
DWIDTH 14 0
BBX 14 14 0 -4
BITMAP
0000
0048
0854
0848
0840
7ff8
0840
0840
0840
0080
0080
0100
0600
0000
ENDCHAR
STARTCHAR 30B7
ENCODING 12471
SWIDTH 520 0
DWIDTH 14 0
BBX 14 14 0 -4
BITMAP
0000
0000
1000
0c00
0200
3010
1820
0060
00c0
0180
0600
1800
0000
0000
ENDCHAR
STARTCHAR 30B8
ENCODING 12472
SWIDTH 520 0
DWIDTH 14 0
BBX 14 14 0 -4
BITMAP
0000
0040
10a0
0c40
0200
3010
1820
0060
00c0
0180
0600
1800
0000
0000
ENDCHAR
STARTCHAR 30B9
ENCODING 12473
SWIDTH 520 0
DWIDTH 14 0
BBX 14 14 0 -4
BITMAP
0000
0000
1fc0
0040
0080
0080
0100
0380
06c0
0c60
1820
2010
0000
0000
ENDCHAR
STARTCHAR 30BA
ENCODING 12474
SWIDTH 520 0
DWIDTH 14 0
BBX 14 14 0 -4
BITMAP
0010
0028
1fd0
0040
0080
0080
0100
0380
06c0
0c60
1820
2010
0000
0000
ENDCHAR
STARTCHAR 30BB
ENCODING 12475
SWIDTH 520 0
DWIDTH 14 0
BBX 14 14 0 -4
BITMAP
0000
0400
0400
0400
0470
1fd0
6420
0420
0440
0400
0400
07f0
0000
0000
ENDCHAR
STARTCHAR 30BC
ENCODING 12476
SWIDTH 520 0
DWIDTH 14 0
BBX 14 14 0 -4
BITMAP
0000
0410
0428
0410
0470
1f90
6420
0440
0480
0400
0400
07f0
0000
0000
ENDCHAR
STARTCHAR 30BD
ENCODING 12477
SWIDTH 520 0
DWIDTH 14 0
BBX 14 14 0 -4
BITMAP
0000
0000
0000
2020
1020
1020
0840
0040
00c0
0080
0100
0600
0c00
0000
ENDCHAR
STARTCHAR 30BE
ENCODING 12478
SWIDTH 520 0
DWIDTH 14 0
BBX 14 14 0 -4
BITMAP
0000
0010
0068
2030
1020
1020
0840
0040
00c0
0080
0100
0600
0c00
0000
ENDCHAR
STARTCHAR 30BF
ENCODING 12479
SWIDTH 520 0
DWIDTH 14 0
BBX 14 14 0 -4
BITMAP
0000
0200
0400
07e0
0820
0820
1640
21c0
00c0
0160
0200
0c00
1800
0000
ENDCHAR
STARTCHAR 30C0
ENCODING 12480
SWIDTH 520 0
DWIDTH 14 0
BBX 14 14 0 -4
BITMAP
0000
0410
0c28
0fd0
0840
1040
1680
2380
0180
0340
0600
0c00
1800
0000
ENDCHAR
STARTCHAR 30C1
ENCODING 12481
SWIDTH 520 0
DWIDTH 14 0
BBX 14 14 0 -4
BITMAP
0000
0000
0070
3f80
0100
0100
7ff8
0100
0100
0100
0200
0600
0800
0000
ENDCHAR
STARTCHAR 30C2
ENCODING 12482
SWIDTH 520 0
DWIDTH 14 0
BBX 14 14 0 -4
BITMAP
0000
0030
01d8
3f00
0100
0100
7ff0
0100
0100
0100
0200
0600
0800
0000
ENDCHAR
STARTCHAR 30C3
ENCODING 12483
SWIDTH 520 0
DWIDTH 14 0
BBX 14 14 0 -4
BITMAP
0000
0000
0000
0000
0000
0420
1220
1920
0840
0040
0080
0100
0600
0000
ENDCHAR
STARTCHAR 30C4
ENCODING 12484
SWIDTH 520 0
DWIDTH 14 0
BBX 14 14 0 -4
BITMAP
0000
0000
0810
4410
2410
3220
1020
0020
0040
0040
0080
0300
0c00
0000
ENDCHAR
STARTCHAR 30C5
ENCODING 12485
SWIDTH 520 0
DWIDTH 14 0
BBX 14 14 0 -4
BITMAP
0000
0050
0828
4420
2420
3220
1040
0040
0040
0080
0100
0600
1800
0000
ENDCHAR
STARTCHAR 30C6
ENCODING 12486
SWIDTH 520 0
DWIDTH 14 0
BBX 14 14 0 -4
BITMAP
0000
0000
1fc0
0000
0000
7ff0
0200
0200
0200
0200
0400
0400
0800
0000
ENDCHAR
STARTCHAR 30C7
ENCODING 12487
SWIDTH 520 0
DWIDTH 14 0
BBX 14 14 0 -4
BITMAP
0010
0048
1fa8
0010
0000
7ff0
0200
0200
0200
0200
0400
0400
0800
0000
ENDCHAR
STARTCHAR 30C8
ENCODING 12488
SWIDTH 520 0
DWIDTH 14 0
BBX 14 14 0 -4
BITMAP
0000
0400
0400
0400
0400
0600
0580
0460
0410
0400
0400
0400
0400
0000
ENDCHAR
STARTCHAR 30C9
ENCODING 12489
SWIDTH 520 0
DWIDTH 14 0
BBX 14 14 0 -4
BITMAP
0000
0420
04b0
0450
0420
0600
0580
04c0
0420
0400
0400
0400
0400
0000
ENDCHAR
STARTCHAR 30CA
ENCODING 12490
SWIDTH 520 0
DWIDTH 14 0
BBX 14 14 0 -4
BITMAP
0000
0100
0100
0100
0100
7ff8
0100
0100
0100
0300
0200
0c00
1800
0000
ENDCHAR
STARTCHAR 30CB
ENCODING 12491
SWIDTH 520 0
DWIDTH 14 0
BBX 14 14 0 -4
BITMAP
0000
0000
0000
3ff0
0000
0000
0000
0000
0000
0000
7ff8
0000
0000
0000
ENDCHAR
STARTCHAR 30CC
ENCODING 12492
SWIDTH 520 0
DWIDTH 14 0
BBX 14 14 0 -4
BITMAP
0000
0000
1fe0
0020
0040
0c40
0680
0180
03c0
0660
1810
3000
0000
0000
ENDCHAR
STARTCHAR 30CD
ENCODING 12493
SWIDTH 520 0
DWIDTH 14 0
BBX 14 14 0 -4
BITMAP
0100
0100
0100
1fc0
00c0
0180
0100
0340
0d20
1910
3108
0100
0100
0100
ENDCHAR
STARTCHAR 30CE
ENCODING 12494
SWIDTH 520 0
DWIDTH 14 0
BBX 14 14 0 -4
BITMAP
0000
0040
0040
0080
0080
0080
0100
0300
0600
0c00
1800
3000
0000
0000
ENDCHAR
STARTCHAR 30CF
ENCODING 12495
SWIDTH 520 0
DWIDTH 14 0
BBX 14 14 0 -4
BITMAP
0000
0000
0000
0480
0c40
0840
1820
1030
2010
6018
0008
0000
0000
0000
ENDCHAR
STARTCHAR 30D0
ENCODING 12496
SWIDTH 520 0
DWIDTH 14 0
BBX 14 14 0 -4
BITMAP
0000
0010
0048
04b0
0c40
0840
1820
1030
2010
6018
0008
0000
0000
0000
ENDCHAR
STARTCHAR 30D1
ENCODING 12497
SWIDTH 520 0
DWIDTH 14 0
BBX 14 14 0 -4
BITMAP
0000
0038
0028
04b8
0c40
0840
1820
1020
2010
2018
4008
0000
0000
0000
ENDCHAR
STARTCHAR 30D2
ENCODING 12498
SWIDTH 520 0
DWIDTH 14 0
BBX 14 14 0 -4
BITMAP
0000
1000
1000
1000
10e0
1f00
1000
1000
1000
1000
1000
1fe0
0000
0000
ENDCHAR
STARTCHAR 30D3
ENCODING 12499
SWIDTH 520 0
DWIDTH 14 0
BBX 14 14 0 -4
BITMAP
0010
1048
1028
1020
10e0
1f00
1000
1000
1000
1000
1000
1fe0
0000
0000
ENDCHAR
STARTCHAR 30D4
ENCODING 12500
SWIDTH 520 0
DWIDTH 14 0
BBX 14 14 0 -4
BITMAP
0000
0038
1028
1038
1060
1180
1e00
1000
1000
1000
1000
1fe0
0000
0000
ENDCHAR
STARTCHAR 30D5
ENCODING 12501
SWIDTH 520 0
DWIDTH 14 0
BBX 14 14 0 -4
BITMAP
0000
0000
0000
3fe0
0020
0020
0020
0040
0040
0080
0100
0600
1800
0000
ENDCHAR
STARTCHAR 30D6
ENCODING 12502
SWIDTH 520 0
DWIDTH 14 0
BBX 14 14 0 -4
BITMAP
0000
0030
0018
3fd0
0040
0040
0040
0080
0080
0100
0300
0600
1800
0000
ENDCHAR
STARTCHAR 30D7
ENCODING 12503
SWIDTH 520 0
DWIDTH 14 0
BBX 14 14 0 -4
BITMAP
0000
001c
0014
3fdc
0040
0040
0040
0080
0080
0100
0300
0600
1800
0000
ENDCHAR
STARTCHAR 30D8
ENCODING 12504
SWIDTH 520 0
DWIDTH 14 0
BBX 14 14 0 -4
BITMAP
0000
0000
0000
0000
0600
0900
3080
6060
0030
0008
0000
0000
0000
0000
ENDCHAR
STARTCHAR 30D9
ENCODING 12505
SWIDTH 520 0
DWIDTH 14 0
BBX 14 14 0 -4
BITMAP
0000
0000
0030
0068
0610
0900
30c0
6060
0018
000c
0000
0000
0000
0000
ENDCHAR
STARTCHAR 30DA
ENCODING 12506
SWIDTH 520 0
DWIDTH 14 0
BBX 14 14 0 -4
BITMAP
0000
0000
0070
0050
0670
0900
3080
6040
0030
0008
0000
0000
0000
0000
ENDCHAR
STARTCHAR 30DB
ENCODING 12507
SWIDTH 520 0
DWIDTH 14 0
BBX 14 14 0 -4
BITMAP
0000
0100
0100
0100
7ff8
0100
0940
1120
1130
2110
2108
4100
0100
0000
ENDCHAR
STARTCHAR 30DC
ENCODING 12508
SWIDTH 520 0
DWIDTH 14 0
BBX 14 14 0 -4
BITMAP
0000
0210
0268
0210
7ff8
0200
0a40
1220
1230
2210
2208
4200
0200
0000
ENDCHAR
STARTCHAR 30DD
ENCODING 12509
SWIDTH 520 0
DWIDTH 14 0
BBX 14 14 0 -4
BITMAP
0000
0138
0128
0138
7ff8
0100
0940
1120
1130
2110
2108
4100
0100
0000
ENDCHAR
STARTCHAR 30DE
ENCODING 12510
SWIDTH 520 0
DWIDTH 14 0
BBX 14 14 0 -4
BITMAP
0000
0000
0000
3ff0
0030
0060
08c0
0580
0300
0100
0080
0040
0000
0000
ENDCHAR
STARTCHAR 30DF
ENCODING 12511
SWIDTH 520 0
DWIDTH 14 0
BBX 14 14 0 -4
BITMAP
0000
0000
0f00
01c0
0000
0c00
0380
0040
0000
1c00
0780
0060
0000
0000
ENDCHAR
STARTCHAR 30E0
ENCODING 12512
SWIDTH 520 0
DWIDTH 14 0
BBX 14 14 0 -4
BITMAP
0000
0200
0200
0400
0400
0400
0880
0840
1020
1030
7fd0
0008
0000
0000
ENDCHAR
STARTCHAR 30E1
ENCODING 12513
SWIDTH 520 0
DWIDTH 14 0
BBX 14 14 0 -4
BITMAP
0000
0040
0040
0080
0880
0680
0300
0180
0240
0620
0c00
1800
2000
0000
ENDCHAR
STARTCHAR 30E2
ENCODING 12514
SWIDTH 520 0
DWIDTH 14 0
BBX 14 14 0 -4
BITMAP
0000
0000
3fe0
0200
0200
0200
7ff8
0200
0200
0200
0200
03f0
0000
0000
ENDCHAR
STARTCHAR 30E3
ENCODING 12515
SWIDTH 520 0
DWIDTH 14 0
BBX 14 14 0 -4
BITMAP
0000
0000
0000
0800
0800
0460
0fa0
3c40
02c0
0280
0200
0100
0100
0000
ENDCHAR
STARTCHAR 30E4
ENCODING 12516
SWIDTH 520 0
DWIDTH 14 0
BBX 14 14 0 -4
BITMAP
0000
0800
0800
0400
07f8
7f18
0420
0240
0200
0200
0200
0100
0100
0000
ENDCHAR
STARTCHAR 30E5
ENCODING 12517
SWIDTH 520 0
DWIDTH 14 0
BBX 14 14 0 -4
BITMAP
0000
0000
0000
0000
0000
0000
1f80
0080
0080
0080
0080
3ff0
0000
0000
ENDCHAR
STARTCHAR 30E6
ENCODING 12518
SWIDTH 520 0
DWIDTH 14 0
BBX 14 14 0 -4
BITMAP
0000
0000
0000
1fc0
0040
0040
0040
0040
0040
0040
7ffc
0000
0000
0000
ENDCHAR
STARTCHAR 30E7
ENCODING 12519
SWIDTH 520 0
DWIDTH 14 0
BBX 14 14 0 -4
BITMAP
0000
0000
0000
0000
0000
0fc0
0040
0040
0fc0
0040
0040
0fc0
0040
0000
ENDCHAR
STARTCHAR 30E8
ENCODING 12520
SWIDTH 520 0
DWIDTH 14 0
BBX 14 14 0 -4
BITMAP
0000
0000
1fe0
0020
0020
0020
1fe0
0020
0020
0020
1fe0
0020
0000
0000
ENDCHAR
STARTCHAR 30E9
ENCODING 12521
SWIDTH 520 0
DWIDTH 14 0
BBX 14 14 0 -4
BITMAP
0000
1fe0
0000
0000
0000
3ff0
0010
0010
0020
0020
0040
0180
0600
0000
ENDCHAR
STARTCHAR 30EA
ENCODING 12522
SWIDTH 520 0
DWIDTH 14 0
BBX 14 14 0 -4
BITMAP
0000
0840
0840
0840
0840
0840
0840
0840
0040
00c0
0080
0300
0600
0000
ENDCHAR
STARTCHAR 30EB
ENCODING 12523
SWIDTH 520 0
DWIDTH 14 0
BBX 14 14 0 -4
BITMAP
0000
0000
0100
0900
0900
0900
0900
0908
0910
1160
21c0
4100
0000
0000
ENDCHAR
STARTCHAR 30EC
ENCODING 12524
SWIDTH 520 0
DWIDTH 14 0
BBX 14 14 0 -4
BITMAP
0000
0000
1000
1000
1000
1000
1010
1020
1060
1080
1300
1c00
0000
0000
ENDCHAR
STARTCHAR 30ED
ENCODING 12525
SWIDTH 520 0
DWIDTH 14 0
BBX 14 14 0 -4
BITMAP
0000
0000
0000
1fe0
1020
1020
1020
1020
1020
1020
1fe0
1020
0000
0000
ENDCHAR
STARTCHAR 30EE
ENCODING 12526
SWIDTH 520 0
DWIDTH 14 0
BBX 14 14 0 -4
BITMAP
0000
0000
0000
0000
0000
1fc0
1040
1040
1040
0080
0080
0100
0600
0000
ENDCHAR
STARTCHAR 30EF
ENCODING 12527
SWIDTH 520 0
DWIDTH 14 0
BBX 14 14 0 -4
BITMAP
0000
0000
1ff0
1010
1010
1010
1010
1020
0020
0060
0040
0180
0300
0000
ENDCHAR
STARTCHAR 30F0
ENCODING 12528
SWIDTH 520 0
DWIDTH 14 0
BBX 14 14 0 -4
BITMAP
0000
0100
0100
0100
3ff0
0900
0900
0900
7ff8
0100
0100
0100
0100
0000
ENDCHAR
STARTCHAR 30F1
ENCODING 12529
SWIDTH 520 0
DWIDTH 14 0
BBX 14 14 0 -4
BITMAP
0000
0000
0000
1ff0
0020
0040
0380
0200
0200
0200
7ffc
0000
0000
0000
ENDCHAR
STARTCHAR 30F2
ENCODING 12530
SWIDTH 520 0
DWIDTH 14 0
BBX 14 14 0 -4
BITMAP
0000
0000
3ff0
0010
0010
3fe0
0020
0060
0040
0180
0300
0c00
0000
0000
ENDCHAR
STARTCHAR 30F3
ENCODING 12531
SWIDTH 520 0
DWIDTH 14 0
BBX 14 14 0 -4
BITMAP
0000
0000
2000
1800
0410
0010
0020
0040
00c0
0100
0e00
3000
0000
0000
ENDCHAR
STARTCHAR 30F4
ENCODING 12532
SWIDTH 520 0
DWIDTH 14 0
BBX 14 14 0 -4
BITMAP
0000
0050
0228
0200
3fe0
2020
2020
2040
0040
00c0
0180
0300
0c00
0000
ENDCHAR
STARTCHAR 30F5
ENCODING 12533
SWIDTH 520 0
DWIDTH 14 0
BBX 14 14 0 -4
BITMAP
0000
0000
0000
0200
0200
0200
1fc0
0240
0240
0240
0440
0c40
1980
0000
ENDCHAR
STARTCHAR 30F6
ENCODING 12534
SWIDTH 520 0
DWIDTH 14 0
BBX 14 14 0 -4
BITMAP
0000
0000
0000
0000
0200
0400
07f0
0880
1080
0080
0100
0100
0200
0000
ENDCHAR
STARTCHAR 30F7
ENCODING 12535
SWIDTH 520 0
DWIDTH 14 0
BBX 14 14 0 -4
BITMAP
0000
0008
0034
1fd8
1040
1040
1040
0040
0080
0080
0100
0200
0400
0000
ENDCHAR
STARTCHAR 30F8
ENCODING 12536
SWIDTH 520 0
DWIDTH 14 0
BBX 14 14 0 -4
BITMAP
0000
0110
0128
0110
1fc0
0900
0900
0900
3ff0
0100
0100
0100
0100
0000
ENDCHAR
STARTCHAR 30F9
ENCODING 12537
SWIDTH 520 0
DWIDTH 14 0
BBX 14 14 0 -4
BITMAP
0000
0010
0028
3fd0
00c0
0180
0300
0200
0200
0200
7ff8
0000
0000
0000
ENDCHAR
STARTCHAR 30FA
ENCODING 12538
SWIDTH 520 0
DWIDTH 14 0
BBX 14 14 0 -4
BITMAP
0000
0018
003c
3fd8
0040
0040
1fc0
0080
0080
0100
0200
0c00
1800
0000
ENDCHAR
STARTCHAR 30FB
ENCODING 12539
SWIDTH 520 0
DWIDTH 14 0
BBX 14 14 0 -4
BITMAP
0000
0000
0000
0000
0000
0000
0300
0300
0000
0000
0000
0000
0000
0000
ENDCHAR
STARTCHAR 30FC
ENCODING 12540
SWIDTH 520 0
DWIDTH 14 0
BBX 14 14 0 -4
BITMAP
0000
0000
0000
0000
0000
0000
0000
7ff8
0000
0000
0000
0000
0000
0000
ENDCHAR
STARTCHAR 30FD
ENCODING 12541
SWIDTH 520 0
DWIDTH 14 0
BBX 14 14 0 -4
BITMAP
0000
0000
0000
0000
0000
0400
0200
0100
0080
0040
0000
0000
0000
0000
ENDCHAR
STARTCHAR 30FE
ENCODING 12542
SWIDTH 520 0
DWIDTH 14 0
BBX 14 14 0 -4
BITMAP
0000
0000
0000
0040
00a0
0440
0200
0100
0100
0080
0000
0000
0000
0000
ENDCHAR
STARTCHAR 4E00
ENCODING 19968
SWIDTH 520 0
DWIDTH 14 0
BBX 14 14 0 -4
BITMAP
0000
0000
0000
0000
0000
0000
fffc
0000
0000
0000
0000
0000
0000
0000
ENDCHAR
STARTCHAR 4E01
ENCODING 19969
SWIDTH 520 0
DWIDTH 14 0
BBX 14 14 0 -4
BITMAP
0000
fffc
0100
0100
0100
0100
0100
0100
0100
0100
0100
0100
1e00
0000
ENDCHAR
STARTCHAR 4E02
ENCODING 19970
SWIDTH 520 0
DWIDTH 14 0
BBX 14 14 0 -4
BITMAP
0000
fffc
1000
1000
1000
1000
1ff0
0010
0010
0010
0010
0020
07e0
0000
ENDCHAR
STARTCHAR 4E03
ENCODING 19971
SWIDTH 520 0
DWIDTH 14 0
BBX 14 14 0 -4
BITMAP
0000
0400
0400
0400
0400
07f8
fc00
0400
0400
0408
0408
0408
03f0
0000
ENDCHAR
STARTCHAR 4E04
ENCODING 19972
SWIDTH 520 0
DWIDTH 14 0
BBX 14 14 0 -4
BITMAP
0000
0200
0200
0200
0200
0200
0200
0200
0200
0200
0200
0200
fffc
0000
ENDCHAR
STARTCHAR 4E05
ENCODING 19973
SWIDTH 520 0
DWIDTH 14 0
BBX 14 14 0 -4
BITMAP
0000
fffc
0200
0200
0200
0200
0200
0200
0200
0200
0200
0200
0200
0000
ENDCHAR
STARTCHAR 4E06
ENCODING 19974
SWIDTH 520 0
DWIDTH 14 0
BBX 14 14 0 -4
BITMAP
0000
0000
7ffc
0100
0100
0100
0100
0300
0200
0200
0400
0800
3000
6000
ENDCHAR
STARTCHAR 4E07
ENCODING 19975
SWIDTH 520 0
DWIDTH 14 0
BBX 14 14 0 -4
BITMAP
0000
fffc
0400
0400
0400
07f0
0410
0810
0810
1810
3010
6020
c3e0
0000
ENDCHAR
STARTCHAR 4E08
ENCODING 19976
SWIDTH 520 0
DWIDTH 14 0
BBX 14 14 0 -4
BITMAP
0000
0080
0080
7ff8
0080
1080
1880
0880
0500
0700
0700
1cc0
6038
0000
ENDCHAR
STARTCHAR 4E09
ENCODING 19977
SWIDTH 520 0
DWIDTH 14 0
BBX 14 14 0 -4
BITMAP
0000
7ff8
0000
0000
0000
0000
3ff0
0000
0000
0000
0000
0000
fffc
0000
ENDCHAR
STARTCHAR 4E0A
ENCODING 19978
SWIDTH 520 0
DWIDTH 14 0
BBX 14 14 0 -4
BITMAP
0000
0200
0200
0200
0200
03f8
0200
0200
0200
0200
0200
0200
fffc
0000
ENDCHAR
STARTCHAR 4E0B
ENCODING 19979
SWIDTH 520 0
DWIDTH 14 0
BBX 14 14 0 -4
BITMAP
0000
fffc
0200
0200
0200
0380
02c0
0230
0218
0200
0200
0200
0200
0000
ENDCHAR
STARTCHAR 4E0C
ENCODING 19980
SWIDTH 520 0
DWIDTH 14 0
BBX 14 14 0 -4
BITMAP
0000
7ff8
0840
0840
0840
0840
0840
0840
0840
1040
1040
2040
4040
0000
ENDCHAR
STARTCHAR 4E0D
ENCODING 19981
SWIDTH 520 0
DWIDTH 14 0
BBX 14 14 0 -4
BITMAP
0000
fff8
0100
0200
0600
0600
0a80
1260
3230
6208
8200
0200
0200
0000
ENDCHAR
STARTCHAR 4E0E
ENCODING 19982
SWIDTH 520 0
DWIDTH 14 0
BBX 14 14 0 -4
BITMAP
0000
0800
0800
0ffc
1000
1000
1ff8
0008
0008
7fe8
0008
0010
01f0
0000
ENDCHAR
STARTCHAR 4E0F
ENCODING 19983
SWIDTH 520 0
DWIDTH 14 0
BBX 14 14 0 -4
BITMAP
0000
fff8
0200
4200
43f0
4210
4210
4210
7ff0
0010
0010
0010
03e0
0000
ENDCHAR
STARTCHAR 4E10
ENCODING 19984
SWIDTH 520 0
DWIDTH 14 0
BBX 14 14 0 -4
BITMAP
0000
7ffc
0100
2100
21f8
2100
2100
3ff8
0008
0008
0008
0008
01f0
0000
ENDCHAR
STARTCHAR 4E11
ENCODING 19985
SWIDTH 520 0
DWIDTH 14 0
BBX 14 14 0 -4
BITMAP
0000
7ff0
0410
0410
0420
0420
7fe0
0820
0820
0820
0820
0820
fffc
0000
ENDCHAR
STARTCHAR 4E12
ENCODING 19986
SWIDTH 520 0
DWIDTH 14 0
BBX 14 14 0 -4
BITMAP
0000
7ff0
0410
0410
6410
1e10
0b90
1010
3010
63e0
8000
0000
fff8
0000
ENDCHAR
STARTCHAR 4E13
ENCODING 19987
SWIDTH 520 0
DWIDTH 14 0
BBX 14 14 0 -4
BITMAP
0000
0200
7ff8
0400
0800
fffc
1000
1ff0
0010
1820
0640
01c0
0060
0000
ENDCHAR
STARTCHAR 4E14
ENCODING 19988
SWIDTH 520 0
DWIDTH 14 0
BBX 14 14 0 -4
BITMAP
0000
3ff0
2010
2010
3ff0
2010
2010
2010
3ff0
2010
2010
2010
fffc
0000
ENDCHAR
STARTCHAR 4E15
ENCODING 19989
SWIDTH 520 0
DWIDTH 14 0
BBX 14 14 0 -4
BITMAP
0000
fff8
0100
0200
0600
0a80
0a60
3230
6208
8200
0200
0200
fff8
0000
ENDCHAR
STARTCHAR 4E16
ENCODING 19990
SWIDTH 520 0
DWIDTH 14 0
BBX 14 14 0 -4
BITMAP
0000
0210
2210
2210
fffc
2210
2210
2210
23f0
2210
2000
2000
3ffc
0000
ENDCHAR
STARTCHAR 4E17
ENCODING 19991
SWIDTH 520 0
DWIDTH 14 0
BBX 14 14 0 -4
BITMAP
0000
0100
2110
2110
2110
fffc
2110
2110
2110
2110
2110
2110
3ff0
2010
ENDCHAR
STARTCHAR 4E18
ENCODING 19992
SWIDTH 520 0
DWIDTH 14 0
BBX 14 14 0 -4
BITMAP
0000
0078
1f80
1000
1000
1000
1ff8
1040
1040
1040
1040
1040
7ffc
0000
ENDCHAR
STARTCHAR 4E19
ENCODING 19993
SWIDTH 520 0
DWIDTH 14 0
BBX 14 14 0 -4
BITMAP
0000
fff8
0200
0200
7ff0
4210
4610
4590
58d0
7030
4010
4010
40f0
0000
ENDCHAR
STARTCHAR 4E1A
ENCODING 19994
SWIDTH 520 0
DWIDTH 14 0
BBX 14 14 0 -4
BITMAP
0000
0480
0480
0480
4488
6488
2490
2490
14b0
14a0
0480
0480
fffc
0000
ENDCHAR
STARTCHAR 4E1B
ENCODING 19995
SWIDTH 520 0
DWIDTH 14 0
BBX 14 14 0 -4
BITMAP
0000
0840
0840
0840
0840
0840
0860
14a0
12a0
3190
2108
420c
7ffc
0000
ENDCHAR
STARTCHAR 4E1C
ENCODING 19996
SWIDTH 520 0
DWIDTH 14 0
BBX 14 14 0 -4
BITMAP
0000
0800
1000
fff8
2000
2100
4100
7ff0
0100
1140
2130
4118
8f04
0000
ENDCHAR
STARTCHAR 4E1D
ENCODING 19997
SWIDTH 520 0
DWIDTH 14 0
BBX 14 14 0 -4
BITMAP
0000
0820
1040
1040
2288
4490
f9f0
0820
1040
2498
79e0
0000
fffc
0000
ENDCHAR
STARTCHAR 4E1E
ENCODING 19998
SWIDTH 520 0
DWIDTH 14 0
BBX 14 14 0 -4
BITMAP
0000
3ff0
0060
0180
3d88
05b0
0940
0920
1110
210c
4700
0000
7ffc
0000
ENDCHAR
STARTCHAR 4E1F
ENCODING 19999
SWIDTH 520 0
DWIDTH 14 0
BBX 14 14 0 -4
BITMAP
0000
7ff8
0200
0200
7ff8
0200
0200
0200
fffc
0400
0880
1060
7ff0
0008
ENDCHAR
STARTCHAR 4E20
ENCODING 20000
SWIDTH 520 0
DWIDTH 14 0
BBX 14 14 0 -4
BITMAP
0480
0480
0488
7cb0
04c0
0480
0488
0c88
3488
44f0
0400
0000
7ff8
0000
ENDCHAR
STARTCHAR 4E21
ENCODING 20001
SWIDTH 520 0
DWIDTH 14 0
BBX 14 14 0 -4
BITMAP
0000
fffc
0200
0200
7ff8
4208
5228
5228
5228
5fe8
4008
4008
4078
0000
ENDCHAR
STARTCHAR 4E22
ENCODING 20002
SWIDTH 520 0
DWIDTH 14 0
BBX 14 14 0 -4
BITMAP
0000
00f8
7f00
0200
7ff8
0200
fffc
0400
0880
1060
2070
7f98
0000
0000
ENDCHAR
STARTCHAR 4E23
ENCODING 20003
SWIDTH 520 0
DWIDTH 14 0
BBX 14 14 0 -4
BITMAP
0000
7ff8
0480
0480
7cf8
4488
4488
4488
7cf8
0480
0880
1880
3080
6080
ENDCHAR
STARTCHAR 4E24
ENCODING 20004
SWIDTH 520 0
DWIDTH 14 0
BBX 14 14 0 -4
BITMAP
0000
fffc
0440
0440
7ff8
4448
4448
4cc8
4aa8
5118
6208
4008
4078
0000
ENDCHAR
STARTCHAR 4E25
ENCODING 20005
SWIDTH 520 0
DWIDTH 14 0
BBX 14 14 0 -4
BITMAP
0000
7ffc
2448
1450
1460
0440
3ffc
2000
2000
2000
2000
4000
4000
0000
ENDCHAR
STARTCHAR 4E26
ENCODING 20006
SWIDTH 520 0
DWIDTH 14 0
BBX 14 14 0 -4
BITMAP
1020
0840
0cc0
7ff8
0480
4488
6488
2490
2490
14b0
14a0
0480
fffc
0000
ENDCHAR
STARTCHAR 4E27
ENCODING 20007
SWIDTH 520 0
DWIDTH 14 0
BBX 14 14 0 -4
BITMAP
0000
0100
0100
7ff8
2110
1120
0940
fff8
1210
1160
10c0
1660
381c
0000
ENDCHAR
STARTCHAR 4E28
ENCODING 20008
SWIDTH 520 0
DWIDTH 14 0
BBX 14 14 0 -4
BITMAP
0000
0200
0200
0200
0200
0200
0200
0200
0200
0200
0200
0200
0200
0000
ENDCHAR
STARTCHAR 4E29
ENCODING 20009
SWIDTH 520 0
DWIDTH 14 0
BBX 14 14 0 -4
BITMAP
0000
0080
0080
0880
0880
0880
0880
0880
0980
0e80
0880
0080
0080
0080
ENDCHAR
STARTCHAR 4E2A
ENCODING 20010
SWIDTH 520 0
DWIDTH 14 0
BBX 14 14 0 -4
BITMAP
0000
0200
0700
0500
0880
3240
6230
8218
0200
0200
0200
0200
0200
0000
ENDCHAR
STARTCHAR 4E2B
ENCODING 20011
SWIDTH 520 0
DWIDTH 14 0
BBX 14 14 0 -4
BITMAP
0000
4018
3030
18c0
0d80
0200
0200
0200
0200
0200
0200
0200
0200
0000
ENDCHAR
STARTCHAR 4E2C
ENCODING 20012
SWIDTH 520 0
DWIDTH 14 0
BBX 14 14 0 -4
BITMAP
0000
0080
0880
0480
0680
0280
0080
0180
0780
0c80
1880
0080
0080
0000
ENDCHAR
STARTCHAR 4E2D
ENCODING 20013
SWIDTH 520 0
DWIDTH 14 0
BBX 14 14 0 -4
BITMAP
0000
0200
0200
7ff8
4208
4208
4208
4208
7ff8
4208
0200
0200
0200
0000
ENDCHAR
STARTCHAR 4E2E
ENCODING 20014
SWIDTH 520 0
DWIDTH 14 0
BBX 14 14 0 -4
BITMAP
0000
ffe0
0820
0820
0820
ffa0
0820
0820
ffa0
0824
0824
0834
081c
0818
ENDCHAR
STARTCHAR 4E2F
ENCODING 20015
SWIDTH 520 0
DWIDTH 14 0
BBX 14 14 0 -4
BITMAP
0000
0260
03c0
0e00
3230
02c0
0708
3a30
02c0
0300
1e00
6200
0200
0000
ENDCHAR
STARTCHAR 4E30
ENCODING 20016
SWIDTH 520 0
DWIDTH 14 0
BBX 14 14 0 -4
BITMAP
0000
0200
0200
fffc
0200
0200
7ff8
0200
0200
fffc
0200
0200
0200
0000
ENDCHAR
STARTCHAR 4E31
ENCODING 20017
SWIDTH 520 0
DWIDTH 14 0
BBX 14 14 0 -4
BITMAP
0000
0480
4488
4488
4488
4488
4488
5cf8
6488
0c80
0880
1880
3080
6080
ENDCHAR
STARTCHAR 4E32
ENCODING 20018
SWIDTH 520 0
DWIDTH 14 0
BBX 14 14 0 -4
BITMAP
0000
0200
3ff0
2210
2210
3ff0
0200
7ff8
4208
4208
7ff8
0200
0200
0000
ENDCHAR
STARTCHAR 4E33
ENCODING 20019
SWIDTH 520 0
DWIDTH 14 0
BBX 14 14 0 -4
BITMAP
0000
0480
3ff0
2490
2490
3ff0
0480
7ff8
4488
4488
7ff8
0480
0880
3080
ENDCHAR
STARTCHAR 4E34
ENCODING 20020
SWIDTH 520 0
DWIDTH 14 0
BBX 14 14 0 -4
BITMAP
0000
1080
5100
53fc
5240
5420
5000
53f8
5248
5248
5248
53f8
1208
0000
ENDCHAR
STARTCHAR 4E35
ENCODING 20021
SWIDTH 520 0
DWIDTH 14 0
BBX 14 14 0 -4
BITMAP
0000
2448
1450
1460
7ffc
0820
0440
3ff8
0100
0100
7ffc
0100
0100
0100
ENDCHAR
STARTCHAR 4E36
ENCODING 20022
SWIDTH 520 0
DWIDTH 14 0
BBX 14 14 0 -4
BITMAP
0000
0000
0000
0000
0000
3000
1800
0c00
0600
0000
0000
0000
0000
0000
ENDCHAR
STARTCHAR 4E37
ENCODING 20023
SWIDTH 520 0
DWIDTH 14 0
BBX 14 14 0 -4
BITMAP
0000
0000
3010
1020
0840
0480
0000
0000
0000
0000
0000
0000
0000
0000
ENDCHAR
STARTCHAR 4E38
ENCODING 20024
SWIDTH 520 0
DWIDTH 14 0
BBX 14 14 0 -4
BITMAP
0000
0400
0400
3fc0
0440
0440
2440
1c40
0e40
0b44
1844
3044
6078
0000
ENDCHAR
STARTCHAR 4E39
ENCODING 20025
SWIDTH 520 0
DWIDTH 14 0
BBX 14 14 0 -4
BITMAP
0000
1ff0
1010
1210
1110
1090
1010
7ffc
1010
1010
2010
2010
40f0
0000
ENDCHAR
STARTCHAR 4E3A
ENCODING 20026
SWIDTH 520 0
DWIDTH 14 0
BBX 14 14 0 -4
BITMAP
0000
2200
1200
0a00
0200
7ff0
0210
0210
0590
04d0
0810
3010
61e0
0000
ENDCHAR
STARTCHAR 4E3B
ENCODING 20027
SWIDTH 520 0
DWIDTH 14 0
BBX 14 14 0 -4
BITMAP
0000
0200
0100
0100
7ff8
0100
0100
0100
7ff8
0100
0100
0100
fffc
0000
ENDCHAR
STARTCHAR 4E3C
ENCODING 20028
SWIDTH 520 0
DWIDTH 14 0
BBX 14 14 0 -4
BITMAP
0000
0820
0820
7ffc
0820
0a20
0920
08a0
0820
7ffc
0820
1020
3020
6020
ENDCHAR
STARTCHAR 4E3D
ENCODING 20029
SWIDTH 520 0
DWIDTH 14 0
BBX 14 14 0 -4
BITMAP
0000
fffc
0000
7cf8
4488
4488
64c8
54e8
4ca8
4488
4488
4488
5cb8
0000
ENDCHAR
STARTCHAR 4E3E
ENCODING 20030
SWIDTH 520 0
DWIDTH 14 0
BBX 14 14 0 -4
BITMAP
0000
2230
1140
7ffc
0840
1120
6110
cfec
0100
0100
7ff8
0100
0100
0000
ENDCHAR
STARTCHAR 4E3F
ENCODING 20031
SWIDTH 520 0
DWIDTH 14 0
BBX 14 14 0 -4
BITMAP
0000
0080
0080
0080
0080
0080
0080
0080
0080
0100
0300
0600
0c00
0000
ENDCHAR
STARTCHAR 4E40
ENCODING 20032
SWIDTH 520 0
DWIDTH 14 0
BBX 14 14 0 -4
BITMAP
0000
0000
0400
1e00
3200
4200
0300
0100
0080
00c0
0060
0030
0008
0000
ENDCHAR
STARTCHAR 4E41
ENCODING 20033
SWIDTH 520 0
DWIDTH 14 0
BBX 14 14 0 -4
BITMAP
0000
3fc0
0040
0040
0040
0040
0040
0040
0040
0040
0020
0030
0018
000c
ENDCHAR
STARTCHAR 4E42
ENCODING 20034
SWIDTH 520 0
DWIDTH 14 0
BBX 14 14 0 -4
BITMAP
0000
0000
2010
2010
1020
1020
0840
0840
0480
0380
0300
0c80
3870
c00c
ENDCHAR
STARTCHAR 4E43
ENCODING 20035
SWIDTH 520 0
DWIDTH 14 0
BBX 14 14 0 -4
BITMAP
0000
7ff0
0830
0820
0860
0878
0808
1008
1008
1008
2008
6008
c1f0
0000
ENDCHAR
STARTCHAR 4E44
ENCODING 20036
SWIDTH 520 0
DWIDTH 14 0
BBX 14 14 0 -4
BITMAP
0040
0040
0040
0040
1040
0c80
0380
0180
0160
4130
4308
6600
3c00
3800
ENDCHAR
STARTCHAR 4E45
ENCODING 20037
SWIDTH 520 0
DWIDTH 14 0
BBX 14 14 0 -4
BITMAP
0000
0400
0c00
0fc0
1040
2080
4080
0180
0380
0640
0860
3010
c00c
0000
ENDCHAR
STARTCHAR 4E46
ENCODING 20038
SWIDTH 520 0
DWIDTH 14 0
BBX 14 14 0 -4
BITMAP
0000
0880
0880
1180
1100
1100
2700
3b00
0280
0680
0440
0860
3030
6018
ENDCHAR
STARTCHAR 4E47
ENCODING 20039
SWIDTH 520 0
DWIDTH 14 0
BBX 14 14 0 -4
BITMAP
0000
0070
7fc0
0200
0200
0200
03f8
fe00
0200
0208
0208
0208
03f0
0000
ENDCHAR
STARTCHAR 4E48
ENCODING 20040
SWIDTH 520 0
DWIDTH 14 0
BBX 14 14 0 -4
BITMAP
0000
0100
0200
0620
0c40
18c0
3080
6100
0220
0410
0c08
19f8
3e04
0000
ENDCHAR
STARTCHAR 4E49
ENCODING 20041
SWIDTH 520 0
DWIDTH 14 0
BBX 14 14 0 -4
BITMAP
0000
0200
2110
2110
1020
1020
0840
0c40
0480
0300
0780
1860
e01c
0000
ENDCHAR
STARTCHAR 4E4A
ENCODING 20042
SWIDTH 520 0
DWIDTH 14 0
BBX 14 14 0 -4
BITMAP
0000
0018
3fe0
0000
1010
0820
0820
0440
0000
0000
0000
0000
0000
0000
ENDCHAR
STARTCHAR 4E4B
ENCODING 20043
SWIDTH 520 0
DWIDTH 14 0
BBX 14 14 0 -4
BITMAP
0000
0200
0100
0100
7ff0
0020
00c0
0180
0600
0c00
3000
5800
8ff8
0000
ENDCHAR
STARTCHAR 4E4C
ENCODING 20044
SWIDTH 520 0
DWIDTH 14 0
BBX 14 14 0 -4
BITMAP
0000
0400
0400
3ff0
2010
2010
21e0
2000
3ff8
0008
ffe8
0008
01f0
0000
ENDCHAR
STARTCHAR 4E4D
ENCODING 20045
SWIDTH 520 0
DWIDTH 14 0
BBX 14 14 0 -4
BITMAP
0000
1000
3000
3ffc
6400
4400
87f8
0400
0400
07fc
0400
0400
0400
0000
ENDCHAR
STARTCHAR 4E4E
ENCODING 20046
SWIDTH 520 0
DWIDTH 14 0
BBX 14 14 0 -4
BITMAP
0000
0078
7f80
2110
1120
0940
0100
fffc
0100
0100
0100
0100
0f00
0000
ENDCHAR
STARTCHAR 4E4F
ENCODING 20047
SWIDTH 520 0
DWIDTH 14 0
BBX 14 14 0 -4
BITMAP
0000
0070
7f80
0400
0600
0200
7ff0
0060
0180
0e00
3800
5000
8ff8
0000
ENDCHAR
STARTCHAR 4E50
ENCODING 20048
SWIDTH 520 0
DWIDTH 14 0
BBX 14 14 0 -4
BITMAP
0000
01e0
7f00
4000
4100
4100
7ff8
0100
1120
2110
6118
410c
8f04
0000
ENDCHAR
STARTCHAR 4E51
ENCODING 20049
SWIDTH 520 0
DWIDTH 14 0
BBX 14 14 0 -4
BITMAP
0000
0018
7fe0
0100
0584
1998
6160
c540
0920
1130
6118
810c
0100
0000
ENDCHAR
STARTCHAR 4E52
ENCODING 20050
SWIDTH 520 0
DWIDTH 14 0
BBX 14 14 0 -4
BITMAP
0000
00f0
1f80
1000
1000
1ff8
1040
1040
1040
7ffc
0c00
1800
6000
0000
ENDCHAR
STARTCHAR 4E53
ENCODING 20051
SWIDTH 520 0
DWIDTH 14 0
BBX 14 14 0 -4
BITMAP
0000
01f0
1f00
1000
1000
1ff8
1040
1040
1040
7ffc
00c0
0070
0018
0000
ENDCHAR
STARTCHAR 4E54
ENCODING 20052
SWIDTH 520 0
DWIDTH 14 0
BBX 14 14 0 -4
BITMAP
0000
0078
7f80
0100
0200
fffc
0480
1860
e85c
0840
0840
1040
6040
0000
ENDCHAR
STARTCHAR 4E55
ENCODING 20053
SWIDTH 520 0
DWIDTH 14 0
BBX 14 14 0 -4
BITMAP
0078
3f80
2080
2ff8
2080
2080
3ff8
2080
2080
2ff8
2888
2888
48b8
4080
ENDCHAR
STARTCHAR 4E56
ENCODING 20054
SWIDTH 520 0
DWIDTH 14 0
BBX 14 14 0 -4
BITMAP
0000
0078
3fe0
0100
7ffc
0100
0924
7938
0924
3924
4938
0100
0100
0000
ENDCHAR
STARTCHAR 4E57
ENCODING 20055
SWIDTH 520 0
DWIDTH 14 0
BBX 14 14 0 -4
BITMAP
0000
7ff8
0100
7ff8
1120
1120
fffc
1120
1120
7ff8
0380
1d60
e11c
0100
ENDCHAR
STARTCHAR 4E58
ENCODING 20056
SWIDTH 520 0
DWIDTH 14 0
BBX 14 14 0 -4
BITMAP
0000
0078
3f80
0100
7ffc
0920
793c
0924
3bbc
4540
0960
1130
610c
0000
ENDCHAR
STARTCHAR 4E59
ENCODING 20057
SWIDTH 520 0
DWIDTH 14 0
BBX 14 14 0 -4
BITMAP
0000
7fe0
0040
0180
0300
0600
0c00
1800
3008
6008
4008
4018
3ff0
0000
ENDCHAR
STARTCHAR 4E5A
ENCODING 20058
SWIDTH 520 0
DWIDTH 14 0
BBX 14 14 0 -4
BITMAP
0000
0400
0400
0400
0400
0400
0400
0400
0400
0408
0408
0408
03f0
0000
ENDCHAR
STARTCHAR 4E5B
ENCODING 20059
SWIDTH 520 0
DWIDTH 14 0
BBX 14 14 0 -4
BITMAP
0000
0000
7ff8
0018
0010
0020
0000
0000
0000
0000
0000
0000
0000
0000
ENDCHAR
STARTCHAR 4E5C
ENCODING 20060
SWIDTH 520 0
DWIDTH 14 0
BBX 14 14 0 -4
BITMAP
0000
1000
1000
10f0
1f10
f010
1010
1010
11f0
1004
1004
1004
0ff8
0000
ENDCHAR
STARTCHAR 4E5D
ENCODING 20061
SWIDTH 520 0
DWIDTH 14 0
BBX 14 14 0 -4
BITMAP
0000
0400
0400
0400
7fc0
0440
0440
0440
0c40
0844
1844
3044
6078
0000
ENDCHAR
STARTCHAR 4E5E
ENCODING 20062
SWIDTH 520 0
DWIDTH 14 0
BBX 14 14 0 -4
BITMAP
0000
0800
1800
1ff8
2000
2000
5fe0
00c0
0300
0408
1808
1018
1ff0
0000
ENDCHAR
STARTCHAR 4E5F
ENCODING 20063
SWIDTH 520 0
DWIDTH 14 0
BBX 14 14 0 -4
BITMAP
0000
0100
0100
2100
2170
3f90
e110
2110
2110
2174
2104
2004
3ff8
0000
ENDCHAR
STARTCHAR 4E60
ENCODING 20064
SWIDTH 520 0
DWIDTH 14 0
BBX 14 14 0 -4
BITMAP
0000
7ff0
0010
1810
0610
0310
0010
0050
0390
1c10
6010
0010
03e0
0000
ENDCHAR
STARTCHAR 4E61
ENCODING 20065
SWIDTH 520 0
DWIDTH 14 0
BBX 14 14 0 -4
BITMAP
0000
0300
0420
18c0
3f80
0300
0610
0830
1fe0
3840
0180
0e00
7000
0000
ENDCHAR
STARTCHAR 4E62
ENCODING 20066
SWIDTH 520 0
DWIDTH 14 0
BBX 14 14 0 -4
BITMAP
0000
1080
1080
5280
5280
5280
5280
5280
5280
5280
5284
7e84
0284
00f8
ENDCHAR
STARTCHAR 4E63
ENCODING 20067
SWIDTH 520 0
DWIDTH 14 0
BBX 14 14 0 -4
BITMAP
0840
1040
1040
2140
2240
4240
7c40
0840
0840
1240
2244
4344
7d44
0178
ENDCHAR
STARTCHAR 4E64
ENCODING 20068
SWIDTH 520 0
DWIDTH 14 0
BBX 14 14 0 -4
BITMAP
0000
fff8
0380
0260
0210
0000
7fe0
01c0
0600
1808
2008
4018
3ff0
0000
ENDCHAR
STARTCHAR 4E65
ENCODING 20069
SWIDTH 520 0
DWIDTH 14 0
BBX 14 14 0 -4
BITMAP
0000
7ff0
2020
1040
1840
0880
7fe0
01c0
0600
1808
2008
4018
3ff0
0000
ENDCHAR
STARTCHAR 4E66
ENCODING 20070
SWIDTH 520 0
DWIDTH 14 0
BBX 14 14 0 -4
BITMAP
0000
0220
0210
0208
3fe0
0220
0220
7ff8
0208
0208
0208
0278
0200
0000
ENDCHAR
STARTCHAR 4E67
ENCODING 20071
SWIDTH 520 0
DWIDTH 14 0
BBX 14 14 0 -4
BITMAP
0000
1840
0640
7040
0e78
ffc0
0040
7fe0
01c0
0608
3808
2018
3ff0
0000
ENDCHAR
STARTCHAR 4E68
ENCODING 20072
SWIDTH 520 0
DWIDTH 14 0
BBX 14 14 0 -4
BITMAP
0000
1040
2040
2440
4240
7e40
e140
7e40
4240
4244
4244
7e44
4278
0000
ENDCHAR
STARTCHAR 4E69
ENCODING 20073
SWIDTH 520 0
DWIDTH 14 0
BBX 14 14 0 -4
BITMAP
0000
1040
1040
1f40
1040
1040
1040
7e40
4240
4244
4244
7e44
4278
0000
ENDCHAR
STARTCHAR 4E6A
ENCODING 20074
SWIDTH 520 0
DWIDTH 14 0
BBX 14 14 0 -4
BITMAP
0000
f3f0
1290
2290
2290
23f0
4290
4290
4290
83f4
8214
8004
7ff8
0000
ENDCHAR
STARTCHAR 4E6B
ENCODING 20075
SWIDTH 520 0
DWIDTH 14 0
BBX 14 14 0 -4
BITMAP
0000
2000
fcf8
2488
2488
44f8
9800
7fe0
01c0
0e08
3808
6008
7ff0
0000
ENDCHAR
STARTCHAR 4E6C
ENCODING 20076
SWIDTH 520 0
DWIDTH 14 0
BBX 14 14 0 -4
BITMAP
0000
7ff8
4000
7fe0
7fe0
4020
7ff8
0000
7fe0
03c0
1c08
6008
7ff0
0000
ENDCHAR
STARTCHAR 4E6D
ENCODING 20077
SWIDTH 520 0
DWIDTH 14 0
BBX 14 14 0 -4
BITMAP
0000
fff8
0800
1ff0
7010
dff0
0000
7fe0
01c0
0e08
3808
6008
3ff0
0000
ENDCHAR
STARTCHAR 4E6E
ENCODING 20078
SWIDTH 520 0
DWIDTH 14 0
BBX 14 14 0 -4
BITMAP
0000
0c00
71f8
5d08
6508
1978
e000
7fc0
0380
1c08
7008
c018
7ff0
0000
ENDCHAR
STARTCHAR 4E6F
ENCODING 20079
SWIDTH 520 0
DWIDTH 14 0
BBX 14 14 0 -4
BITMAP
0000
3ff0
1120
0940
7ff8
0100
0f00
3fc0
0180
0e08
3008
4018
7ff0
0000
ENDCHAR
STARTCHAR 4E70
ENCODING 20080
SWIDTH 520 0
DWIDTH 14 0
BBX 14 14 0 -4
BITMAP
0000
7ff8
0008
1910
0d00
6100
1900
fffc
0300
0780
0c60
3018
c004
0000
ENDCHAR
STARTCHAR 4E71
ENCODING 20081
SWIDTH 520 0
DWIDTH 14 0
BBX 14 14 0 -4
BITMAP
0000
0740
f840
0840
0840
ff40
0840
0840
7e40
4240
4244
7e44
4278
0000
ENDCHAR
STARTCHAR 4E72
ENCODING 20082
SWIDTH 520 0
DWIDTH 14 0
BBX 14 14 0 -4
BITMAP
0000
4200
27f8
0488
18d0
6360
8c18
7fc0
0180
0e08
3008
4018
7ff0
0000
ENDCHAR
STARTCHAR 4E73
ENCODING 20083
SWIDTH 520 0
DWIDTH 14 0
BBX 14 14 0 -4
BITMAP
0000
0740
7840
1140
4a40
2440
7e40
0440
0840
0f44
f844
0844
7878
0000
ENDCHAR
STARTCHAR 4E74
ENCODING 20084
SWIDTH 520 0
DWIDTH 14 0
BBX 14 14 0 -4
BITMAP
1000
11f8
7d00
1df8
7320
1620
3000
3fc0
0180
0e08
3008
4018
7ff0
0000
ENDCHAR
STARTCHAR 4E75
ENCODING 20085
SWIDTH 520 0
DWIDTH 14 0
BBX 14 14 0 -4
BITMAP
1040
0840
fe40
4240
2440
2840
fe40
1040
1040
ff44
1044
1044
1044
1078
ENDCHAR
STARTCHAR 4E76
ENCODING 20086
SWIDTH 520 0
DWIDTH 14 0
BBX 14 14 0 -4
BITMAP
0130
7ff8
0100
3ff0
3ff0
2110
3ff0
2110
3fe0
01c0
1e08
6008
3ff0
0000
ENDCHAR
STARTCHAR 4E77
ENCODING 20087
SWIDTH 520 0
DWIDTH 14 0
BBX 14 14 0 -4
BITMAP
3040
1950
6248
1644
0818
3060
4f80
3fe0
01c0
0604
3804
200c
3ff8
0000
ENDCHAR
STARTCHAR 4E78
ENCODING 20088
SWIDTH 520 0
DWIDTH 14 0
BBX 14 14 0 -4
BITMAP
1000
10f8
5108
5d48
7528
d7fc
5548
5528
5508
55f8
5c08
5074
4004
7ff8
ENDCHAR
STARTCHAR 4E79
ENCODING 20089
SWIDTH 520 0
DWIDTH 14 0
BBX 14 14 0 -4
BITMAP
0000
0840
ff40
0840
7e40
4240
7e40
4240
4240
7e40
0844
ff44
0844
0878
ENDCHAR
STARTCHAR 4E7A
ENCODING 20090
SWIDTH 520 0
DWIDTH 14 0
BBX 14 14 0 -4
BITMAP
0c18
71e0
4100
7df8
4520
7f20
c220
8000
7fc0
0388
1c08
6018
7ff0
0000
ENDCHAR
STARTCHAR 4E7B
ENCODING 20091
SWIDTH 520 0
DWIDTH 14 0
BBX 14 14 0 -4
BITMAP
3040
7ca0
2110
3ec8
2430
45c0
9c70
7fe0
01c0
0e08
3808
6008
7ff0
0000
ENDCHAR
STARTCHAR 4E7C
ENCODING 20092
SWIDTH 520 0
DWIDTH 14 0
BBX 14 14 0 -4
BITMAP
30c0
1860
63f8
1040
0bf0
3040
47f8
0000
3fc0
0188
0e08
7018
3ff0
0000
ENDCHAR
STARTCHAR 4E7D
ENCODING 20093
SWIDTH 520 0
DWIDTH 14 0
BBX 14 14 0 -4
BITMAP
0200
3fd0
0220
02c0
fff8
1010
fff0
1010
3ff0
03c0
1c08
2008
3ff0
0000
ENDCHAR
STARTCHAR 4E7E
ENCODING 20094
SWIDTH 520 0
DWIDTH 14 0
BBX 14 14 0 -4
BITMAP
0000
1080
7dfc
1100
7e00
45f8
7c10
4420
7c40
54c4
1084
7f04
10f8
0000
ENDCHAR
STARTCHAR 4E7F
ENCODING 20095
SWIDTH 520 0
DWIDTH 14 0
BBX 14 14 0 -4
BITMAP
0000
ff40
5140
2a40
3040
2340
7e40
0a40
3140
ffc0
2844
4a44
8944
3878
ENDCHAR
STARTCHAR 4E80
ENCODING 20096
SWIDTH 520 0
DWIDTH 14 0
BBX 14 14 0 -4
BITMAP
0800
1fe0
2040
7ff0
a210
3ff0
2210
7ff8
4208
7ff8
4208
7ff8
4204
03fc
ENDCHAR
STARTCHAR 4E81
ENCODING 20097
SWIDTH 520 0
DWIDTH 14 0
BBX 14 14 0 -4
BITMAP
0000
1040
fefc
1080
7f00
42f8
7e10
4220
7e40
f084
ff04
1104
11f8
0000
ENDCHAR
STARTCHAR 4E82
ENCODING 20098
SWIDTH 520 0
DWIDTH 14 0
BBX 14 14 0 -4
BITMAP
0000
7f20
49a0
2620
7f20
3e20
7fa0
4ca0
5ea0
5ea0
54a4
4ca4
72a4
43b8
ENDCHAR
STARTCHAR 4E83
ENCODING 20099
SWIDTH 520 0
DWIDTH 14 0
BBX 14 14 0 -4
BITMAP
0000
48a0
2920
2a20
ffa0
1e20
69a0
a220
77a0
5a20
fa24
2fa4
4224
8238
ENDCHAR
STARTCHAR 4E84
ENCODING 20100
SWIDTH 520 0
DWIDTH 14 0
BBX 14 14 0 -4
BITMAP
0000
0420
7fa0
0420
7fa0
40a0
3fa0
0020
3f20
2120
3f24
2124
1224
7fb8
ENDCHAR
STARTCHAR 4E85
ENCODING 20101
SWIDTH 520 0
DWIDTH 14 0
BBX 14 14 0 -4
BITMAP
0000
0040
0040
0040
0040
0040
0040
0040
0040
0040
0040
0040
07c0
0000
ENDCHAR
STARTCHAR 4E86
ENCODING 20102
SWIDTH 520 0
DWIDTH 14 0
BBX 14 14 0 -4
BITMAP
0000
7ff8
0038
0060
00c0
0180
0100
0100
0100
0100
0100
0100
1e00
0000
ENDCHAR
STARTCHAR 4E87
ENCODING 20103
SWIDTH 520 0
DWIDTH 14 0
BBX 14 14 0 -4
BITMAP
0800
1000
1ff8
2218
4210
8220
0200
0200
0200
0200
0200
0200
1e00
0000
ENDCHAR
STARTCHAR 4E88
ENCODING 20104
SWIDTH 520 0
DWIDTH 14 0
BBX 14 14 0 -4
BITMAP
0000
3ff0
0060
08c0
0780
0100
7ff8
0108
0110
0100
0100
0100
1e00
0000
ENDCHAR
STARTCHAR 4E89
ENCODING 20105
SWIDTH 520 0
DWIDTH 14 0
BBX 14 14 0 -4
BITMAP
0000
0800
1fc0
6080
fff0
0210
fffc
0210
0210
3ff0
0210
0200
1e00
0000
ENDCHAR
STARTCHAR 4E8A
ENCODING 20106
SWIDTH 520 0
DWIDTH 14 0
BBX 14 14 0 -4
BITMAP
0000
0200
fffc
2210
3220
1240
7ff0
0210
fffc
0210
7ff0
0210
0200
1e00
ENDCHAR
STARTCHAR 4E8B
ENCODING 20107
SWIDTH 520 0
DWIDTH 14 0
BBX 14 14 0 -4
BITMAP
0000
0200
fffc
0200
3ff0
2210
7ff0
0210
fffc
0210
7ff0
0210
1e00
0000
ENDCHAR
STARTCHAR 4E8C
ENCODING 20108
SWIDTH 520 0
DWIDTH 14 0
BBX 14 14 0 -4
BITMAP
0000
0000
7ff8
0000
0000
0000
0000
0000
0000
0000
0000
fffc
0000
0000
ENDCHAR
STARTCHAR 4E8D
ENCODING 20109
SWIDTH 520 0
DWIDTH 14 0
BBX 14 14 0 -4
BITMAP
0000
7ff8
0000
0000
0000
fffc
0100
0100
0100
0100
0100
0100
1f00
0000
ENDCHAR
STARTCHAR 4E8E
ENCODING 20110
SWIDTH 520 0
DWIDTH 14 0
BBX 14 14 0 -4
BITMAP
0000
7ff8
0100
0100
0100
0100
fffc
0100
0100
0100
0100
0100
0f00
0000
ENDCHAR
STARTCHAR 4E8F
ENCODING 20111
SWIDTH 520 0
DWIDTH 14 0
BBX 14 14 0 -4
BITMAP
0000
3ff8
0000
0000
7ffc
0800
1000
1ff0
0010
0010
0010
0010
01e0
0000
ENDCHAR
STARTCHAR 4E90
ENCODING 20112
SWIDTH 520 0
DWIDTH 14 0
BBX 14 14 0 -4
BITMAP
0000
3ff8
0400
0400
fffc
0800
1000
1ff0
0010
0010
0010
0010
03e0
0000
ENDCHAR
STARTCHAR 4E91
ENCODING 20113
SWIDTH 520 0
DWIDTH 14 0
BBX 14 14 0 -4
BITMAP
0000
3ff8
0000
0000
0000
0000
7ffc
0200
0400
0440
0820
11f0
3e08
0000
ENDCHAR
STARTCHAR 4E92
ENCODING 20114
SWIDTH 520 0
DWIDTH 14 0
BBX 14 14 0 -4
BITMAP
0000
7ff8
1000
1000
1fe0
1020
2020
2020
3fe0
0020
0020
0020
fffc
0000
ENDCHAR
STARTCHAR 4E93
ENCODING 20115
SWIDTH 520 0
DWIDTH 14 0
BBX 14 14 0 -4
BITMAP
0000
7ff8
0000
0000
0000
fffc
0840
0840
0840
0840
1040
3040
6040
0000
ENDCHAR
STARTCHAR 4E94
ENCODING 20116
SWIDTH 520 0
DWIDTH 14 0
BBX 14 14 0 -4
BITMAP
0000
fff0
0800
0800
0800
ffe0
1820
1020
1020
1020
1020
1020
fff8
0000
ENDCHAR
STARTCHAR 4E95
ENCODING 20117
SWIDTH 520 0
DWIDTH 14 0
BBX 14 14 0 -4
BITMAP
0000
0840
0840
0840
fff8
0840
0840
0840
fff8
0840
0840
1040
6040
0000
ENDCHAR
STARTCHAR 4E96
ENCODING 20118
SWIDTH 520 0
DWIDTH 14 0
BBX 14 14 0 -4
BITMAP
0000
7ff8
0000
0000
0000
fffc
0000
0000
7ff8
0000
0000
0000
fffc
0000
ENDCHAR
STARTCHAR 4E97
ENCODING 20119
SWIDTH 520 0
DWIDTH 14 0
BBX 14 14 0 -4
BITMAP
0200
2210
2210
2210
3ff0
0010
0000
0000
3ff0
0000
0000
0000
7ff8
0000
ENDCHAR
STARTCHAR 4E98
ENCODING 20120
SWIDTH 520 0
DWIDTH 14 0
BBX 14 14 0 -4
BITMAP
0000
7ff8
0000
3ff0
2010
2010
3ff0
2010
2010
3ff0
2010
0000
fffc
0000
ENDCHAR
STARTCHAR 4E99
ENCODING 20121
SWIDTH 520 0
DWIDTH 14 0
BBX 14 14 0 -4
BITMAP
0000
7ff8
1000
1000
1ff0
1020
2620
21e0
2020
2c20
23a0
0020
fffc
0000
ENDCHAR
STARTCHAR 4E9A
ENCODING 20122
SWIDTH 520 0
DWIDTH 14 0
BBX 14 14 0 -4
BITMAP
0000
7ff8
0480
0480
4488
6488
2490
2490
14b0
14a0
0480
0480
fffc
0000
ENDCHAR
STARTCHAR 4E9B
ENCODING 20123
SWIDTH 520 0
DWIDTH 14 0
BBX 14 14 0 -4
BITMAP
0000
0440
2448
2750
2460
2444
2744
3c78
6000
1ff0
0000
0000
7ffc
0000
ENDCHAR
STARTCHAR 4E9C
ENCODING 20124
SWIDTH 520 0
DWIDTH 14 0
BBX 14 14 0 -4
BITMAP
0000
7ffc
0440
0440
3ff8
2448
2448
2448
3ff8
2448
0440
0440
7ffc
0000
ENDCHAR
STARTCHAR 4E9D
ENCODING 20125
SWIDTH 520 0
DWIDTH 14 0
BBX 14 14 0 -4
BITMAP
0600
0880
3060
7ff0
1028
2850
4488
fffc
0000
7ff8
0000
0000
fffc
0000
ENDCHAR
STARTCHAR 4E9E
ENCODING 20126
SWIDTH 520 0
DWIDTH 14 0
BBX 14 14 0 -4
BITMAP
0000
fffc
0480
0480
7cf8
4008
4008
4008
7cf8
0480
0480
0480
fffc
0000
ENDCHAR
STARTCHAR 4E9F
ENCODING 20127
SWIDTH 520 0
DWIDTH 14 0
BBX 14 14 0 -4
BITMAP
0000
7ff0
0060
01c0
7b00
4a78
4a08
4a50
7a20
4270
0f88
0000
fffc
0000
ENDCHAR
STARTCHAR 4EA0
ENCODING 20128
SWIDTH 520 0
DWIDTH 14 0
BBX 14 14 0 -4
BITMAP
0000
0200
0300
0100
7ff8
0000
0000
0000
0000
0000
0000
0000
0000
0000
ENDCHAR
STARTCHAR 4EA1
ENCODING 20129
SWIDTH 520 0
DWIDTH 14 0
BBX 14 14 0 -4
BITMAP
0000
0200
0300
0100
fffc
2000
2000
2000
2000
2000
2000
2000
3ff8
0000
ENDCHAR
STARTCHAR 4EA2
ENCODING 20130
SWIDTH 520 0
DWIDTH 14 0
BBX 14 14 0 -4
BITMAP
0000
0200
0100
fffc
0000
0000
1fc0
1040
1040
1040
2044
6044
c078
0000
ENDCHAR
STARTCHAR 4EA3
ENCODING 20131
SWIDTH 520 0
DWIDTH 14 0
BBX 14 14 0 -4
BITMAP
0200
0100
0100
fffc
0840
0840
0840
0840
0840
1040
1040
2040
6040
c040
ENDCHAR
STARTCHAR 4EA4
ENCODING 20132
SWIDTH 520 0
DWIDTH 14 0
BBX 14 14 0 -4
BITMAP
0000
0200
0100
7ff8
0880
1060
6870
ccc8
0480
0300
0700
1cc0
6038
0000
ENDCHAR
STARTCHAR 4EA5
ENCODING 20133
SWIDTH 520 0
DWIDTH 14 0
BBX 14 14 0 -4
BITMAP
0000
0200
0100
7ff8
0440
1880
3f90
0320
0660
18c0
6340
0e30
3008
0000
ENDCHAR
STARTCHAR 4EA6
ENCODING 20134
SWIDTH 520 0
DWIDTH 14 0
BBX 14 14 0 -4
BITMAP
0000
0200
0100
fffc
0440
0440
2450
4448
4448
8844
1840
3040
63c0
0000
ENDCHAR
STARTCHAR 4EA7
ENCODING 20135
SWIDTH 520 0
DWIDTH 14 0
BBX 14 14 0 -4
BITMAP
0000
0100
0080
7ffc
0820
0440
3ffc
2000
2000
2000
2000
6000
4000
0000
ENDCHAR
STARTCHAR 4EA8
ENCODING 20136
SWIDTH 520 0
DWIDTH 14 0
BBX 14 14 0 -4
BITMAP
0000
0300
fffc
0000
3ff0
2010
3ff0
0000
7ff8
0078
01c0
0100
0f00
0000
ENDCHAR
STARTCHAR 4EA9
ENCODING 20137
SWIDTH 520 0
DWIDTH 14 0
BBX 14 14 0 -4
BITMAP
0000
0200
0100
7ff8
0000
3ff0
2110
2110
3ff0
2110
2110
3ff0
2010
0000
ENDCHAR
STARTCHAR 4EAA
ENCODING 20138
SWIDTH 520 0
DWIDTH 14 0
BBX 14 14 0 -4
BITMAP
0100
0080
7ffc
0440
1450
2c48
5844
31c0
0000
3ff0
0010
0010
000c
0004
ENDCHAR
STARTCHAR 4EAB
ENCODING 20139
SWIDTH 520 0
DWIDTH 14 0
BBX 14 14 0 -4
BITMAP
0000
0300
fffc
2010
3ff0
0000
7ff0
0060
0180
fffc
0100
0100
0f00
0000
ENDCHAR
STARTCHAR 4EAC
ENCODING 20140
SWIDTH 520 0
DWIDTH 14 0
BBX 14 14 0 -4
BITMAP
0000
0300
fffc
0000
3ff0
2010
3ff0
2110
0100
1960
3118
c10c
0700
0000
ENDCHAR
STARTCHAR 4EAD
ENCODING 20141
SWIDTH 520 0
DWIDTH 14 0
BBX 14 14 0 -4
BITMAP
0000
0300
7ff8
0000
1fe0
1020
1fe0
0000
7ff8
4008
1fe0
0100
0100
0f00
ENDCHAR
STARTCHAR 4EAE
ENCODING 20142
SWIDTH 520 0
DWIDTH 14 0
BBX 14 14 0 -4
BITMAP
0000
0300
7ffc
1010
1ff0
1010
0000
7ff8
4008
0fc0
0844
1844
6078
0000
ENDCHAR
STARTCHAR 4EAF
ENCODING 20143
SWIDTH 520 0
DWIDTH 14 0
BBX 14 14 0 -4
BITMAP
0000
0300
7ff8
0000
1fe0
1020
1fe0
0000
3ff0
2010
3ff0
2010
3ff0
2010
ENDCHAR
STARTCHAR 4EB0
ENCODING 20144
SWIDTH 520 0
DWIDTH 14 0
BBX 14 14 0 -4
BITMAP
0200
0100
fffc
0000
3ff0
2010
3ff0
2010
3ff0
2110
0960
3118
610c
8700
ENDCHAR
STARTCHAR 4EB1
ENCODING 20145
SWIDTH 520 0
DWIDTH 14 0
BBX 14 14 0 -4
BITMAP
0200
0100
fffc
1000
37f8
2408
2408
67f8
e408
a7f8
2408
2000
2ffc
0000
ENDCHAR
STARTCHAR 4EB2
ENCODING 20146
SWIDTH 520 0
DWIDTH 14 0
BBX 14 14 0 -4
BITMAP
0000
0200
0100
7ff8
1020
0840
fffc
0100
7ff8
0100
1160
6138
df0c
0000
ENDCHAR
STARTCHAR 4EB3
ENCODING 20147
SWIDTH 520 0
DWIDTH 14 0
BBX 14 14 0 -4
BITMAP
0000
0300
7ff8
1020
1fe0
0000
7ff8
4028
3fc0
0218
7fe0
0208
03f8
0000
ENDCHAR
STARTCHAR 4EB4
ENCODING 20148
SWIDTH 520 0
DWIDTH 14 0
BBX 14 14 0 -4
BITMAP
0300
7ff8
0000
1fe0
1fe0
0000
7ff8
5fc8
0200
3fe0
0400
3fc8
0c48
7078
ENDCHAR
STARTCHAR 4EB5
ENCODING 20149
SWIDTH 520 0
DWIDTH 14 0
BBX 14 14 0 -4
BITMAP
0000
0300
fffc
1080
fff0
1490
ff94
1374
f60c
0708
19b0
eb60
0c1c
0000
ENDCHAR
STARTCHAR 4EB6
ENCODING 20150
SWIDTH 520 0
DWIDTH 14 0
BBX 14 14 0 -4
BITMAP
0000
0300
7ff8
0000
3ff0
2850
2850
1ff0
1010
1ff0
1010
1ff0
0000
7ff8
ENDCHAR
STARTCHAR 4EB7
ENCODING 20151
SWIDTH 520 0
DWIDTH 14 0
BBX 14 14 0 -4
BITMAP
0200
0100
fff8
0860
7ff8
4480
5ff0
4490
7ff8
4490
5ff0
8cc0
b4b8
0000
ENDCHAR
STARTCHAR 4EB8
ENCODING 20152
SWIDTH 520 0
DWIDTH 14 0
BBX 14 14 0 -4
BITMAP
2108
1090
fca0
01f8
7d48
45f8
7d48
0148
7df8
1848
fc40
11fc
1040
7040
ENDCHAR
STARTCHAR 4EB9
ENCODING 20153
SWIDTH 520 0
DWIDTH 14 0
BBX 14 14 0 -4
BITMAP
0000
0300
fffc
3ff8
27c8
3ff8
3ff8
2448
7ffc
7ff4
1ff0
1010
1ff0
fffc
ENDCHAR
STARTCHAR 4EBA
ENCODING 20154
SWIDTH 520 0
DWIDTH 14 0
BBX 14 14 0 -4
BITMAP
0000
0100
0100
0100
0100
0300
0280
0280
0440
0c40
1820
3018
600c
0000
ENDCHAR
STARTCHAR 4EBB
ENCODING 20155
SWIDTH 520 0
DWIDTH 14 0
BBX 14 14 0 -4
BITMAP
0000
0200
0400
0400
0800
1800
3800
6800
8800
0800
0800
0800
0800
0000
ENDCHAR
STARTCHAR 4EBC
ENCODING 20156
SWIDTH 520 0
DWIDTH 14 0
BBX 14 14 0 -4
BITMAP
0000
0100
0100
0100
0300
0280
0480
0440
0820
3018
600c
0000
7ffc
0000
ENDCHAR
STARTCHAR 4EBD
ENCODING 20157
SWIDTH 520 0
DWIDTH 14 0
BBX 14 14 0 -4
BITMAP
0000
0100
0380
0240
0440
0820
3018
400c
0000
0c00
0300
00c0
0060
0000
ENDCHAR
STARTCHAR 4EBE
ENCODING 20158
SWIDTH 520 0
DWIDTH 14 0
BBX 14 14 0 -4
BITMAP
0000
0100
4100
4100
4100
4180
4280
4280
4240
4420
5830
7018
7ff8
0000
ENDCHAR
STARTCHAR 4EBF
ENCODING 20159
SWIDTH 520 0
DWIDTH 14 0
BBX 14 14 0 -4
BITMAP
0000
17f8
3018
2030
2060
6040
e080
a180
2304
2204
2404
2404
23f8
0000
ENDCHAR
STARTCHAR 4EC0
ENCODING 20160
SWIDTH 520 0
DWIDTH 14 0
BBX 14 14 0 -4
BITMAP
0000
1080
3080
2080
2080
6ff8
e080
a080
2080
2080
2080
2080
2080
0000
ENDCHAR
STARTCHAR 4EC1
ENCODING 20161
SWIDTH 520 0
DWIDTH 14 0
BBX 14 14 0 -4
BITMAP
0000
1000
1000
27f8
2000
6000
6000
e000
a000
2000
2000
2000
2ffc
0000
ENDCHAR
STARTCHAR 4EC2
ENCODING 20162
SWIDTH 520 0
DWIDTH 14 0
BBX 14 14 0 -4
BITMAP
0000
1100
3100
2ff8
2108
6108
e108
a108
2308
2208
2608
2c08
38f0
0000
ENDCHAR
STARTCHAR 4EC3
ENCODING 20163
SWIDTH 520 0
DWIDTH 14 0
BBX 14 14 0 -4
BITMAP
0000
1ff8
3040
2040
2040
6040
e040
a040
2040
2040
2040
2040
23c0
0000
ENDCHAR
STARTCHAR 4EC4
ENCODING 20164
SWIDTH 520 0
DWIDTH 14 0
BBX 14 14 0 -4
BITMAP
0000
3ffc
2000
2080
2080
2080
2080
2140
2140
2320
4630
4c18
980c
0000
ENDCHAR
STARTCHAR 4EC5
ENCODING 20165
SWIDTH 520 0
DWIDTH 14 0
BBX 14 14 0 -4
BITMAP
0000
1ff8
3208
2208
6210
e110
a110
21a0
20e0
20c0
21a0
2318
2c0c
0000
ENDCHAR
STARTCHAR 4EC6
ENCODING 20166
SWIDTH 520 0
DWIDTH 14 0
BBX 14 14 0 -4
BITMAP
0000
0900
1100
1100
21c0
6160
e118
a10c
2100
2100
2100
2100
2100
0000
ENDCHAR
STARTCHAR 4EC7
ENCODING 20167
SWIDTH 520 0
DWIDTH 14 0
BBX 14 14 0 -4
BITMAP
0000
1200
3200
2fe0
2220
6220
e220
a220
2420
2424
2424
2824
3038
0000
ENDCHAR
STARTCHAR 4EC8
ENCODING 20168
SWIDTH 520 0
DWIDTH 14 0
BBX 14 14 0 -4
BITMAP
0000
1020
3120
2120
2120
6120
e120
a110
2110
2210
2210
2608
2408
2804
ENDCHAR
STARTCHAR 4EC9
ENCODING 20169
SWIDTH 520 0
DWIDTH 14 0
BBX 14 14 0 -4
BITMAP
0000
13e0
3220
2220
6220
e220
a220
2220
2220
2224
2424
2424
2838
0000
ENDCHAR
STARTCHAR 4ECA
ENCODING 20170
SWIDTH 520 0
DWIDTH 14 0
BBX 14 14 0 -4
BITMAP
0000
0100
0380
0680
0c40
1a20
6118
c00c
3ff0
0020
0040
0080
0100
0000
ENDCHAR
STARTCHAR 4ECB
ENCODING 20171
SWIDTH 520 0
DWIDTH 14 0
BBX 14 14 0 -4
BITMAP
0000
0100
0280
0440
1820
3010
c84c
0840
0840
0840
1040
3040
6040
0000
ENDCHAR
STARTCHAR 4ECC
ENCODING 20172
SWIDTH 520 0
DWIDTH 14 0
BBX 14 14 0 -4
BITMAP
0000
0100
0100
0300
02c0
0c30
710c
0100
0100
0300
0280
0440
1820
601c
ENDCHAR
STARTCHAR 4ECD
ENCODING 20173
SWIDTH 520 0
DWIDTH 14 0
BBX 14 14 0 -4
BITMAP
0000
17f0
3210
2230
2220
6238
e208
a208
2608
2408
2c08
2808
30f0
0000
ENDCHAR
STARTCHAR 4ECE
ENCODING 20174
SWIDTH 520 0
DWIDTH 14 0
BBX 14 14 0 -4
BITMAP
0000
1080
1080
1080
1080
1080
1880
1540
2340
2120
6220
4410
8808
0000
ENDCHAR
STARTCHAR 4ECF
ENCODING 20175
SWIDTH 520 0
DWIDTH 14 0
BBX 14 14 0 -4
BITMAP
1040
10c0
2080
2080
6100
6100
a120
a210
2210
2418
2408
2ffc
2004
0000
ENDCHAR
STARTCHAR 4ED0
ENCODING 20176
SWIDTH 520 0
DWIDTH 14 0
BBX 14 14 0 -4
BITMAP
0600
0f00
1980
30c0
6220
8218
0200
0200
7ff8
0200
0200
0200
0200
0200
ENDCHAR
STARTCHAR 4ED1
ENCODING 20177
SWIDTH 520 0
DWIDTH 14 0
BBX 14 14 0 -4
BITMAP
0000
0300
0580
18c0
3030
d00c
1060
1180
1e00
1010
1010
1010
0fe0
0000
ENDCHAR
STARTCHAR 4ED2
ENCODING 20178
SWIDTH 520 0
DWIDTH 14 0
BBX 14 14 0 -4
BITMAP
0000
0100
0380
0640
0c20
3010
660c
01c0
0060
0000
1800
0600
0180
0060
ENDCHAR
STARTCHAR 4ED3
ENCODING 20179
SWIDTH 520 0
DWIDTH 14 0
BBX 14 14 0 -4
BITMAP
0000
0300
0580
18c0
3030
dfec
1020
1020
1020
11c8
1008
1018
1ff0
0000
ENDCHAR
STARTCHAR 4ED4
ENCODING 20180
SWIDTH 520 0
DWIDTH 14 0
BBX 14 14 0 -4
BITMAP
0000
17f8
3018
2030
6060
e040
affc
2040
2040
2040
2040
2040
2380
0000
ENDCHAR
STARTCHAR 4ED5
ENCODING 20181
SWIDTH 520 0
DWIDTH 14 0
BBX 14 14 0 -4
BITMAP
0000
1080
3080
2080
2080
6ff8
e080
a080
2080
2080
2080
2080
2ff8
0000
ENDCHAR
STARTCHAR 4ED6
ENCODING 20182
SWIDTH 520 0
DWIDTH 14 0
BBX 14 14 0 -4
BITMAP
0000
1040
3440
2478
27c8
6c48
e448
a448
2478
2444
2444
2404
27f8
0000
ENDCHAR
STARTCHAR 4ED7
ENCODING 20183
SWIDTH 520 0
DWIDTH 14 0
BBX 14 14 0 -4
BITMAP
0000
1040
3040
2ff8
2040
6440
e440
a240
2280
2180
2180
2660
2c18
0000
ENDCHAR
STARTCHAR 4ED8
ENCODING 20184
SWIDTH 520 0
DWIDTH 14 0
BBX 14 14 0 -4
BITMAP
0000
1020
3020
2ff8
2020
6020
a420
a220
2120
2020
2020
2020
20e0
0000
ENDCHAR
STARTCHAR 4ED9
ENCODING 20185
SWIDTH 520 0
DWIDTH 14 0
BBX 14 14 0 -4
BITMAP
0000
1040
3040
2448
2448
6448
e448
a448
2448
2448
2448
27f8
2008
0000
ENDCHAR
STARTCHAR 4EDA
ENCODING 20186
SWIDTH 520 0
DWIDTH 14 0
BBX 14 14 0 -4
BITMAP
0100
0380
0680
0c40
1820
6018
c10c
2100
2110
2110
2110
2110
3ff0
0000
ENDCHAR
STARTCHAR 4EDB
ENCODING 20187
SWIDTH 520 0
DWIDTH 14 0
BBX 14 14 0 -4
BITMAP
1000
1078
2f80
2080
6080
6080
a0fc
af80
2080
2084
2084
2084
20f8
0000
ENDCHAR
STARTCHAR 4EDC
ENCODING 20188
SWIDTH 520 0
DWIDTH 14 0
BBX 14 14 0 -4
BITMAP
1000
1000
2ff0
2080
6080
6080
a080
a080
2080
2080
2080
2080
2ff8
2000
ENDCHAR
STARTCHAR 4EDD
ENCODING 20189
SWIDTH 520 0
DWIDTH 14 0
BBX 14 14 0 -4
BITMAP
0000
0200
0700
0c80
1840
6020
c018
3fe0
0200
0200
0200
0200
7ff8
0000
ENDCHAR
STARTCHAR 4EDE
ENCODING 20190
SWIDTH 520 0
DWIDTH 14 0
BBX 14 14 0 -4
BITMAP
0000
17f8
3088
2088
2488
6488
e888
a888
2088
2108
2108
2208
2470
0000
ENDCHAR
STARTCHAR 4EDF
ENCODING 20191
SWIDTH 520 0
DWIDTH 14 0
BBX 14 14 0 -4
BITMAP
0000
1018
37f0
2040
2040
6040
effc
a040
2040
2040
2040
2040
2040
0000
ENDCHAR
STARTCHAR 4EE0
ENCODING 20192
SWIDTH 520 0
DWIDTH 14 0
BBX 14 14 0 -4
BITMAP
1000
17f0
2080
2080
6080
6080
aff8
a080
2080
2080
2080
2080
2080
2080
ENDCHAR
STARTCHAR 4EE1
ENCODING 20193
SWIDTH 520 0
DWIDTH 14 0
BBX 14 14 0 -4
BITMAP
0000
1100
3200
23fc
2400
6400
ebf0
a020
20c0
2104
2204
240c
23f8
0000
ENDCHAR
STARTCHAR 4EE2
ENCODING 20194
SWIDTH 520 0
DWIDTH 14 0
BBX 14 14 0 -4
BITMAP
0000
1100
3200
23f8
2408
6808
e308
a188
2048
2008
2008
2008
21f0
0000
ENDCHAR
STARTCHAR 4EE3
ENCODING 20195
SWIDTH 520 0
DWIDTH 14 0
BBX 14 14 0 -4
BITMAP
0000
1140
3130
2108
217c
6f80
e100
a080
2080
2084
2044
206c
2018
0000
ENDCHAR
STARTCHAR 4EE4
ENCODING 20196
SWIDTH 520 0
DWIDTH 14 0
BBX 14 14 0 -4
BITMAP
0000
0100
0280
0640
0820
3210
610c
0080
1ff0
0820
0ec0
0380
00c0
0000
ENDCHAR
STARTCHAR 4EE5
ENCODING 20197
SWIDTH 520 0
DWIDTH 14 0
BBX 14 14 0 -4
BITMAP
0000
4410
4210
4210
4110
4010
4010
4020
4420
5870
6098
8308
0c04
0000
ENDCHAR
STARTCHAR 4EE6
ENCODING 20198
SWIDTH 520 0
DWIDTH 14 0
BBX 14 14 0 -4
BITMAP
1040
1040
2040
2040
6250
6250
e448
a448
2448
2c44
2844
2040
2040
23c0
ENDCHAR
STARTCHAR 4EE7
ENCODING 20199
SWIDTH 520 0
DWIDTH 14 0
BBX 14 14 0 -4
BITMAP
0200
0200
03f0
0200
0200
0200
fff8
0200
0200
0200
0500
0880
1040
e038
ENDCHAR
STARTCHAR 4EE8
ENCODING 20200
SWIDTH 520 0
DWIDTH 14 0
BBX 14 14 0 -4
BITMAP
0000
1000
17f8
2000
2000
6000
6000
a7f8
a000
2000
2000
2000
2ffc
0000
ENDCHAR
STARTCHAR 4EE9
ENCODING 20201
SWIDTH 520 0
DWIDTH 14 0
BBX 14 14 0 -4
BITMAP
0000
0880
1080
1080
2080
60f8
e080
a080
2080
2080
2080
2080
2ffc
2000
ENDCHAR
STARTCHAR 4EEA
ENCODING 20202
SWIDTH 520 0
DWIDTH 14 0
BBX 14 14 0 -4
BITMAP
0000
1080
3448
2448
2608
6210
e210
a120
21e0
20c0
21e0
2318
2c0c
0000
ENDCHAR
STARTCHAR 4EEB
ENCODING 20203
SWIDTH 520 0
DWIDTH 14 0
BBX 14 14 0 -4
BITMAP
0000
0840
1080
1080
2110
6220
e440
a880
2120
2210
2408
2ff8
2004
0000
ENDCHAR
STARTCHAR 4EEC
ENCODING 20204
SWIDTH 520 0
DWIDTH 14 0
BBX 14 14 0 -4
BITMAP
0000
1600
3178
2408
2408
6408
e408
a408
2408
2408
2408
2408
2478
0000
ENDCHAR
STARTCHAR 4EED
ENCODING 20205
SWIDTH 520 0
DWIDTH 14 0
BBX 14 14 0 -4
BITMAP
1000
1ff0
2110
2110
6910
6510
a310
a110
21d0
2230
2218
2430
28e0
0000
ENDCHAR
STARTCHAR 4EEE
ENCODING 20206
SWIDTH 520 0
DWIDTH 14 0
BBX 14 14 0 -4
BITMAP
1004
17fc
2400
2400
67f8
6508
a508
a510
2490
24a0
2460
28e0
2b18
360c
ENDCHAR
STARTCHAR 4EEF
ENCODING 20207
SWIDTH 520 0
DWIDTH 14 0
BBX 14 14 0 -4
BITMAP
0880
1080
12a0
2290
2488
6488
e884
a880
2088
2010
2020
2040
2180
2e00
ENDCHAR
STARTCHAR 4EF0
ENCODING 20208
SWIDTH 520 0
DWIDTH 14 0
BBX 14 14 0 -4
BITMAP
0000
1180
3678
2448
2448
6448
e448
a448
2448
24c8
2748
2478
2040
0000
ENDCHAR
STARTCHAR 4EF1
ENCODING 20209
SWIDTH 520 0
DWIDTH 14 0
BBX 14 14 0 -4
BITMAP
1080
11c0
2320
2630
6d18
7084
e040
a000
2ff0
2010
2020
2060
2040
2080
ENDCHAR
STARTCHAR 4EF2
ENCODING 20210
SWIDTH 520 0
DWIDTH 14 0
BBX 14 14 0 -4
BITMAP
0000
1080
3080
27f8
2488
6488
e488
a488
27f8
2488
2080
2080
2080
0000
ENDCHAR
STARTCHAR 4EF3
ENCODING 20211
SWIDTH 520 0
DWIDTH 14 0
BBX 14 14 0 -4
BITMAP
0000
1440
1440
2444
2448
6750
e460
a440
2440
2444
2544
27c4
2478
0000
ENDCHAR
STARTCHAR 4EF4
ENCODING 20212
SWIDTH 520 0
DWIDTH 14 0
BBX 14 14 0 -4
BITMAP
1000
13f8
2208
2208
6208
63f8
a208
a208
2208
23f8
2208
2608
2408
2878
ENDCHAR
STARTCHAR 4EF5
ENCODING 20213
SWIDTH 520 0
DWIDTH 14 0
BBX 14 14 0 -4
BITMAP
0000
1100
3300
23f8
2640
6440
e040
a7fc
2040
2040
2040
2040
2040
0000
ENDCHAR
STARTCHAR 4EF6
ENCODING 20214
SWIDTH 520 0
DWIDTH 14 0
BBX 14 14 0 -4
BITMAP
0000
1040
3240
2240
27fc
6440
e840
a040
2ffc
2040
2040
2040
2040
0000
ENDCHAR
STARTCHAR 4EF7
ENCODING 20215
SWIDTH 520 0
DWIDTH 14 0
BBX 14 14 0 -4
BITMAP
0000
1080
31c0
2320
2610
680c
e220
a220
2220
2220
2620
2420
2820
0000
ENDCHAR
STARTCHAR 4EF8
ENCODING 20216
SWIDTH 520 0
DWIDTH 14 0
BBX 14 14 0 -4
BITMAP
1010
17e0
2080
2080
6080
6080
aff8
a080
20c0
2140
2340
2220
2c10
3808
ENDCHAR
STARTCHAR 4EF9
ENCODING 20217
SWIDTH 520 0
DWIDTH 14 0
BBX 14 14 0 -4
BITMAP
0000
1080
3080
2ffc
2080
6080
e7f8
a080
2080
2ffc
2080
2080
2080
0000
ENDCHAR
STARTCHAR 4EFA
ENCODING 20218
SWIDTH 520 0
DWIDTH 14 0
BBX 14 14 0 -4
BITMAP
0100
0280
0440
1820
2010
c00c
3ff0
2000
2000
3ff0
2000
2000
3ff8
0000
ENDCHAR
STARTCHAR 4EFB
ENCODING 20219
SWIDTH 520 0
DWIDTH 14 0
BBX 14 14 0 -4
BITMAP
0000
1078
3fc0
2040
2040
6040
e040
affc
2040
2040
2040
2040
27fc
0000
ENDCHAR
STARTCHAR 4EFC
ENCODING 20220
SWIDTH 520 0
DWIDTH 14 0
BBX 14 14 0 -4
BITMAP
1000
1ff8
2080
2080
6080
6080
a7f8
a080
2080
2080
2080
2080
2ffc
2000
ENDCHAR
STARTCHAR 4EFD
ENCODING 20221
SWIDTH 520 0
DWIDTH 14 0
BBX 14 14 0 -4
BITMAP
0000
0840
1120
1230
2218
640c
eff0
a110
2110
2110
2210
2410
28e0
0000
ENDCHAR
STARTCHAR 4EFE
ENCODING 20222
SWIDTH 520 0
DWIDTH 14 0
BBX 14 14 0 -4
BITMAP
1000
1ffc
2200
2200
63f8
6410
a410
a410
2410
27f0
2010
2010
2ffc
2000
ENDCHAR
STARTCHAR 4EFF
ENCODING 20223
SWIDTH 520 0
DWIDTH 14 0
BBX 14 14 0 -4
BITMAP
0000
1080
3040
2ffc
2100
6100
e1f8
a108
2108
2208
2208
2408
2870
0000
ENDCHAR
STARTCHAR 4F00
ENCODING 20224
SWIDTH 520 0
DWIDTH 14 0
BBX 14 14 0 -4
BITMAP
1040
1160
2320
2230
6610
6488
a984
a100
2100
2220
2610
2410
2ff8
0000
ENDCHAR
STARTCHAR 4F01
ENCODING 20225
SWIDTH 520 0
DWIDTH 14 0
BBX 14 14 0 -4
BITMAP
0000
0100
0280
0440
1820
3118
c10c
1100
11f0
1100
1100
1100
7ff8
0000
ENDCHAR
STARTCHAR 4F02
ENCODING 20226
SWIDTH 520 0
DWIDTH 14 0
BBX 14 14 0 -4
BITMAP
1080
1080
2ffc
2080
6080
67f8
a488
a488
2488
2488
2488
24b8
2080
2080
ENDCHAR
STARTCHAR 4F03
ENCODING 20227
SWIDTH 520 0
DWIDTH 14 0
BBX 14 14 0 -4
BITMAP
1000
17f8
2010
2220
61c0
60c0
affc
a084
208c
2088
2080
2080
2080
2700
ENDCHAR
STARTCHAR 4F04
ENCODING 20228
SWIDTH 520 0
DWIDTH 14 0
BBX 14 14 0 -4
BITMAP
1000
1ff8
2088
2088
6ff8
6888
a880
a880
2ffc
2088
2088
20b8
2080
0000
ENDCHAR
STARTCHAR 4F05
ENCODING 20229
SWIDTH 520 0
DWIDTH 14 0
BBX 14 14 0 -4
BITMAP
1080
1080
27fc
2080
6488
6488
a488
a488
27f8
2084
2084
2084
20f8
0000
ENDCHAR
STARTCHAR 4F06
ENCODING 20230
SWIDTH 520 0
DWIDTH 14 0
BBX 14 14 0 -4
BITMAP
0000
1200
1200
27fc
24a8
68a8
6928
a148
a248
24c8
2888
2108
2308
2470
ENDCHAR
STARTCHAR 4F07
ENCODING 20231
SWIDTH 520 0
DWIDTH 14 0
BBX 14 14 0 -4
BITMAP
1000
13e0
2220
2220
6220
6438
a800
a7f0
2410
2620
2240
2180
26e0
3818
ENDCHAR
STARTCHAR 4F08
ENCODING 20232
SWIDTH 520 0
DWIDTH 14 0
BBX 14 14 0 -4
BITMAP
1080
1040
2020
2100
6108
6508
a504
a904
2904
2110
2110
2110
21e0
0000
ENDCHAR
STARTCHAR 4F09
ENCODING 20233
SWIDTH 520 0
DWIDTH 14 0
BBX 14 14 0 -4
BITMAP
0000
1080
3040
27f8
2000
63e0
e220
a220
2220
2224
2624
2424
2838
0000
ENDCHAR
STARTCHAR 4F0A
ENCODING 20234
SWIDTH 520 0
DWIDTH 14 0
BBX 14 14 0 -4
BITMAP
0000
1ff0
3110
2110
6ff8
e110
a110
2110
2ff0
2110
2100
2200
2400
0000
ENDCHAR
STARTCHAR 4F0B
ENCODING 20235
SWIDTH 520 0
DWIDTH 14 0
BBX 14 14 0 -4
BITMAP
1000
1ff0
2210
2220
6240
6278
a308
a308
2690
2490
2460
2c60
2998
330c
ENDCHAR
STARTCHAR 4F0C
ENCODING 20236
SWIDTH 520 0
DWIDTH 14 0
BBX 14 14 0 -4
BITMAP
1000
17fc
2400
2400
65f8
6508
a508
a508
2508
2570
2504
2904
2904
31f8
ENDCHAR
STARTCHAR 4F0D
ENCODING 20237
SWIDTH 520 0
DWIDTH 14 0
BBX 14 14 0 -4
BITMAP
1000
1ff8
2100
2100
6100
6100
a7f0
a210
2210
2210
2210
2210
2ff8
2000
ENDCHAR
STARTCHAR 4F0E
ENCODING 20238
SWIDTH 520 0
DWIDTH 14 0
BBX 14 14 0 -4
BITMAP
0000
1040
3040
2ffc
2040
6040
e7f8
a208
2110
21a0
20c0
23f0
2c1c
0000
ENDCHAR
STARTCHAR 4F0F
ENCODING 20239
SWIDTH 520 0
DWIDTH 14 0
BBX 14 14 0 -4
BITMAP
0000
1080
30b0
2098
2080
6ffc
e080
a080
2140
2160
2220
2418
280c
0000
ENDCHAR
STARTCHAR 4F10
ENCODING 20240
SWIDTH 520 0
DWIDTH 14 0
BBX 14 14 0 -4
BITMAP
0000
0960
1118
1100
21fc
2f80
6104
e108
a0b0
20e0
2184
2344
2c38
0000
ENDCHAR
STARTCHAR 4F11
ENCODING 20241
SWIDTH 520 0
DWIDTH 14 0
BBX 14 14 0 -4
BITMAP
0000
1080
3080
2ff8
20c0
61c0
e2c0
a2a0
2490
2490
2888
3084
2080
0000
ENDCHAR
STARTCHAR 4F12
ENCODING 20242
SWIDTH 520 0
DWIDTH 14 0
BBX 14 14 0 -4
BITMAP
0000
1008
37f8
2400
2400
6400
e7fc
a420
2420
2420
2420
2820
2820
3020
ENDCHAR
STARTCHAR 4F13
ENCODING 20243
SWIDTH 520 0
DWIDTH 14 0
BBX 14 14 0 -4
BITMAP
1000
1ffc
2080
2080
6100
61a0
a390
a298
2688
2484
2880
2080
2080
2080
ENDCHAR
STARTCHAR 4F14
ENCODING 20244
SWIDTH 520 0
DWIDTH 14 0
BBX 14 14 0 -4
BITMAP
1000
1ff8
2808
2808
63e0
6220
e220
a220
2220
2224
2424
2c24
3038
0000
ENDCHAR
STARTCHAR 4F15
ENCODING 20245
SWIDTH 520 0
DWIDTH 14 0
BBX 14 14 0 -4
BITMAP
0000
1080
3080
27f0
2080
6080
e080
aff8
2180
2180
2340
2240
2c30
3818
ENDCHAR
STARTCHAR 4F16
ENCODING 20246
SWIDTH 520 0
DWIDTH 14 0
BBX 14 14 0 -4
BITMAP
0000
1100
3100
2ffc
2100
6100
e1f8
a308
2510
2490
28e0
2860
31b0
260c
ENDCHAR
STARTCHAR 4F17
ENCODING 20247
SWIDTH 520 0
DWIDTH 14 0
BBX 14 14 0 -4
BITMAP
0000
0100
0280
0c40
3030
d04c
1040
1040
1860
24a0
23b0
4318
c00c
0000
ENDCHAR
STARTCHAR 4F18
ENCODING 20248
SWIDTH 520 0
DWIDTH 14 0
BBX 14 14 0 -4
BITMAP
0000
0940
1130
1108
2ffc
6140
e140
a340
2240
2244
2444
2844
3078
0000
ENDCHAR
STARTCHAR 4F19
ENCODING 20249
SWIDTH 520 0
DWIDTH 14 0
BBX 14 14 0 -4
BITMAP
0000
1080
3080
2080
2888
6490
e4a0
a0c0
2140
2340
2620
2c10
3808
0000
ENDCHAR
STARTCHAR 4F1A
ENCODING 20250
SWIDTH 520 0
DWIDTH 14 0
BBX 14 14 0 -4
BITMAP
0000
0100
0280
0c40
1830
6fec
0000
3ff8
0200
0440
0820
0fd0
1010
0000
ENDCHAR
STARTCHAR 4F1B
ENCODING 20251
SWIDTH 520 0
DWIDTH 14 0
BBX 14 14 0 -4
BITMAP
0000
17fc
3400
2508
2490
6450
e460
a460
2450
2490
2508
2400
27fc
0000
ENDCHAR
STARTCHAR 4F1C
ENCODING 20252
SWIDTH 520 0
DWIDTH 14 0
BBX 14 14 0 -4
BITMAP
1100
1100
27e0
2120
6124
6624
ac38
a080
2080
2ffc
2080
2080
2080
2080
ENDCHAR
STARTCHAR 4F1D
ENCODING 20253
SWIDTH 520 0
DWIDTH 14 0
BBX 14 14 0 -4
BITMAP
1000
17f8
2000
2000
6000
6000
affc
a080
2100
2110
2208
2408
27fc
2e04
ENDCHAR
STARTCHAR 4F1E
ENCODING 20254
SWIDTH 520 0
DWIDTH 14 0
BBX 14 14 0 -4
BITMAP
0000
0100
0680
0c60
3218
e21c
1230
1a20
0a40
0200
fffc
0200
0200
0000
ENDCHAR
STARTCHAR 4F1F
ENCODING 20255
SWIDTH 520 0
DWIDTH 14 0
BBX 14 14 0 -4
BITMAP
0000
1080
1080
2ff8
2080
67f0
6080
e080
aff8
2088
2088
20f8
2080
0000
ENDCHAR
STARTCHAR 4F20
ENCODING 20256
SWIDTH 520 0
DWIDTH 14 0
BBX 14 14 0 -4
BITMAP
0000
1080
37f8
2100
2100
6ffc
e200
a3f8
2018
2630
21e0
2060
2030
0000
ENDCHAR
STARTCHAR 4F21
ENCODING 20257
SWIDTH 520 0
DWIDTH 14 0
BBX 14 14 0 -4
BITMAP
1080
1100
2ffc
2100
6240
6240
a440
a7f8
2040
2040
2ffc
2040
2040
2040
ENDCHAR
STARTCHAR 4F22
ENCODING 20258
SWIDTH 520 0
DWIDTH 14 0
BBX 14 14 0 -4
BITMAP
0000
17f8
3020
2220
2220
6420
e7f8
a060
20a0
2120
2620
2c20
20e0
0000
ENDCHAR
STARTCHAR 4F23
ENCODING 20259
SWIDTH 520 0
DWIDTH 14 0
BBX 14 14 0 -4
BITMAP
1000
17f8
2408
2488
6488
6488
a488
a488
2488
25c8
2144
2344
2c44
3878
ENDCHAR
STARTCHAR 4F24
ENCODING 20260
SWIDTH 520 0
DWIDTH 14 0
BBX 14 14 0 -4
BITMAP
0000
1100
1300
27fc
2c80
6880
67f8
a088
a088
2108
2308
2608
2cf0
0000
ENDCHAR
STARTCHAR 4F25
ENCODING 20261
SWIDTH 520 0
DWIDTH 14 0
BBX 14 14 0 -4
BITMAP
0000
1200
3208
2210
2260
6280
e200
aff8
2240
2260
2220
2398
270c
0000
ENDCHAR
STARTCHAR 4F26
ENCODING 20262
SWIDTH 520 0
DWIDTH 14 0
BBX 14 14 0 -4
BITMAP
0000
1040
30e0
2190
2618
6c04
e210
a220
22c0
2308
2208
2208
23f0
0000
ENDCHAR
STARTCHAR 4F27
ENCODING 20263
SWIDTH 520 0
DWIDTH 14 0
BBX 14 14 0 -4
BITMAP
0000
1080
31c0
2320
2c30
7808
e7e0
a420
2420
25e0
2408
2408
27f0
0000
ENDCHAR
STARTCHAR 4F28
ENCODING 20264
SWIDTH 520 0
DWIDTH 14 0
BBX 14 14 0 -4
BITMAP
1100
1300
23f8
2608
6608
6908
a188
a088
2068
2388
2c08
2008
2008
20f0
ENDCHAR
STARTCHAR 4F29
ENCODING 20265
SWIDTH 520 0
DWIDTH 14 0
BBX 14 14 0 -4
BITMAP
1080
1040
2040
2ff8
6410
6410
a210
a220
2120
21c0
20c0
2160
2618
2c0c
ENDCHAR
STARTCHAR 4F2A
ENCODING 20266
SWIDTH 520 0
DWIDTH 14 0
BBX 14 14 0 -4
BITMAP
0000
1100
1500
2300
2300
6ff8
6108
e148
a268
2228
2408
2c08
38f0
0000
ENDCHAR
STARTCHAR 4F2B
ENCODING 20267
SWIDTH 520 0
DWIDTH 14 0
BBX 14 14 0 -4
BITMAP
0000
1100
3080
2ff8
2808
6808
e000
a000
2000
2000
2000
2000
2ff8
0000
ENDCHAR
STARTCHAR 4F2C
ENCODING 20268
SWIDTH 520 0
DWIDTH 14 0
BBX 14 14 0 -4
BITMAP
1000
17f8
2408
2408
6408
6408
a7f8
a488
2480
2440
2c40
2820
2818
300c
ENDCHAR
STARTCHAR 4F2D
ENCODING 20269
SWIDTH 520 0
DWIDTH 14 0
BBX 14 14 0 -4
BITMAP
1080
1040
2ffc
2080
6108
6210
a420
afc0
2080
2090
2108
2208
27fc
2f04
ENDCHAR
STARTCHAR 4F2E
ENCODING 20270
SWIDTH 520 0
DWIDTH 14 0
BBX 14 14 0 -4
BITMAP
0000
1400
14f8
2448
2f48
6948
6948
e950
aa30
2630
2230
2570
28c8
3104
ENDCHAR
STARTCHAR 4F2F
ENCODING 20271
SWIDTH 520 0
DWIDTH 14 0
BBX 14 14 0 -4
BITMAP
0000
1040
3080
27f8
2408
6408
e408
a7f8
2408
2408
2408
27f8
2408
0000
ENDCHAR
STARTCHAR 4F30
ENCODING 20272
SWIDTH 520 0
DWIDTH 14 0
BBX 14 14 0 -4
BITMAP
0000
1080
3080
2ffc
2080
6080
e080
a7f8
2408
2408
2408
27f8
2408
0000
ENDCHAR
STARTCHAR 4F31
ENCODING 20273
SWIDTH 520 0
DWIDTH 14 0
BBX 14 14 0 -4
BITMAP
1040
10e0
21a0
2310
6c08
7884
a280
a290
2498
2488
2c8c
2884
2080
2380
ENDCHAR
STARTCHAR 4F32
ENCODING 20274
SWIDTH 520 0
DWIDTH 14 0
BBX 14 14 0 -4
BITMAP
0000
17f8
3408
2408
27f8
6400
e484
a498
24b0
24c4
2884
2884
30f8
0000
ENDCHAR
STARTCHAR 4F33
ENCODING 20275
SWIDTH 520 0
DWIDTH 14 0
BBX 14 14 0 -4
BITMAP
1090
1490
2490
2490
6ffc
6490
e490
a490
2490
24f0
2490
2400
27fc
2000
ENDCHAR
STARTCHAR 4F34
ENCODING 20276
SWIDTH 520 0
DWIDTH 14 0
BBX 14 14 0 -4
BITMAP
0000
1080
3c88
2690
20a0
6ff0
e080
a080
2080
2ff8
2080
2080
2080
0000
ENDCHAR
STARTCHAR 4F35
ENCODING 20277
SWIDTH 520 0
DWIDTH 14 0
BBX 14 14 0 -4
BITMAP
1000
1ff8
2948
2948
6948
6948
a948
a948
2a48
2e78
2c08
2808
2ff8
2808
ENDCHAR
STARTCHAR 4F36
ENCODING 20278
SWIDTH 520 0
DWIDTH 14 0
BBX 14 14 0 -4
BITMAP
0000
1040
30e0
21a0
2310
6588
f844
a000
2ff8
2010
2660
2180
2060
0000
ENDCHAR
STARTCHAR 4F37
ENCODING 20279
SWIDTH 520 0
DWIDTH 14 0
BBX 14 14 0 -4
BITMAP
0000
1080
3080
27f8
2488
6488
e488
a7f8
2488
2488
2488
2488
27f8
2408
ENDCHAR
STARTCHAR 4F38
ENCODING 20280
SWIDTH 520 0
DWIDTH 14 0
BBX 14 14 0 -4
BITMAP
0000
1080
3080
27f8
2488
6488
e7f8
a488
2488
27f8
2488
2080
2080
0000
ENDCHAR
STARTCHAR 4F39
ENCODING 20281
SWIDTH 520 0
DWIDTH 14 0
BBX 14 14 0 -4
BITMAP
1000
17f0
2410
2410
6410
67f0
a410
a410
27f0
2410
2410
2410
2ff8
2000
ENDCHAR
STARTCHAR 4F3A
ENCODING 20282
SWIDTH 520 0
DWIDTH 14 0
BBX 14 14 0 -4
BITMAP
0000
17f8
3008
2008
2fe8
6008
e008
a7c8
2448
2448
27c8
2408
2078
0000
ENDCHAR
STARTCHAR 4F3B
ENCODING 20283
SWIDTH 520 0
DWIDTH 14 0
BBX 14 14 0 -4
BITMAP
1000
17f8
2080
2488
6488
6290
a290
a080
2ffc
2080
2080
2080
2080
2080
ENDCHAR
STARTCHAR 4F3C
ENCODING 20284
SWIDTH 520 0
DWIDTH 14 0
BBX 14 14 0 -4
BITMAP
0000
1108
1488
2488
2448
6408
e408
a408
24d0
2790
2c28
20c8
2184
0000
ENDCHAR
STARTCHAR 4F3D
ENCODING 20285
SWIDTH 520 0
DWIDTH 14 0
BBX 14 14 0 -4
BITMAP
0000
1400
3478
2f48
2548
6548
e548
a548
2548
2548
2948
2978
3748
0000
ENDCHAR
STARTCHAR 4F3E
ENCODING 20286
SWIDTH 520 0
DWIDTH 14 0
BBX 14 14 0 -4
BITMAP
1000
1ffc
2040
2040
60e0
6150
e150
a248
244c
2844
2040
2040
2ffc
2000
ENDCHAR
STARTCHAR 4F3F
ENCODING 20287
SWIDTH 520 0
DWIDTH 14 0
BBX 14 14 0 -4
BITMAP
1000
17f8
2408
2408
6408
6408
a408
a7f8
2408
2120
2210
2618
2408
2804
ENDCHAR
STARTCHAR 4F40
ENCODING 20288
SWIDTH 520 0
DWIDTH 14 0
BBX 14 14 0 -4
BITMAP
1000
17f8
2408
2408
6408
67f8
a408
a400
27f8
2408
2408
2408
27f8
2408
ENDCHAR
STARTCHAR 4F41
ENCODING 20289
SWIDTH 520 0
DWIDTH 14 0
BBX 14 14 0 -4
BITMAP
1080
1100
2320
2210
6408
6ff8
e004
a000
27f8
2408
2408
2408
27f8
2408
ENDCHAR
STARTCHAR 4F42
ENCODING 20290
SWIDTH 520 0
DWIDTH 14 0
BBX 14 14 0 -4
BITMAP
1000
17fc
2040
2040
6040
6440
a47c
a440
2440
2440
2440
2440
2ffc
2000
ENDCHAR
STARTCHAR 4F43
ENCODING 20291
SWIDTH 520 0
DWIDTH 14 0
BBX 14 14 0 -4
BITMAP
0000
17f8
3488
2488
2488
6488
e7f8
a488
2488
2488
2488
27f8
2408
0000
ENDCHAR
STARTCHAR 4F44
ENCODING 20292
SWIDTH 520 0
DWIDTH 14 0
BBX 14 14 0 -4
BITMAP
1410
1410
2410
2ff8
6410
6410
a410
a7f0
2410
2410
2410
2410
27f0
2410
ENDCHAR
STARTCHAR 4F45
ENCODING 20293
SWIDTH 520 0
DWIDTH 14 0
BBX 14 14 0 -4
BITMAP
0000
1080
3080
2ff0
2080
6080
eff8
a180
22c0
22c0
24a0
2890
3088
2080
ENDCHAR
STARTCHAR 4F46
ENCODING 20294
SWIDTH 520 0
DWIDTH 14 0
BBX 14 14 0 -4
BITMAP
0000
0ff8
1408
1408
2408
67f8
e408
a408
2408
27f8
2408
2000
2ffc
0000
ENDCHAR
STARTCHAR 4F47
ENCODING 20295
SWIDTH 520 0
DWIDTH 14 0
BBX 14 14 0 -4
BITMAP
0000
1080
1040
27f8
2408
6408
6000
affc
a040
2040
2040
2040
2040
23c0
ENDCHAR
STARTCHAR 4F48
ENCODING 20296
SWIDTH 520 0
DWIDTH 14 0
BBX 14 14 0 -4
BITMAP
1080
1080
2ffc
2100
6240
6440
a7f8
ac48
3448
2448
2448
2478
2040
2040
ENDCHAR
STARTCHAR 4F49
ENCODING 20297
SWIDTH 520 0
DWIDTH 14 0
BBX 14 14 0 -4
BITMAP
1040
1040
2040
27f8
6040
6040
a040
affc
2040
20a0
2310
2408
2ff8
2004
ENDCHAR
STARTCHAR 4F4A
ENCODING 20298
SWIDTH 520 0
DWIDTH 14 0
BBX 14 14 0 -4
BITMAP
1040
1040
27fc
2444
6448
6440
a7f8
a508
2510
2490
2460
2860
2990
330c
ENDCHAR
STARTCHAR 4F4B
ENCODING 20299
SWIDTH 520 0
DWIDTH 14 0
BBX 14 14 0 -4
BITMAP
1000
17f8
2108
2108
6308
66f0
ac00
a000
27f8
2408
2408
2408
27f8
2408
ENDCHAR
STARTCHAR 4F4C
ENCODING 20300
SWIDTH 520 0
DWIDTH 14 0
BBX 14 14 0 -4
BITMAP
1120
1120
2520
2524
6528
65b0
a520
a520
2520
2524
2524
25e4
2e3c
0000
ENDCHAR
STARTCHAR 4F4D
ENCODING 20301
SWIDTH 520 0
DWIDTH 14 0
BBX 14 14 0 -4
BITMAP
0000
1080
3040
2ffc
2000
6408
e608
a210
2210
2110
2120
2020
2ffc
0000
ENDCHAR
STARTCHAR 4F4E
ENCODING 20302
SWIDTH 520 0
DWIDTH 14 0
BBX 14 14 0 -4
BITMAP
0000
101c
37f0
2440
2440
6440
e7fc
a440
2440
24a0
2524
26b4
245c
0000
ENDCHAR
STARTCHAR 4F4F
ENCODING 20303
SWIDTH 520 0
DWIDTH 14 0
BBX 14 14 0 -4
BITMAP
0000
1080
3040
2ffc
2040
6040
e040
a7f8
2040
2040
2040
2040
2ffc
0000
ENDCHAR
STARTCHAR 4F50
ENCODING 20304
SWIDTH 520 0
DWIDTH 14 0
BBX 14 14 0 -4
BITMAP
0000
1080
1080
2ffc
2100
6200
e200
a7f8
2c40
2840
3040
2040
2ffc
2000
ENDCHAR
STARTCHAR 4F51
ENCODING 20305
SWIDTH 520 0
DWIDTH 14 0
BBX 14 14 0 -4
BITMAP
0000
1080
1080
2ffc
2100
6200
e7f8
a608
2a08
3208
2208
23f8
2208
0000
ENDCHAR
STARTCHAR 4F52
ENCODING 20306
SWIDTH 520 0
DWIDTH 14 0
BBX 14 14 0 -4
BITMAP
1080
1080
2080
27f8
6488
6488
e488
a488
2ffc
20c0
2140
2320
2610
2c0c
ENDCHAR
STARTCHAR 4F53
ENCODING 20307
SWIDTH 520 0
DWIDTH 14 0
BBX 14 14 0 -4
BITMAP
0000
1080
3080
2ff8
21c0
61c0
e2c0
a2a0
24a0
27f0
2890
3088
2080
0000
ENDCHAR
STARTCHAR 4F54
ENCODING 20308
SWIDTH 520 0
DWIDTH 14 0
BBX 14 14 0 -4
BITMAP
1080
1080
2080
20f8
6080
6080
a080
a7f8
2408
2408
2408
2408
27f8
2408
ENDCHAR
STARTCHAR 4F55
ENCODING 20309
SWIDTH 520 0
DWIDTH 14 0
BBX 14 14 0 -4
BITMAP
0000
17fc
3008
2008
27c8
6448
e448
a448
27c8
2408
2008
2008
2078
0000
ENDCHAR
STARTCHAR 4F56
ENCODING 20310
SWIDTH 520 0
DWIDTH 14 0
BBX 14 14 0 -4
BITMAP
0000
1100
3090
2150
2120
6128
e528
a544
29c4
2190
2190
2310
2de0
0000
ENDCHAR
STARTCHAR 4F57
ENCODING 20311
SWIDTH 520 0
DWIDTH 14 0
BBX 14 14 0 -4
BITMAP
0000
1080
3040
2ff8
2808
6800
e410
a460
2480
2708
2408
2408
27f0
0000
ENDCHAR
STARTCHAR 4F58
ENCODING 20312
SWIDTH 520 0
DWIDTH 14 0
BBX 14 14 0 -4
BITMAP
0000
0100
0280
0c60
1838
7fec
0000
3ffc
0100
0960
3138
610c
0f00
0000
ENDCHAR
STARTCHAR 4F59
ENCODING 20313
SWIDTH 520 0
DWIDTH 14 0
BBX 14 14 0 -4
BITMAP
0000
0100
0280
0440
0830
3ff8
4104
0100
3ffc
0960
3130
6108
0f00
0000
ENDCHAR
STARTCHAR 4F5A
ENCODING 20314
SWIDTH 520 0
DWIDTH 14 0
BBX 14 14 0 -4
BITMAP
0000
1080
3480
2480
27f8
6880
e880
aff8
2180
2140
2240
2630
2c18
0000
ENDCHAR
STARTCHAR 4F5B
ENCODING 20315
SWIDTH 520 0
DWIDTH 14 0
BBX 14 14 0 -4
BITMAP
0000
1140
3140
2ff8
2148
6ff8
e940
a940
2ff8
2148
2148
2278
2440
0000
ENDCHAR
STARTCHAR 4F5C
ENCODING 20316
SWIDTH 520 0
DWIDTH 14 0
BBX 14 14 0 -4
BITMAP
0000
1100
3200
23fc
2480
6480
e8f8
a080
2080
20fc
2080
2080
2080
0000
ENDCHAR
STARTCHAR 4F5D
ENCODING 20317
SWIDTH 520 0
DWIDTH 14 0
BBX 14 14 0 -4
BITMAP
0000
1200
3200
27f8
2408
6808
efc8
a448
2448
27c8
2408
2008
20f8
0000
ENDCHAR
STARTCHAR 4F5E
ENCODING 20318
SWIDTH 520 0
DWIDTH 14 0
BBX 14 14 0 -4
BITMAP
0000
1ff8
3000
2000
2ffc
6080
e100
affc
2210
2230
21e0
21b0
2e0c
0000
ENDCHAR
STARTCHAR 4F5F
ENCODING 20319
SWIDTH 520 0
DWIDTH 14 0
BBX 14 14 0 -4
BITMAP
0000
1100
33f8
2618
2930
60c0
e1f0
ae0c
21c0
2070
2600
21c0
2030
0000
ENDCHAR
STARTCHAR 4F60
ENCODING 20320
SWIDTH 520 0
DWIDTH 14 0
BBX 14 14 0 -4
BITMAP
0000
1100
3200
23fc
2404
6848
e040
a250
2448
2844
2040
2040
23c0
0000
ENDCHAR
STARTCHAR 4F61
ENCODING 20321
SWIDTH 520 0
DWIDTH 14 0
BBX 14 14 0 -4
BITMAP
1040
10e0
21a0
2310
6608
6c84
a080
a488
2488
2488
2488
2488
27f8
2008
ENDCHAR
STARTCHAR 4F62
ENCODING 20322
SWIDTH 520 0
DWIDTH 14 0
BBX 14 14 0 -4
BITMAP
1000
17fc
2400
2400
67f8
6408
a408
a408
27f8
2408
2400
2400
27fc
2000
ENDCHAR
STARTCHAR 4F63
ENCODING 20323
SWIDTH 520 0
DWIDTH 14 0
BBX 14 14 0 -4
BITMAP
0000
17f8
3488
2488
27f8
6488
e488
a7f8
2488
2488
2488
2888
28b8
0000
ENDCHAR
STARTCHAR 4F64
ENCODING 20324
SWIDTH 520 0
DWIDTH 14 0
BBX 14 14 0 -4
BITMAP
0000
1ffc
3200
2200
23e0
6220
e320
a2a0
24a0
2464
2424
25e4
2e38
0000
ENDCHAR
STARTCHAR 4F65
ENCODING 20325
SWIDTH 520 0
DWIDTH 14 0
BBX 14 14 0 -4
BITMAP
0000
0100
0680
0c40
3030
dfec
0000
2210
1220
1120
0960
0040
fff8
0000
ENDCHAR
STARTCHAR 4F66
ENCODING 20326
SWIDTH 520 0
DWIDTH 14 0
BBX 14 14 0 -4
BITMAP
1000
1ffc
2080
2080
6100
6200
a3f8
a608
2a08
3208
2208
2208
23f8
2208
ENDCHAR
STARTCHAR 4F67
ENCODING 20327
SWIDTH 520 0
DWIDTH 14 0
BBX 14 14 0 -4
BITMAP
0000
1100
3100
21f0
2100
6100
eff8
a100
21c0
2130
2118
2100
2100
0000
ENDCHAR
STARTCHAR 4F68
ENCODING 20328
SWIDTH 520 0
DWIDTH 14 0
BBX 14 14 0 -4
BITMAP
1200
1200
27f8
2408
6c08
6fc8
b448
a7c8
2408
24f4
2404
2404
23f8
0000
ENDCHAR
STARTCHAR 4F69
ENCODING 20329
SWIDTH 520 0
DWIDTH 14 0
BBX 14 14 0 -4
BITMAP
0000
3ff0
3010
57d0
5110
d7d0
d550
5550
5550
5554
5554
65d4
610c
0000
ENDCHAR
STARTCHAR 4F6A
ENCODING 20330
SWIDTH 520 0
DWIDTH 14 0
BBX 14 14 0 -4
BITMAP
1000
17f8
2408
2408
65e8
6528
e528
a528
25e8
2528
2408
2408
27f8
2408
ENDCHAR
STARTCHAR 4F6B
ENCODING 20331
SWIDTH 520 0
DWIDTH 14 0
BBX 14 14 0 -4
BITMAP
0000
1100
33f8
2618
2930
60c0
e360
bc1c
2000
27f8
2408
2408
27f8
2408
ENDCHAR
STARTCHAR 4F6C
ENCODING 20332
SWIDTH 520 0
DWIDTH 14 0
BBX 14 14 0 -4
BITMAP
0000
1100
3100
2fe8
2110
6160
fff8
a180
2718
3a70
2388
2208
23f0
0000
ENDCHAR
STARTCHAR 4F6D
ENCODING 20333
SWIDTH 520 0
DWIDTH 14 0
BBX 14 14 0 -4
BITMAP
0000
1100
33f0
2630
2960
61e0
ee38
a080
2ff0
2480
2880
2ff8
2080
2080
ENDCHAR
STARTCHAR 4F6E
ENCODING 20334
SWIDTH 520 0
DWIDTH 14 0
BBX 14 14 0 -4
BITMAP
1040
10a0
21a0
2210
6c08
7bf4
a000
a000
27f8
2408
2408
2408
27f8
2408
ENDCHAR
STARTCHAR 4F6F
ENCODING 20335
SWIDTH 520 0
DWIDTH 14 0
BBX 14 14 0 -4
BITMAP
0000
1610
3120
2ff8
2080
6080
e7f0
a080
2080
2ff8
2080
2080
2080
0000
ENDCHAR
STARTCHAR 4F70
ENCODING 20336
SWIDTH 520 0
DWIDTH 14 0
BBX 14 14 0 -4
BITMAP
0000
1ffc
3080
2080
27f8
6408
e408
a7f8
2408
2408
2408
27f8
2408
0000
ENDCHAR
STARTCHAR 4F71
ENCODING 20337
SWIDTH 520 0
DWIDTH 14 0
BBX 14 14 0 -4
BITMAP
0000
0300
0580
1840
3fe0
c018
7ff0
0100
1100
11f0
1100
1100
fff8
0000
ENDCHAR
STARTCHAR 4F72
ENCODING 20338
SWIDTH 520 0
DWIDTH 14 0
BBX 14 14 0 -4
BITMAP
1000
1100
23f8
2218
6410
6a20
a1c0
a180
23f8
2e08
2208
2208
23f8
2208
ENDCHAR
STARTCHAR 4F73
ENCODING 20339
SWIDTH 520 0
DWIDTH 14 0
BBX 14 14 0 -4
BITMAP
0000
1080
37f0
2080
2080
6ff8
e000
a080
2080
27f0
2080
2080
2ff8
0000
ENDCHAR
STARTCHAR 4F74
ENCODING 20340
SWIDTH 520 0
DWIDTH 14 0
BBX 14 14 0 -4
BITMAP
0000
1ffc
3410
2410
67f0
e410
a410
27f0
2410
24fc
2f10
2010
2010
0000
ENDCHAR
STARTCHAR 4F75
ENCODING 20341
SWIDTH 520 0
DWIDTH 14 0
BBX 14 14 0 -4
BITMAP
1410
1220
2140
2ff8
6220
6220
a220
a220
2ff8
2220
2220
2420
2c20
3820
ENDCHAR
STARTCHAR 4F76
ENCODING 20342
SWIDTH 520 0
DWIDTH 14 0
BBX 14 14 0 -4
BITMAP
0000
1080
3080
2ffc
2080
6080
e7f8
a000
27f8
2408
2408
27f8
2408
0000
ENDCHAR
STARTCHAR 4F77
ENCODING 20343
SWIDTH 520 0
DWIDTH 14 0
BBX 14 14 0 -4
BITMAP
1000
17f8
2408
2408
67f8
6408
a408
a7f8
2488
2490
2460
24a0
2710
240c
ENDCHAR
STARTCHAR 4F78
ENCODING 20344
SWIDTH 520 0
DWIDTH 14 0
BBX 14 14 0 -4
BITMAP
1004
17fc
2080
2080
6ffc
6080
a080
a080
27f8
2408
2408
2408
27f8
2408
ENDCHAR
STARTCHAR 4F79
ENCODING 20345
SWIDTH 520 0
DWIDTH 14 0
BBX 14 14 0 -4
BITMAP
1100
13f0
2230
2420
6ffc
6400
a5f8
a508
2508
2508
2570
2904
2904
31f8
ENDCHAR
STARTCHAR 4F7A
ENCODING 20346
SWIDTH 520 0
DWIDTH 14 0
BBX 14 14 0 -4
BITMAP
0000
1040
30a0
2110
2618
6c04
e3f0
a040
2040
27f8
2040
2040
2ffc
2000
ENDCHAR
STARTCHAR 4F7B
ENCODING 20347
SWIDTH 520 0
DWIDTH 14 0
BBX 14 14 0 -4
BITMAP
0000
1120
3120
2924
2d28
6530
e120
a338
252c
2920
2224
2624
2c3c
0000
ENDCHAR
STARTCHAR 4F7C
ENCODING 20348
SWIDTH 520 0
DWIDTH 14 0
BBX 14 14 0 -4
BITMAP
0000
1100
3080
2ff8
2240
6420
e410
aa28
2360
2140
2080
2360
2c18
0000
ENDCHAR
STARTCHAR 4F7D
ENCODING 20349
SWIDTH 520 0
DWIDTH 14 0
BBX 14 14 0 -4
BITMAP
1040
1840
24fc
2484
62a8
6120
a220
a220
2460
2450
2450
2888
2908
2204
ENDCHAR
STARTCHAR 4F7E
ENCODING 20350
SWIDTH 520 0
DWIDTH 14 0
BBX 14 14 0 -4
BITMAP
0000
1140
3220
2220
2410
67f8
ec1c
a7f0
2410
27f0
2410
2410
24f0
0000
ENDCHAR
STARTCHAR 4F7F
ENCODING 20351
SWIDTH 520 0
DWIDTH 14 0
BBX 14 14 0 -4
BITMAP
0000
1080
3080
2ffc
2080
67f8
e488
a7f8
2488
2680
2380
23e0
2c3c
0000
ENDCHAR
STARTCHAR 4F80
ENCODING 20352
SWIDTH 520 0
DWIDTH 14 0
BBX 14 14 0 -4
BITMAP
1008
1f88
2528
2528
6528
6528
e528
afa8
2528
2528
2528
2908
2908
3138
ENDCHAR
STARTCHAR 4F81
ENCODING 20353
SWIDTH 520 0
DWIDTH 14 0
BBX 14 14 0 -4
BITMAP
1080
1480
2480
27f8
6880
6880
a080
affc
2220
2220
2424
2c24
383c
0000
ENDCHAR
STARTCHAR 4F82
ENCODING 20354
SWIDTH 520 0
DWIDTH 14 0
BBX 14 14 0 -4
BITMAP
1080
10c0
27fc
2400
6438
65f0
a440
a440
247c
27c0
2444
2444
2844
2878
ENDCHAR
STARTCHAR 4F83
ENCODING 20355
SWIDTH 520 0
DWIDTH 14 0
BBX 14 14 0 -4
BITMAP
0000
17f8
3408
2408
27f8
6408
e000
a490
2490
2490
2494
2894
301c
0000
ENDCHAR
STARTCHAR 4F84
ENCODING 20356
SWIDTH 520 0
DWIDTH 14 0
BBX 14 14 0 -4
BITMAP
0000
1ffc
3080
2120
2210
67f0
e088
a080
27f8
2080
2080
2080
2ffc
0000
ENDCHAR
STARTCHAR 4F85
ENCODING 20357
SWIDTH 520 0
DWIDTH 14 0
BBX 14 14 0 -4
BITMAP
1080
1040
2ffc
2110
6220
6220
a7c0
a088
2110
2620
2c40
20b0
2318
2c04
ENDCHAR
STARTCHAR 4F86
ENCODING 20358
SWIDTH 520 0
DWIDTH 14 0
BBX 14 14 0 -4
BITMAP
0100
0100
7ff8
0100
0920
1960
2550
4188
0380
0540
0920
3110
4108
0100
ENDCHAR
STARTCHAR 4F87
ENCODING 20359
SWIDTH 520 0
DWIDTH 14 0
BBX 14 14 0 -4
BITMAP
0000
1080
1ffc
2080
2ff8
6088
6ff8
a880
aff8
2188
2158
2220
2410
380c
ENDCHAR
STARTCHAR 4F88
ENCODING 20360
SWIDTH 520 0
DWIDTH 14 0
BBX 14 14 0 -4
BITMAP
0000
1080
31f8
2618
2db0
60c0
e380
acf8
2118
2730
2ce0
2180
2e00
0000
ENDCHAR
STARTCHAR 4F89
ENCODING 20361
SWIDTH 520 0
DWIDTH 14 0
BBX 14 14 0 -4
BITMAP
0000
1080
3ff0
2140
2620
6fd8
e000
aff0
2400
27f0
2010
2010
23e0
0000
ENDCHAR
STARTCHAR 4F8A
ENCODING 20362
SWIDTH 520 0
DWIDTH 14 0
BBX 14 14 0 -4
BITMAP
1080
1488
2490
2290
62a0
6080
affc
a120
2120
2120
2320
2224
2424
283c
ENDCHAR
STARTCHAR 4F8B
ENCODING 20363
SWIDTH 520 0
DWIDTH 14 0
BBX 14 14 0 -4
BITMAP
0000
1008
3fc8
2208
2228
67a8
e4a8
aca8
3328
2128
2208
2408
2838
0000
ENDCHAR
STARTCHAR 4F8C
ENCODING 20364
SWIDTH 520 0
DWIDTH 14 0
BBX 14 14 0 -4
BITMAP
0180
0660
1a18
e104
1fc0
0040
0080
3fe0
0000
fff8
0c60
3030
7ff8
0000
ENDCHAR
STARTCHAR 4F8D
ENCODING 20365
SWIDTH 520 0
DWIDTH 14 0
BBX 14 14 0 -4
BITMAP
0000
0840
17f8
1040
2040
6ffc
e000
a010
2ffc
2010
2610
2110
20f0
0000
ENDCHAR
STARTCHAR 4F8E
ENCODING 20366
SWIDTH 520 0
DWIDTH 14 0
BBX 14 14 0 -4
BITMAP
0000
1040
3448
2258
2250
6040
effc
a0e0
2160
2150
2250
2c48
3844
2040
ENDCHAR
STARTCHAR 4F8F
ENCODING 20367
SWIDTH 520 0
DWIDTH 14 0
BBX 14 14 0 -4
BITMAP
0000
1040
3240
27f8
2840
6040
effc
a0e0
2160
2250
2c48
3844
2040
0000
ENDCHAR
STARTCHAR 4F90
ENCODING 20368
SWIDTH 520 0
DWIDTH 14 0
BBX 14 14 0 -4
BITMAP
1080
1100
27f8
2528
6528
6528
a528
a528
2528
2528
2528
2528
2ffc
2000
ENDCHAR
STARTCHAR 4F91
ENCODING 20369
SWIDTH 520 0
DWIDTH 14 0
BBX 14 14 0 -4
BITMAP
0000
1080
1080
2ffc
2100
63f8
ee08
bbf8
2208
23f8
2208
2208
2238
0000
ENDCHAR
STARTCHAR 4F92
ENCODING 20370
SWIDTH 520 0
DWIDTH 14 0
BBX 14 14 0 -4
BITMAP
1080
1040
27f8
2408
6080
6100
a7f8
a210
2410
2620
21e0
20e0
2310
2c08
ENDCHAR
STARTCHAR 4F93
ENCODING 20371
SWIDTH 520 0
DWIDTH 14 0
BBX 14 14 0 -4
BITMAP
1000
1080
27f0
2090
2ff8
6090
67f0
a090
a080
27f0
2080
2ff8
2080
2080
ENDCHAR
STARTCHAR 4F94
ENCODING 20372
SWIDTH 520 0
DWIDTH 14 0
BBX 14 14 0 -4
BITMAP
0000
1080
3110
2608
2ff8
6244
e640
a7fc
2840
2040
2ffc
2040
2040
0000
ENDCHAR
STARTCHAR 4F95
ENCODING 20373
SWIDTH 520 0
DWIDTH 14 0
BBX 14 14 0 -4
BITMAP
1000
17fc
2080
2100
67f8
6528
a528
a528
2528
2528
2528
2528
2408
2438
ENDCHAR
STARTCHAR 4F96
ENCODING 20374
SWIDTH 520 0
DWIDTH 14 0
BBX 14 14 0 -4
BITMAP
0000
0300
0580
1840
3fe0
c018
3ff0
2490
2490
3ff0
2490
2490
24f0
2000
ENDCHAR
STARTCHAR 4F97
ENCODING 20375
SWIDTH 520 0
DWIDTH 14 0
BBX 14 14 0 -4
BITMAP
0000
17f8
3408
25e8
2408
65e8
e528
a528
2528
25e8
2508
2408
2478
0000
ENDCHAR
STARTCHAR 4F98
ENCODING 20376
SWIDTH 520 0
DWIDTH 14 0
BBX 14 14 0 -4
BITMAP
1080
1040
2ffc
2804
6008
67f0
a080
a09c
2ff0
2084
2084
2084
20f8
0000
ENDCHAR
STARTCHAR 4F99
ENCODING 20377
SWIDTH 520 0
DWIDTH 14 0
BBX 14 14 0 -4
BITMAP
0000
1050
3048
2ffc
2040
6040
efc0
a240
2240
2260
2224
23a4
2c34
2018
ENDCHAR
STARTCHAR 4F9A
ENCODING 20378
SWIDTH 520 0
DWIDTH 14 0
BBX 14 14 0 -4
BITMAP
1200
1200
27f8
2408
6808
6fc8
a448
a448
27c8
2448
27c8
2408
2008
20f0
ENDCHAR
STARTCHAR 4F9B
ENCODING 20379
SWIDTH 520 0
DWIDTH 14 0
BBX 14 14 0 -4
BITMAP
0000
0a10
1210
2ffc
2210
6210
a210
2ffc
2000
2120
2210
2408
2804
0000
ENDCHAR
STARTCHAR 4F9C
ENCODING 20380
SWIDTH 520 0
DWIDTH 14 0
BBX 14 14 0 -4
BITMAP
1100
1100
27f8
2408
64c8
6468
a408
affc
2408
2488
2448
2828
2808
3038
ENDCHAR
STARTCHAR 4F9D
ENCODING 20381
SWIDTH 520 0
DWIDTH 14 0
BBX 14 14 0 -4
BITMAP
0000
1100
3080
2ff8
2180
6188
e290
a6a0
2e40
3240
2220
22b0
2318
0000
ENDCHAR
STARTCHAR 4F9E
ENCODING 20382
SWIDTH 520 0
DWIDTH 14 0
BBX 14 14 0 -4
BITMAP
0000
1400
3478
2f48
2548
6948
e948
a948
2a48
2e48
2648
2678
2948
3048
ENDCHAR
STARTCHAR 4F9F
ENCODING 20383
SWIDTH 520 0
DWIDTH 14 0
BBX 14 14 0 -4
BITMAP
1080
1080
2ffc
2100
6200
62f8
a418
ac30
2c20
37fc
2420
2420
2420
24e0
ENDCHAR
STARTCHAR 4FA0
ENCODING 20384
SWIDTH 520 0
DWIDTH 14 0
BBX 14 14 0 -4
BITMAP
0000
0880
1080
17f8
2080
6498
e2b0
a080
2ffc
20c0
2120
2610
380c
0000
ENDCHAR
STARTCHAR 4FA1
ENCODING 20385
SWIDTH 520 0
DWIDTH 14 0
BBX 14 14 0 -4
BITMAP
1000
17f8
2120
2120
6120
67f8
a528
a528
2528
2528
2528
2528
27f8
2408
ENDCHAR
STARTCHAR 4FA2
ENCODING 20386
SWIDTH 520 0
DWIDTH 14 0
BBX 14 14 0 -4
BITMAP
1000
1ffc
2080
2080
67f8
6488
a7f8
a488
2488
2ffc
2408
2408
2408
2438
ENDCHAR
STARTCHAR 4FA3
ENCODING 20387
SWIDTH 520 0
DWIDTH 14 0
BBX 14 14 0 -4
BITMAP
0000
17f0
3410
2410
2410
67f0
e410
a000
27f8
2408
2408
2408
27f8
2408
ENDCHAR
STARTCHAR 4FA4
ENCODING 20388
SWIDTH 520 0
DWIDTH 14 0
BBX 14 14 0 -4
BITMAP
1100
1108
27d0
2120
6140
6ff8
a080
a3f0
2700
3a00
23f0
2010
2010
21e0
ENDCHAR
STARTCHAR 4FA5
ENCODING 20389
SWIDTH 520 0
DWIDTH 14 0
BBX 14 14 0 -4
BITMAP
0000
1218
33e0
2d18
20e4
61c4
ee3c
a000
2ffc
2140
2144
2244
2c7c
0000
ENDCHAR
STARTCHAR 4FA6
ENCODING 20390
SWIDTH 520 0
DWIDTH 14 0
BBX 14 14 0 -4
BITMAP
0000
0880
10fc
1080
27f8
6408
e448
a448
2448
2448
20a0
2318
2c04
0000
ENDCHAR
STARTCHAR 4FA7
ENCODING 20391
SWIDTH 520 0
DWIDTH 14 0
BBX 14 14 0 -4
BITMAP
0000
1f88
38a8
2aa8
2aa8
6aa8
eaa8
aaa8
2aa8
2aa8
2728
2d08
38b8
0000
ENDCHAR
STARTCHAR 4FA8
ENCODING 20392
SWIDTH 520 0
DWIDTH 14 0
BBX 14 14 0 -4
BITMAP
0000
1070
3fc0
2080
2080
6ff8
e340
a420
3a38
2220
2220
2420
2820
0000
ENDCHAR
STARTCHAR 4FA9
ENCODING 20393
SWIDTH 520 0
DWIDTH 14 0
BBX 14 14 0 -4
BITMAP
0000
1080
31c0
2320
2610
6bfc
e000
a000
2ff8
2100
2240
2430
2ff8
0000
ENDCHAR
STARTCHAR 4FAA
ENCODING 20394
SWIDTH 520 0
DWIDTH 14 0
BBX 14 14 0 -4
BITMAP
0000
10c0
3ffc
2210
2120
60c0
e3e0
bc1c
2210
2210
2210
2410
3810
0000
ENDCHAR
STARTCHAR 4FAB
ENCODING 20395
SWIDTH 520 0
DWIDTH 14 0
BBX 14 14 0 -4
BITMAP
1080
1040
2ffc
2200
6200
63f8
a080
a100
2ffc
2210
2620
21e0
21b0
2e0c
ENDCHAR
STARTCHAR 4FAC
ENCODING 20396
SWIDTH 520 0
DWIDTH 14 0
BBX 14 14 0 -4
BITMAP
0000
1080
3080
2ff8
2988
6180
e288
a650
2e60
3220
2270
2398
220c
0000
ENDCHAR
STARTCHAR 4FAD
ENCODING 20397
SWIDTH 520 0
DWIDTH 14 0
BBX 14 14 0 -4
BITMAP
1000
17f8
2408
2408
67f8
6448
a460
a820
2b18
30cc
2020
2600
21e0
2018
ENDCHAR
STARTCHAR 4FAE
ENCODING 20398
SWIDTH 520 0
DWIDTH 14 0
BBX 14 14 0 -4
BITMAP
0000
1200
37f8
2400
2bf0
6290
e250
aff8
2510
2490
27f8
2010
21e0
0000
ENDCHAR
STARTCHAR 4FAF
ENCODING 20399
SWIDTH 520 0
DWIDTH 14 0
BBX 14 14 0 -4
BITMAP
0000
17f0
3010
2010
2ffc
6200
e7f8
ac80
2880
2ffc
2080
2360
2c1c
0000
ENDCHAR
STARTCHAR 4FB0
ENCODING 20400
SWIDTH 520 0
DWIDTH 14 0
BBX 14 14 0 -4
BITMAP
1000
17f8
2108
2108
6ffc
6108
a7f8
a100
23f8
2608
2a08
3208
23f8
2208
ENDCHAR
STARTCHAR 4FB1
ENCODING 20401
SWIDTH 520 0
DWIDTH 14 0
BBX 14 14 0 -4
BITMAP
1000
17f8
2408
2408
67f8
6000
affc
a040
2040
27f8
2040
2040
2ffc
2000
ENDCHAR
STARTCHAR 4FB2
ENCODING 20402
SWIDTH 520 0
DWIDTH 14 0
BBX 14 14 0 -4
BITMAP
1000
17f8
2400
2400
65f0
6400
a7f8
a540
2548
2530
2d20
2950
2998
310c
ENDCHAR
STARTCHAR 4FB3
ENCODING 20403
SWIDTH 520 0
DWIDTH 14 0
BBX 14 14 0 -4
BITMAP
1080
1288
2288
2690
6698
65a8
a9a4
a8c4
2080
27f8
2080
2080
2ffc
2000
ENDCHAR
STARTCHAR 4FB4
ENCODING 20404
SWIDTH 520 0
DWIDTH 14 0
BBX 14 14 0 -4
BITMAP
0000
0300
0480
1840
3ff0
c00c
7e48
1248
1248
7e48
1248
1248
1308
fc78
ENDCHAR
STARTCHAR 4FB5
ENCODING 20405
SWIDTH 520 0
DWIDTH 14 0
BBX 14 14 0 -4
BITMAP
0000
17f0
3010
27f0
2010
67f0
e000
aff8
2808
27f0
2220
21c0
2e38
0000
ENDCHAR
STARTCHAR 4FB6
ENCODING 20406
SWIDTH 520 0
DWIDTH 14 0
BBX 14 14 0 -4
BITMAP
1000
17f0
2410
2410
6410
67f0
e100
a100
27f8
2408
2408
2408
27f8
2408
ENDCHAR
STARTCHAR 4FB7
ENCODING 20407
SWIDTH 520 0
DWIDTH 14 0
BBX 14 14 0 -4
BITMAP
1000
17f8
2408
2408
67f8
6400
e7f8
a408
25e8
2528
2d28
29e8
2908
3078
ENDCHAR
STARTCHAR 4FB8
ENCODING 20408
SWIDTH 520 0
DWIDTH 14 0
BBX 14 14 0 -4
BITMAP
1000
17fc
2000
27f8
6408
6408
a408
a7f8
2408
2210
2130
2120
2ffc
2000
ENDCHAR
STARTCHAR 4FB9
ENCODING 20409
SWIDTH 520 0
DWIDTH 14 0
BBX 14 14 0 -4
BITMAP
1000
1ef8
2220
2420
6820
6ef8
a220
a220
2a20
2dfc
2400
2e00
29fc
3000
ENDCHAR
STARTCHAR 4FBA
ENCODING 20410
SWIDTH 520 0
DWIDTH 14 0
BBX 14 14 0 -4
BITMAP
1080
1488
2488
27f8
61c0
6360
a490
b8cc
2040
2ff0
2030
2020
2040
2080
ENDCHAR
STARTCHAR 4FBB
ENCODING 20411
SWIDTH 520 0
DWIDTH 14 0
BBX 14 14 0 -4
BITMAP
1210
1320
2140
27f8
6408
6408
a408
a7f8
2140
2140
2344
2644
2c7c
0000
ENDCHAR
STARTCHAR 4FBC
ENCODING 20412
SWIDTH 520 0
DWIDTH 14 0
BBX 14 14 0 -4
BITMAP
0000
1080
17f0
2080
2ff8
6808
6808
abe8
a060
20c0
2ff8
2080
2080
2380
ENDCHAR
STARTCHAR 4FBD
ENCODING 20413
SWIDTH 520 0
DWIDTH 14 0
BBX 14 14 0 -4
BITMAP
1000
17f8
2488
2488
67f8
6488
a488
a7f8
2100
2ff8
2108
2308
2608
38f0
ENDCHAR
STARTCHAR 4FBE
ENCODING 20414
SWIDTH 520 0
DWIDTH 14 0
BBX 14 14 0 -4
BITMAP
1080
1088
27f0
20e0
6ffc
60c0
e180
afe0
3860
2040
2ffc
2040
2040
23c0
ENDCHAR
STARTCHAR 4FBF
ENCODING 20415
SWIDTH 520 0
DWIDTH 14 0
BBX 14 14 0 -4
BITMAP
0000
17fc
3080
27f8
2488
67f8
e488
a7f8
2088
2480
2380
23c0
3c3c
0000
ENDCHAR
STARTCHAR 4FC0
ENCODING 20416
SWIDTH 520 0
DWIDTH 14 0
BBX 14 14 0 -4
BITMAP
1038
2fc0
2088
24c8
6650
6310
a100
aff8
2410
2410
2320
20c0
2330
3c08
ENDCHAR
STARTCHAR 4FC1
ENCODING 20417
SWIDTH 520 0
DWIDTH 14 0
BBX 14 14 0 -4
BITMAP
1000
11f8
2108
2908
69f8
6800
eff8
a088
2088
2ffc
20c0
2140
2630
380c
ENDCHAR
STARTCHAR 4FC2
ENCODING 20418
SWIDTH 520 0
DWIDTH 14 0
BBX 14 14 0 -4
BITMAP
1000
1ffc
2180
2308
6410
6fe0
a090
a308
27f8
2284
2290
2488
2c84
2b80
ENDCHAR
STARTCHAR 4FC3
ENCODING 20419
SWIDTH 520 0
DWIDTH 14 0
BBX 14 14 0 -4
BITMAP
0000
17f8
3408
2408
2408
67f8
e040
a440
2478
2440
2e40
2b40
31fc
0000
ENDCHAR
STARTCHAR 4FC4
ENCODING 20420
SWIDTH 520 0
DWIDTH 14 0
BBX 14 14 0 -4
BITMAP
0000
1040
11d8
2e4c
2240
6ffc
e240
a2c4
2758
2a70
2264
23b4
2e18
0000
ENDCHAR
STARTCHAR 4FC5
ENCODING 20421
SWIDTH 520 0
DWIDTH 14 0
BBX 14 14 0 -4
BITMAP
0000
10b0
3098
2ffc
2080
6884
e4d8
a2f0
21a0
26b0
2898
208c
2380
0000
ENDCHAR
STARTCHAR 4FC6
ENCODING 20422
SWIDTH 520 0
DWIDTH 14 0
BBX 14 14 0 -4
BITMAP
0000
0840
10a0
1310
2418
7bf4
e040
a040
2ff8
2040
2250
2448
2844
21c0
ENDCHAR
STARTCHAR 4FC7
ENCODING 20423
SWIDTH 520 0
DWIDTH 14 0
BBX 14 14 0 -4
BITMAP
1100
1afc
2420
2c20
7220
6220
a6fc
ae20
3220
2220
2220
2220
3dfc
0000
ENDCHAR
STARTCHAR 4FC8
ENCODING 20424
SWIDTH 520 0
DWIDTH 14 0
BBX 14 14 0 -4
BITMAP
0000
1040
3240
27f8
2440
6840
effc
a000
2000
27f8
2408
2408
27f8
2408
ENDCHAR
STARTCHAR 4FC9
ENCODING 20425
SWIDTH 520 0
DWIDTH 14 0
BBX 14 14 0 -4
BITMAP
1000
1ffc
2100
2100
6ff8
6208
effc
a000
2000
27f8
2408
2408
27f8
2408
ENDCHAR
STARTCHAR 4FCA
ENCODING 20426
SWIDTH 520 0
DWIDTH 14 0
BBX 14 14 0 -4
BITMAP
0000
1080
3120
2210
27f8
6630
ed08
a3f0
2610
2920
20c0
2360
2c18
0000
ENDCHAR
STARTCHAR 4FCB
ENCODING 20427
SWIDTH 520 0
DWIDTH 14 0
BBX 14 14 0 -4
BITMAP
1000
17f0
2410
27f0
6410
6000
e7f8
a488
2488
27f8
2404
2404
27f8
2000
ENDCHAR
STARTCHAR 4FCC
ENCODING 20428
SWIDTH 520 0
DWIDTH 14 0
BBX 14 14 0 -4
BITMAP
10b0
1088
2ffc
2080
6080
67f8
e488
a7f8
2488
2488
27f8
2488
2488
24b8
ENDCHAR
STARTCHAR 4FCD
ENCODING 20429
SWIDTH 520 0
DWIDTH 14 0
BBX 14 14 0 -4
BITMAP
1080
1040
27f8
2408
6408
67f8
e408
a7f8
2488
248c
2478
2420
2590
260c
ENDCHAR
STARTCHAR 4FCE
ENCODING 20430
SWIDTH 520 0
DWIDTH 14 0
BBX 14 14 0 -4
BITMAP
0000
13f0
1210
3210
2bf0
4210
a210
2210
23f0
5210
5210
ca10
8ff8
0000
ENDCHAR
STARTCHAR 4FCF
ENCODING 20431
SWIDTH 520 0
DWIDTH 14 0
BBX 14 14 0 -4
BITMAP
0000
1488
3690
22a0
27f8
6408
e408
a7f8
2408
27f8
2408
2408
2478
0000
ENDCHAR
STARTCHAR 4FD0
ENCODING 20432
SWIDTH 520 0
DWIDTH 14 0
BBX 14 14 0 -4
BITMAP
0000
1f88
3208
2228
2fa8
6228
a728
a7a8
2aa8
2a28
3208
2208
2238
0000
ENDCHAR
STARTCHAR 4FD1
ENCODING 20433
SWIDTH 520 0
DWIDTH 14 0
BBX 14 14 0 -4
BITMAP
0000
17f8
3230
21c0
27f8
6488
e488
a7f8
2488
27f8
2488
2488
24f8
0000
ENDCHAR
STARTCHAR 4FD2
ENCODING 20434
SWIDTH 520 0
DWIDTH 14 0
BBX 14 14 0 -4
BITMAP
1080
10c0
2ff8
2808
6000
67f0
e000
a000
2ffc
2120
2124
2324
2624
2c38
ENDCHAR
STARTCHAR 4FD3
ENCODING 20435
SWIDTH 520 0
DWIDTH 14 0
BBX 14 14 0 -4
BITMAP
1000
1ff8
2248
2490
6920
6920
e490
a248
27f8
2080
2080
2080
2ffc
2000
ENDCHAR
STARTCHAR 4FD4
ENCODING 20436
SWIDTH 520 0
DWIDTH 14 0
BBX 14 14 0 -4
BITMAP
1000
17f8
2408
27f8
6408
6408
e7f8
a408
27f8
2120
2124
2224
2624
2c3c
ENDCHAR
STARTCHAR 4FD5
ENCODING 20437
SWIDTH 520 0
DWIDTH 14 0
BBX 14 14 0 -4
BITMAP
1080
1080
2ff8
2808
6888
6080
eff8
a1c0
22c0
22a0
2490
2888
3084
2080
ENDCHAR
STARTCHAR 4FD6
ENCODING 20438
SWIDTH 520 0
DWIDTH 14 0
BBX 14 14 0 -4
BITMAP
1000
1ffc
2020
2040
61d0
6648
ec44
a040
27f8
2408
2408
2408
27f8
2408
ENDCHAR
STARTCHAR 4FD7
ENCODING 20439
SWIDTH 520 0
DWIDTH 14 0
BBX 14 14 0 -4
BITMAP
1000
1120
2210
2408
6844
60a0
e110
a608
2ffc
2410
2410
2410
27f0
2410
ENDCHAR
STARTCHAR 4FD8
ENCODING 20440
SWIDTH 520 0
DWIDTH 14 0
BBX 14 14 0 -4
BITMAP
1008
1ff0
2088
24c8
6250
6210
e7f8
a030
2060
2ffc
2040
2040
2040
23c0
ENDCHAR
STARTCHAR 4FD9
ENCODING 20441
SWIDTH 520 0
DWIDTH 14 0
BBX 14 14 0 -4
BITMAP
1618
13e0
21e0
2330
6d08
6ffc
e280
a480
2ff8
3488
2488
2488
24b8
2080
ENDCHAR
STARTCHAR 4FDA
ENCODING 20442
SWIDTH 520 0
DWIDTH 14 0
BBX 14 14 0 -4
BITMAP
0000
17f8
3488
27f8
2488
6488
e7f8
a488
2080
27f8
2080
2080
2ffc
0000
ENDCHAR
STARTCHAR 4FDB
ENCODING 20443
SWIDTH 520 0
DWIDTH 14 0
BBX 14 14 0 -4
BITMAP
0000
1100
33f0
2420
2840
6ff8
e488
a488
27f8
24c8
2140
2344
2444
3878
ENDCHAR
STARTCHAR 4FDC
ENCODING 20444
SWIDTH 520 0
DWIDTH 14 0
BBX 14 14 0 -4
BITMAP
0000
1080
37f8
2488
27f8
6488
e7f8
a000
2ffc
2400
27f8
2008
23f0
0000
ENDCHAR
STARTCHAR 4FDD
ENCODING 20445
SWIDTH 520 0
DWIDTH 14 0
BBX 14 14 0 -4
BITMAP
0000
17f8
3408
2408
2408
67f8
e448
a040
2ffc
20e0
2150
2648
2c44
0000
ENDCHAR
STARTCHAR 4FDE
ENCODING 20446
SWIDTH 520 0
DWIDTH 14 0
BBX 14 14 0 -4
BITMAP
0000
0100
0680
1860
6fd8
0000
3e10
2250
3e50
2250
3e50
2210
2e70
0000
ENDCHAR
STARTCHAR 4FDF
ENCODING 20447
SWIDTH 520 0
DWIDTH 14 0
BBX 14 14 0 -4
BITMAP
0000
1080
3120
2610
2ff8
6200
e7f0
a880
2080
2ff8
2180
2260
3c18
0000
ENDCHAR
STARTCHAR 4FE0
ENCODING 20448
SWIDTH 520 0
DWIDTH 14 0
BBX 14 14 0 -4
BITMAP
0000
1040
1040
2ffc
2448
6448
6658
aa58
a964
20e0
20a0
2130
2618
380c
ENDCHAR
STARTCHAR 4FE1
ENCODING 20449
SWIDTH 520 0
DWIDTH 14 0
BBX 14 14 0 -4
BITMAP
0000
10c0
3ffc
2000
67f8
e000
a7f8
2000
27f8
2408
2408
27f8
2408
0000
ENDCHAR
STARTCHAR 4FE2
ENCODING 20450
SWIDTH 520 0
DWIDTH 14 0
BBX 14 14 0 -4
BITMAP
0000
1100
33f8
2618
29a0
60e0
ef1c
a060
21d0
2660
218c
2638
21c0
2e00
ENDCHAR
STARTCHAR 4FE3
ENCODING 20451
SWIDTH 520 0
DWIDTH 14 0
BBX 14 14 0 -4
BITMAP
0000
17f0
3410
2410
27f0
6410
e000
aff8
2080
2ff8
2180
2260
3c18
0000
ENDCHAR
STARTCHAR 4FE4
ENCODING 20452
SWIDTH 520 0
DWIDTH 14 0
BBX 14 14 0 -4
BITMAP
1210
1160
2ff8
2088
6088
6ff8
e880
a880
2ff8
2188
2288
2cb8
3880
2080
ENDCHAR
STARTCHAR 4FE5
ENCODING 20453
SWIDTH 520 0
DWIDTH 14 0
BBX 14 14 0 -4
BITMAP
0000
1080
3ffc
2080
27f8
6488
e7f8
a488
27f8
2080
2ffc
2080
2080
0000
ENDCHAR
STARTCHAR 4FE6
ENCODING 20454
SWIDTH 520 0
DWIDTH 14 0
BBX 14 14 0 -4
BITMAP
0000
1080
3ffc
2080
27f8
6080
effc
a110
23fc
2510
2890
3010
20f0
0000
ENDCHAR
STARTCHAR 4FE7
ENCODING 20455
SWIDTH 520 0
DWIDTH 14 0
BBX 14 14 0 -4
BITMAP
1080
1080
2ffc
2080
6080
6ff8
e080
a080
2a48
2a48
3214
3214
2210
21e0
ENDCHAR
STARTCHAR 4FE8
ENCODING 20456
SWIDTH 520 0
DWIDTH 14 0
BBX 14 14 0 -4
BITMAP
0000
1ffc
3120
2924
2524
6328
e7fc
a400
2400
2400
2400
2800
2800
0000
ENDCHAR
STARTCHAR 4FE9
ENCODING 20457
SWIDTH 520 0
DWIDTH 14 0
BBX 14 14 0 -4
BITMAP
0000
1ff8
3120
2120
2ff8
6928
e928
a9a8
2ad8
2e58
2c88
2808
2838
0000
ENDCHAR
STARTCHAR 4FEA
ENCODING 20458
SWIDTH 520 0
DWIDTH 14 0
BBX 14 14 0 -4
BITMAP
0000
1ff8
3000
2f78
2948
6948
ed68
ab58
2b58
2948
2948
2948
2f78
0000
ENDCHAR
STARTCHAR 4FEB
ENCODING 20459
SWIDTH 520 0
DWIDTH 14 0
BBX 14 14 0 -4
BITMAP
1080
1080
27f8
2080
6488
6690
e2a0
affc
21c0
22a0
2690
2c98
3084
2080
ENDCHAR
STARTCHAR 4FEC
ENCODING 20460
SWIDTH 520 0
DWIDTH 14 0
BBX 14 14 0 -4
BITMAP
1000
1f90
2210
2220
6fa0
6220
a728
a7c8
2ac8
2a48
3284
22fc
22c4
2204
ENDCHAR
STARTCHAR 4FED
ENCODING 20461
SWIDTH 520 0
DWIDTH 14 0
BBX 14 14 0 -4
BITMAP
0000
1040
30e0
2110
2608
6c04
e3f0
a000
2488
2650
2250
2020
2ffc
0000
ENDCHAR
STARTCHAR 4FEE
ENCODING 20462
SWIDTH 520 0
DWIDTH 14 0
BBX 14 14 0 -4
BITMAP
0000
1080
31f8
2b18
2ca0
68f0
e9bc
aee0
29b0
2ac4
2318
20e0
2700
0000
ENDCHAR
STARTCHAR 4FEF
ENCODING 20463
SWIDTH 520 0
DWIDTH 14 0
BBX 14 14 0 -4
BITMAP
0000
10c0
3ff8
2800
2890
69f8
eb10
ad90
2950
2950
2910
3110
3170
0000
ENDCHAR
STARTCHAR 4FF0
ENCODING 20464
SWIDTH 520 0
DWIDTH 14 0
BBX 14 14 0 -4
BITMAP
1180
2f00
2278
2248
6fc8
6248
a748
a7c8
2ac8
2a48
3248
2278
2248
2200
ENDCHAR
STARTCHAR 4FF1
ENCODING 20465
SWIDTH 520 0
DWIDTH 14 0
BBX 14 14 0 -4
BITMAP
1000
17f0
2410
27f0
6410
67f0
e410
a7f0
2410
2ffc
2000
2160
2630
2c08
ENDCHAR
STARTCHAR 4FF2
ENCODING 20466
SWIDTH 520 0
DWIDTH 14 0
BBX 14 14 0 -4
BITMAP
0000
1420
1220
2fa0
2478
6928
68a8
b928
a728
2628
2628
2548
28c8
30b8
ENDCHAR
STARTCHAR 4FF3
ENCODING 20467
SWIDTH 520 0
DWIDTH 14 0
BBX 14 14 0 -4
BITMAP
0000
1120
3120
2f3c
2120
6120
ef3c
a120
2120
2f3c
2120
2120
2120
0000
ENDCHAR
STARTCHAR 4FF4
ENCODING 20468
SWIDTH 520 0
DWIDTH 14 0
BBX 14 14 0 -4
BITMAP
1260
113c
2fe0
2088
60f4
61e4
ee1c
a240
22bc
2fc0
2118
21e4
23c4
2c3c
ENDCHAR
STARTCHAR 4FF5
ENCODING 20469
SWIDTH 520 0
DWIDTH 14 0
BBX 14 14 0 -4
BITMAP
1080
1080
2ffc
2080
67f8
6080
e080
affc
2188
2250
2e20
3a10
22cc
2300
ENDCHAR
STARTCHAR 4FF6
ENCODING 20470
SWIDTH 520 0
DWIDTH 14 0
BBX 14 14 0 -4
BITMAP
0000
1200
1278
23c8
2248
6248
7fc8
a250
ab30
2ab0
32a0
3230
2248
2e84
ENDCHAR
STARTCHAR 4FF7
ENCODING 20471
SWIDTH 520 0
DWIDTH 14 0
BBX 14 14 0 -4
BITMAP
1000
1ef8
2aa8
2aa8
6aa8
6ea8
aaa8
aaf8
2e88
2a80
2a8c
2a8c
328c
36f8
ENDCHAR
STARTCHAR 4FF8
ENCODING 20472
SWIDTH 520 0
DWIDTH 14 0
BBX 14 14 0 -4
BITMAP
0000
1080
3ffc
2080
27f8
6080
fffc
a320
2690
3bfc
2080
2ff8
2080
0000
ENDCHAR
STARTCHAR 4FF9
ENCODING 20473
SWIDTH 520 0
DWIDTH 14 0
BBX 14 14 0 -4
BITMAP
1000
1ff8
2120
2120
6120
6738
e408
a408
2738
2120
2120
2120
2ffc
2000
ENDCHAR
STARTCHAR 4FFA
ENCODING 20474
SWIDTH 520 0
DWIDTH 14 0
BBX 14 14 0 -4
BITMAP
0000
1080
3ff8
2120
2698
7ffc
e490
a7f0
2490
27f0
2484
2084
20f8
0000
ENDCHAR
STARTCHAR 4FFB
ENCODING 20475
SWIDTH 520 0
DWIDTH 14 0
BBX 14 14 0 -4
BITMAP
0000
1100
33f8
2618
29e0
61e0
ee1c
a7f8
2448
2448
27f8
2448
27f8
2408
ENDCHAR
STARTCHAR 4FFC
ENCODING 20476
SWIDTH 520 0
DWIDTH 14 0
BBX 14 14 0 -4
BITMAP
0000
1040
3ffc
2120
2210
6ff8
e004
a7f8
2408
27f8
2408
27f8
2408
2478
ENDCHAR
STARTCHAR 4FFD
ENCODING 20477
SWIDTH 520 0
DWIDTH 14 0
BBX 14 14 0 -4
BITMAP
11a0
1e40
287c
2844
68a8
6f28
a920
a920
2920
2930
2950
2958
3148
3184
ENDCHAR
STARTCHAR 4FFE
ENCODING 20478
SWIDTH 520 0
DWIDTH 14 0
BBX 14 14 0 -4
BITMAP
0000
1180
37f8
2488
27f8
6488
e488
a7f8
2148
2640
2ffc
2040
2040
0000
ENDCHAR
STARTCHAR 4FFF
ENCODING 20479
SWIDTH 520 0
DWIDTH 14 0
BBX 14 14 0 -4
BITMAP
1080
10f8
2080
27f8
6488
67e8
e488
a4f0
2400
25e0
2520
2524
2a24
2e38
ENDCHAR
STARTCHAR 5000
ENCODING 20480
SWIDTH 520 0
DWIDTH 14 0
BBX 14 14 0 -4
BITMAP
1000
13f0
2200
23f8
6200
63f8
a200
a200
2ff8
2288
22b0
2260
22a0
2318
ENDCHAR
STARTCHAR 5001
ENCODING 20481
SWIDTH 520 0
DWIDTH 14 0
BBX 14 14 0 -4
BITMAP
1400
1400
27f8
2a48
6a48
6248
e248
afc8
2248
2248
2548
24f8
2848
3000
ENDCHAR
STARTCHAR 5002
ENCODING 20482
SWIDTH 520 0
DWIDTH 14 0
BBX 14 14 0 -4
BITMAP
1108
1310
2220
2f7c
6210
6210
a210
a210
2ffc
2210
2210
2410
2c10
3810
ENDCHAR
STARTCHAR 5003
ENCODING 20483
SWIDTH 520 0
DWIDTH 14 0
BBX 14 14 0 -4
BITMAP
1200
1220
27a0
24b8
6cac
6b20
e320
a6fc
2800
27f0
2410
2410
27f0
2410
ENDCHAR
STARTCHAR 5004
ENCODING 20484
SWIDTH 520 0
DWIDTH 14 0
BBX 14 14 0 -4
BITMAP
1618
13e0
21f0
2e18
6080
6ffc
e200
a3f8
2c08
37f8
2408
27f8
2408
2478
ENDCHAR
STARTCHAR 5005
ENCODING 20485
SWIDTH 520 0
DWIDTH 14 0
BBX 14 14 0 -4
BITMAP
0880
1040
17fc
2210
2210
6738
e4a8
a844
2040
2ffc
2040
2040
2040
2040
ENDCHAR
STARTCHAR 5006
ENCODING 20486
SWIDTH 520 0
DWIDTH 14 0
BBX 14 14 0 -4
BITMAP
1000
1ff8
2080
2080
6ff8
6888
eaa8
aaa8
2bb8
2bb8
2dd8
2cc8
2888
28b8
ENDCHAR
STARTCHAR 5007
ENCODING 20487
SWIDTH 520 0
DWIDTH 14 0
BBX 14 14 0 -4
BITMAP
1080
1040
2ffc
2804
6a04
63bc
e4a4
a4a4
2ea4
293c
2120
2220
2620
283c
ENDCHAR
STARTCHAR 5008
ENCODING 20488
SWIDTH 520 0
DWIDTH 14 0
BBX 14 14 0 -4
BITMAP
1080
1080
2ffc
2080
6288
6690
e9b8
b084
21c0
22e0
26b0
2c98
308c
2080
ENDCHAR
STARTCHAR 5009
ENCODING 20489
SWIDTH 520 0
DWIDTH 14 0
BBX 14 14 0 -4
BITMAP
0100
0680
0940
7130
fffc
2010
3ff0
2010
3ff0
2000
7ff0
5010
9ff0
0000
ENDCHAR
STARTCHAR 500A
ENCODING 20490
SWIDTH 520 0
DWIDTH 14 0
BBX 14 14 0 -4
BITMAP
1040
1160
2220
2698
6d0c
6120
e210
a7f0
2088
2648
2a4c
2a14
3210
23e0
ENDCHAR
STARTCHAR 500B
ENCODING 20491
SWIDTH 520 0
DWIDTH 14 0
BBX 14 14 0 -4
BITMAP
1000
1ff8
2888
2888
6bf8
6888
e888
a9e8
2928
29e8
2928
2808
2ff8
2808
ENDCHAR
STARTCHAR 500C
ENCODING 20492
SWIDTH 520 0
DWIDTH 14 0
BBX 14 14 0 -4
BITMAP
0000
10c0
3ff8
2808
67f8
e408
a7f8
2400
27f8
2408
2408
27f8
2408
0000
ENDCHAR
STARTCHAR 500D
ENCODING 20493
SWIDTH 520 0
DWIDTH 14 0
BBX 14 14 0 -4
BITMAP
0000
1080
3040
2ffc
2218
6130
effc
a000
27f8
2408
2408
27f8
2408
0000
ENDCHAR
STARTCHAR 500E
ENCODING 20494
SWIDTH 520 0
DWIDTH 14 0
BBX 14 14 0 -4
BITMAP
1140
1140
2ff8
2948
6948
6948
eff8
a948
2948
2ffc
2000
2160
2638
2c0c
ENDCHAR
STARTCHAR 500F
ENCODING 20495
SWIDTH 520 0
DWIDTH 14 0
BBX 14 14 0 -4
BITMAP
0000
1080
31f8
2b18
2ca0
68f0
eb0c
a850
2848
2bfc
2840
21b8
260c
0000
ENDCHAR
STARTCHAR 5010
ENCODING 20496
SWIDTH 520 0
DWIDTH 14 0
BBX 14 14 0 -4
BITMAP
0000
1080
31f0
2b30
2ce0
69e0
ee1c
a840
2a48
2950
2960
20b0
2110
2608
ENDCHAR
STARTCHAR 5011
ENCODING 20497
SWIDTH 520 0
DWIDTH 14 0
BBX 14 14 0 -4
BITMAP
1000
1f78
2948
2948
6f78
6948
af78
a808
2808
2808
2808
2808
2808
2878
ENDCHAR
STARTCHAR 5012
ENCODING 20498
SWIDTH 520 0
DWIDTH 14 0
BBX 14 14 0 -4
BITMAP
0000
1008
1f88
2228
2528
6fa8
e268
a228
2fe8
2228
2208
2388
2e38
0000
ENDCHAR
STARTCHAR 5013
ENCODING 20499
SWIDTH 520 0
DWIDTH 14 0
BBX 14 14 0 -4
BITMAP
1080
1c98
26b0
2080
6160
6230
ec88
a888
2490
22a0
2140
2320
2610
380c
ENDCHAR
STARTCHAR 5014
ENCODING 20500
SWIDTH 520 0
DWIDTH 14 0
BBX 14 14 0 -4
BITMAP
0000
17f8
3408
27f8
2440
6550
e550
a5f0
2450
2648
2648
2bf8
2808
0000
ENDCHAR
STARTCHAR 5015
ENCODING 20501
SWIDTH 520 0
DWIDTH 14 0
BBX 14 14 0 -4
BITMAP
1000
1ff8
2080
2ffc
6490
6490
effc
a490
2490
2ffc
2080
2080
2ff8
2000
ENDCHAR
STARTCHAR 5016
ENCODING 20502
SWIDTH 520 0
DWIDTH 14 0
BBX 14 14 0 -4
BITMAP
1080
1080
27f8
2080
6080
6ffc
e310
affc
2080
2080
2ffc
2080
2080
2080
ENDCHAR
STARTCHAR 5017
ENCODING 20503
SWIDTH 520 0
DWIDTH 14 0
BBX 14 14 0 -4
BITMAP
1000
1f78
2948
2948
6948
6f78
a948
a948
2f78
2948
2948
2948
3188
37b8
ENDCHAR
STARTCHAR 5018
ENCODING 20504
SWIDTH 520 0
DWIDTH 14 0
BBX 14 14 0 -4
BITMAP
0000
1080
3498
22b0
2080
6ff8
e808
a9e8
2928
2928
29e8
2908
2878
0000
ENDCHAR
STARTCHAR 5019
ENCODING 20505
SWIDTH 520 0
DWIDTH 14 0
BBX 14 14 0 -4
BITMAP
0000
13f0
1010
2810
2ffc
6900
ebf8
aa40
2840
2bfc
2860
2190
260c
0000
ENDCHAR
STARTCHAR 501A
ENCODING 20506
SWIDTH 520 0
DWIDTH 14 0
BBX 14 14 0 -4
BITMAP
0000
1080
3ff0
21c0
2e30
6000
eff8
a010
2790
2490
2790
2410
20f0
0000
ENDCHAR
STARTCHAR 501B
ENCODING 20507
SWIDTH 520 0
DWIDTH 14 0
BBX 14 14 0 -4
BITMAP
1410
1410
2ffc
2410
6410
67f0
e410
a7f0
2410
2410
2ffc
2120
2618
2804
ENDCHAR
STARTCHAR 501C
ENCODING 20508
SWIDTH 520 0
DWIDTH 14 0
BBX 14 14 0 -4
BITMAP
0000
17f8
3488
25e8
2488
67f8
e408
a5e8
2528
2528
29e8
2908
3078
0000
ENDCHAR
STARTCHAR 501D
ENCODING 20509
SWIDTH 520 0
DWIDTH 14 0
BBX 14 14 0 -4
BITMAP
1040
1040
fe40
1040
7e40
4240
7e40
4240
7e60
52a0
10a0
ff90
1110
1208
ENDCHAR
STARTCHAR 501E
ENCODING 20510
SWIDTH 520 0
DWIDTH 14 0
BBX 14 14 0 -4
BITMAP
1080
1040
2ffc
2000
67f8
6408
e408
a408
27f8
2080
2290
2c88
3884
2380
ENDCHAR
STARTCHAR 501F
ENCODING 20511
SWIDTH 520 0
DWIDTH 14 0
BBX 14 14 0 -4
BITMAP
0000
1220
3220
2ff8
2220
6ff8
e000
a7f0
2410
27f0
2410
27f0
2410
0000
ENDCHAR
STARTCHAR 5020
ENCODING 20512
SWIDTH 520 0
DWIDTH 14 0
BBX 14 14 0 -4
BITMAP
0000
1240
3420
27fc
2c20
6c20
f7fc
a420
2420
27fc
2420
2420
27fc
2400
ENDCHAR
STARTCHAR 5021
ENCODING 20513
SWIDTH 520 0
DWIDTH 14 0
BBX 14 14 0 -4
BITMAP
1000
17f0
2410
27f0
6410
67f0
e000
a7f8
2408
2408
27f8
2408
27f8
2408
ENDCHAR
STARTCHAR 5022
ENCODING 20514
SWIDTH 520 0
DWIDTH 14 0
BBX 14 14 0 -4
BITMAP
0000
1080
3ffc
2080
27f8
6088
effc
a088
2ff8
2480
24f8
2e80
31fc
0000
ENDCHAR
STARTCHAR 5023
ENCODING 20515
SWIDTH 520 0
DWIDTH 14 0
BBX 14 14 0 -4
BITMAP
1420
1220
2260
2f7c
6448
64c8
e7c8
a548
2530
2530
2930
2930
2948
3784
ENDCHAR
STARTCHAR 5024
ENCODING 20516
SWIDTH 520 0
DWIDTH 14 0
BBX 14 14 0 -4
BITMAP
0000
1040
37fc
2040
23f8
6a08
ebf8
aa08
2bf8
2a08
2bf8
2800
2ffc
0000
ENDCHAR
STARTCHAR 5025
ENCODING 20517
SWIDTH 520 0
DWIDTH 14 0
BBX 14 14 0 -4
BITMAP
0000
1180
3ff8
2808
2948
6630
ec08
a000
27f8
2080
2080
2080
2ff8
0000
ENDCHAR
STARTCHAR 5026
ENCODING 20518
SWIDTH 520 0
DWIDTH 14 0
BBX 14 14 0 -4
BITMAP
0000
1488
1290
2ff8
2100
6ffc
e220
a7f0
3a2c
2220
22e8
2208
23f0
0000
ENDCHAR
STARTCHAR 5027
ENCODING 20519
SWIDTH 520 0
DWIDTH 14 0
BBX 14 14 0 -4
BITMAP
1080
1040
2ffc
2804
6800
67f8
e000
a000
2ffc
2080
2290
2c88
3884
2380
ENDCHAR
STARTCHAR 5028
ENCODING 20520
SWIDTH 520 0
DWIDTH 14 0
BBX 14 14 0 -4
BITMAP
0000
17f8
3408
27f8
2448
6440
e7fc
a440
27f8
2608
2a08
2bf8
3208
0000
ENDCHAR
STARTCHAR 5029
ENCODING 20521
SWIDTH 520 0
DWIDTH 14 0
BBX 14 14 0 -4
BITMAP
0000
1040
3ffc
2040
2ff8
6040
effc
a408
27f8
2408
27f8
2408
2478
0000
ENDCHAR
STARTCHAR 502A
ENCODING 20522
SWIDTH 520 0
DWIDTH 14 0
BBX 14 14 0 -4
BITMAP
0000
1180
3678
2408
27f8
6408
e408
a7f8
2548
2140
2344
2644
2c7c
0000
ENDCHAR
STARTCHAR 502B
ENCODING 20523
SWIDTH 520 0
DWIDTH 14 0
BBX 14 14 0 -4
BITMAP
1040
10a0
2120
2230
67f8
680c
eff8
a948
2948
2ff8
2948
2948
2948
2978
ENDCHAR
STARTCHAR 502C
ENCODING 20524
SWIDTH 520 0
DWIDTH 14 0
BBX 14 14 0 -4
BITMAP
0000
0880
10fc
1080
27f8
2408
67f8
e408
a7f8
2488
2080
2ffc
2080
0000
ENDCHAR
STARTCHAR 502D
ENCODING 20525
SWIDTH 520 0
DWIDTH 14 0
BBX 14 14 0 -4
BITMAP
0000
17f8
3040
27fc
20e0
6350
ec4c
a080
2ffc
2210
23a0
20f0
2f0c
0000
ENDCHAR
STARTCHAR 502E
ENCODING 20526
SWIDTH 520 0
DWIDTH 14 0
BBX 14 14 0 -4
BITMAP
0000
17f8
1488
27f8
2488
67f8
e488
a080
2ffc
21c0
22b0
2c8c
2080
0000
ENDCHAR
STARTCHAR 502F
ENCODING 20527
SWIDTH 520 0
DWIDTH 14 0
BBX 14 14 0 -4
BITMAP
1210
1250
2248
2f88
6288
67a4
a720
af60
2a50
3258
2248
2288
22fc
2204
ENDCHAR
STARTCHAR 5030
ENCODING 20528
SWIDTH 520 0
DWIDTH 14 0
BBX 14 14 0 -4
BITMAP
1080
1080
2ff8
2080
6ffc
6000
e630
ad0c
23f0
2610
2920
20c0
2330
2c0c
ENDCHAR
STARTCHAR 5031
ENCODING 20529
SWIDTH 520 0
DWIDTH 14 0
BBX 14 14 0 -4
BITMAP
1000
17f8
2408
27f8
6408
6408
e7f8
a000
2444
2758
2460
2544
2644
2478
ENDCHAR
STARTCHAR 5032
ENCODING 20530
SWIDTH 520 0
DWIDTH 14 0
BBX 14 14 0 -4
BITMAP
0000
1080
3ffc
2080
27f8
6488
e7f8
a488
27f8
21c0
22a0
2490
288c
2080
ENDCHAR
STARTCHAR 5033
ENCODING 20531
SWIDTH 520 0
DWIDTH 14 0
BBX 14 14 0 -4
BITMAP
1080
1ffc
2080
27f8
6488
67f8
e080
a7f8
2088
2ffc
2088
2ff8
2088
2380
ENDCHAR
STARTCHAR 5034
ENCODING 20532
SWIDTH 520 0
DWIDTH 14 0
BBX 14 14 0 -4
BITMAP
1080
1080
2ff8
2140
62a0
6490
ebe8
a080
2220
2ff8
2220
2220
2420
2820
ENDCHAR
STARTCHAR 5035
ENCODING 20533
SWIDTH 520 0
DWIDTH 14 0
BBX 14 14 0 -4
BITMAP
0000
1020
3fb8
2024
2020
6ffc
e120
a520
25e0
2520
2520
2514
25d4
2e0c
ENDCHAR
STARTCHAR 5036
ENCODING 20534
SWIDTH 520 0
DWIDTH 14 0
BBX 14 14 0 -4
BITMAP
1000
17f8
2408
27f8
6408
67f8
e408
a7f8
2000
2ffc
2120
2210
2408
2804
ENDCHAR
STARTCHAR 5037
ENCODING 20535
SWIDTH 520 0
DWIDTH 14 0
BBX 14 14 0 -4
BITMAP
1080
1080
2ffc
2120
6210
6608
ebf4
a000
27f8
2080
2290
2488
2884
3380
ENDCHAR
STARTCHAR 5038
ENCODING 20536
SWIDTH 520 0
DWIDTH 14 0
BBX 14 14 0 -4
BITMAP
101c
27e0
2084
24c8
6248
6210
a040
affc
20e0
2160
2350
2648
2c44
2040
ENDCHAR
STARTCHAR 5039
ENCODING 20537
SWIDTH 520 0
DWIDTH 14 0
BBX 14 14 0 -4
BITMAP
1080
1140
2320
2e18
7bfc
6080
eff8
a888
2888
2ff8
2988
2340
2630
380c
ENDCHAR
STARTCHAR 503A
ENCODING 20538
SWIDTH 520 0
DWIDTH 14 0
BBX 14 14 0 -4
BITMAP
0000
1040
37fc
2040
27f8
6040
effc
a7f8
2448
2448
2448
24b0
2318
2c04
ENDCHAR
STARTCHAR 503B
ENCODING 20539
SWIDTH 520 0
DWIDTH 14 0
BBX 14 14 0 -4
BITMAP
1000
1ff8
2948
2948
6f50
6950
a950
af48
2948
2948
2bc8
3d70
2140
2140
ENDCHAR
STARTCHAR 503C
ENCODING 20540
SWIDTH 520 0
DWIDTH 14 0
BBX 14 14 0 -4
BITMAP
0000
1040
3ffc
2040
27f8
6408
e7f8
a408
27f8
2408
27f8
2408
2ffc
0000
ENDCHAR
STARTCHAR 503D
ENCODING 20541
SWIDTH 520 0
DWIDTH 14 0
BBX 14 14 0 -4
BITMAP
1040
10a0
2320
2430
7bf8
6080
eff0
a080
2080
27f0
2410
2410
27f0
2410
ENDCHAR
STARTCHAR 503E
ENCODING 20542
SWIDTH 520 0
DWIDTH 14 0
BBX 14 14 0 -4
BITMAP
0000
1bfc
1840
29f8
2d08
6928
e928
a928
2b28
2d28
2850
2088
2304
0000
ENDCHAR
STARTCHAR 503F
ENCODING 20543
SWIDTH 520 0
DWIDTH 14 0
BBX 14 14 0 -4
BITMAP
1080
1040
2ff8
2210
6120
6ffc
e080
a100
2ffc
2210
2620
21c0
23b0
3c0c
ENDCHAR
STARTCHAR 5040
ENCODING 20544
SWIDTH 520 0
DWIDTH 14 0
BBX 14 14 0 -4
BITMAP
1220
1220
2ffc
2220
6080
67f8
e488
a488
2488
2ffc
20c0
2140
2230
2c0c
ENDCHAR
STARTCHAR 5041
ENCODING 20545
SWIDTH 520 0
DWIDTH 14 0
BBX 14 14 0 -4
BITMAP
0000
1ff8
3908
2488
2290
6080
e7f8
a488
27f8
2488
2ffc
2408
2408
24f8
ENDCHAR
STARTCHAR 5042
ENCODING 20546
SWIDTH 520 0
DWIDTH 14 0
BBX 14 14 0 -4
BITMAP
1410
1260
2ffc
2000
6fa8
68a8
e8a8
afa8
28a8
28a8
2fa8
28a8
2888
2fb8
ENDCHAR
STARTCHAR 5043
ENCODING 20547
SWIDTH 520 0
DWIDTH 14 0
BBX 14 14 0 -4
BITMAP
0000
17fc
3508
25f8
2508
65f8
e480
a7fc
2590
24e0
24f0
2708
27fc
0000
ENDCHAR
STARTCHAR 5044
ENCODING 20548
SWIDTH 520 0
DWIDTH 14 0
BBX 14 14 0 -4
BITMAP
1000
1ff8
2180
27f8
6528
6528
e528
a538
2080
2ffc
20c0
2120
2210
2c0c
ENDCHAR
STARTCHAR 5045
ENCODING 20549
SWIDTH 520 0
DWIDTH 14 0
BBX 14 14 0 -4
BITMAP
1000
1ff8
2080
2ffc
2080
6ff8
6888
aff8
a888
2ff8
2080
2ff8
2080
3ffc
ENDCHAR
STARTCHAR 5046
ENCODING 20550
SWIDTH 520 0
DWIDTH 14 0
BBX 14 14 0 -4
BITMAP
0000
1080
3ff8
2080
27f8
6080
effc
a220
27f0
3c1c
27f0
2410
27f0
2410
ENDCHAR
STARTCHAR 5047
ENCODING 20551
SWIDTH 520 0
DWIDTH 14 0
BBX 14 14 0 -4
BITMAP
0000
1f78
1908
2908
2f78
6908
e800
aff8
2848
2850
2f30
2870
298c
0000
ENDCHAR
STARTCHAR 5048
ENCODING 20552
SWIDTH 520 0
DWIDTH 14 0
BBX 14 14 0 -4
BITMAP
0000
17f0
3410
27f0
2410
67f0
e200
aff8
3d88
2768
2408
27e8
2070
0000
ENDCHAR
STARTCHAR 5049
ENCODING 20553
SWIDTH 520 0
DWIDTH 14 0
BBX 14 14 0 -4
BITMAP
1080
17f0
2110
2ffc
6000
67f8
e408
a7f8
2040
2ffc
2840
2ffc
2040
2040
ENDCHAR
STARTCHAR 504A
ENCODING 20554
SWIDTH 520 0
DWIDTH 14 0
BBX 14 14 0 -4
BITMAP
1000
1ff8
2080
2ff8
6888
6888
eff8
a080
2ff8
28a8
28b8
2bf8
2808
2878
ENDCHAR
STARTCHAR 504B
ENCODING 20555
SWIDTH 520 0
DWIDTH 14 0
BBX 14 14 0 -4
BITMAP
1000
1ff8
2808
2ff8
6b08
6990
eff8
a910
2910
2bf8
2910
2910
3110
3210
ENDCHAR
STARTCHAR 504C
ENCODING 20556
SWIDTH 520 0
DWIDTH 14 0
BBX 14 14 0 -4
BITMAP
1220
1220
2ff8
22a0
6080
6ff8
e100
a200
27f0
2a10
2210
23f0
2210
0000
ENDCHAR
STARTCHAR 504D
ENCODING 20557
SWIDTH 520 0
DWIDTH 14 0
BBX 14 14 0 -4
BITMAP
1000
17f8
2408
27f8
6408
67f8
e000
affc
2040
2478
2440
2b40
29fc
3000
ENDCHAR
STARTCHAR 504E
ENCODING 20558
SWIDTH 520 0
DWIDTH 14 0
BBX 14 14 0 -4
BITMAP
0000
17f8
3488
27f8
2488
67f8
e000
affc
2488
24d0
24e0
2730
260c
0000
ENDCHAR
STARTCHAR 504F
ENCODING 20559
SWIDTH 520 0
DWIDTH 14 0
BBX 14 14 0 -4
BITMAP
0000
10c0
3ff8
2808
2ff8
6800
ebf8
aaa8
2aa8
2bf8
2aa8
32a8
3238
0000
ENDCHAR
STARTCHAR 5050
ENCODING 20560
SWIDTH 520 0
DWIDTH 14 0
BBX 14 14 0 -4
BITMAP
1080
1040
27f8
2210
6120
67f8
e410
a4e0
2718
2460
2780
2418
28e0
2f00
ENDCHAR
STARTCHAR 5051
ENCODING 20561
SWIDTH 520 0
DWIDTH 14 0
BBX 14 14 0 -4
BITMAP
1000
1ff0
2810
2bf0
6890
6bf0
eab0
aab0
2bf0
2a90
28b4
37f4
300c
0000
ENDCHAR
STARTCHAR 5052
ENCODING 20562
SWIDTH 520 0
DWIDTH 14 0
BBX 14 14 0 -4
BITMAP
1000
17f0
2410
27f0
6410
67f0
e000
affc
2200
27f8
2928
2268
26c8
29b8
ENDCHAR
STARTCHAR 5053
ENCODING 20563
SWIDTH 520 0
DWIDTH 14 0
BBX 14 14 0 -4
BITMAP
1000
17f8
2408
27f8
6400
65f8
e460
a490
25f8
2440
25f8
2440
2bfc
2800
ENDCHAR
STARTCHAR 5054
ENCODING 20564
SWIDTH 520 0
DWIDTH 14 0
BBX 14 14 0 -4
BITMAP
1000
1f78
2948
2948
6f78
6000
e7f0
a000
2ffc
2400
27f0
2010
2010
21e0
ENDCHAR
STARTCHAR 5055
ENCODING 20565
SWIDTH 520 0
DWIDTH 14 0
BBX 14 14 0 -4
BITMAP
0000
1440
344c
2770
2444
6744
e778
a100
27f8
2408
27f8
2408
27f8
0000
ENDCHAR
STARTCHAR 5056
ENCODING 20566
SWIDTH 520 0
DWIDTH 14 0
BBX 14 14 0 -4
BITMAP
1080
1084
2fe8
2090
60a0
6ffc
e080
a1f8
2608
3a08
23f8
2208
23f8
2208
ENDCHAR
STARTCHAR 5057
ENCODING 20567
SWIDTH 520 0
DWIDTH 14 0
BBX 14 14 0 -4
BITMAP
0000
1080
32b0
2498
28b4
60c0
e3f8
bc08
27f8
2408
27f8
2408
27f8
2408
ENDCHAR
STARTCHAR 5058
ENCODING 20568
SWIDTH 520 0
DWIDTH 14 0
BBX 14 14 0 -4
BITMAP
1000
17f0
2410
2410
6410
67f0
e000
af78
2948
2948
2948
2948
2f78
2948
ENDCHAR
STARTCHAR 5059
ENCODING 20569
SWIDTH 520 0
DWIDTH 14 0
BBX 14 14 0 -4
BITMAP
0080
1040
1ffc
2210
2160
6ffc
e884
a080
27f8
2488
2488
2488
24b8
2080
ENDCHAR
STARTCHAR 505A
ENCODING 20570
SWIDTH 520 0
DWIDTH 14 0
BBX 14 14 0 -4
BITMAP
0000
1220
1220
2ffc
2248
62c8
e2c8
af50
2930
2930
2930
2f48
2884
0000
ENDCHAR
STARTCHAR 505B
ENCODING 20571
SWIDTH 520 0
DWIDTH 14 0
BBX 14 14 0 -4
BITMAP
1000
1ff8
2080
2080
6ffc
6680
ecb8
a888
2888
2eb8
2888
2888
2ff8
2808
ENDCHAR
STARTCHAR 505C
ENCODING 20572
SWIDTH 520 0
DWIDTH 14 0
BBX 14 14 0 -4
BITMAP
0000
10c0
1ffc
2000
27f0
6410
e7f0
a000
2ffc
2804
27f8
2040
23c0
0000
ENDCHAR
STARTCHAR 505D
ENCODING 20573
SWIDTH 520 0
DWIDTH 14 0
BBX 14 14 0 -4
BITMAP
1140
114c
2f70
2144
6f44
6178
e7f8
a408
2408
27f8
2408
27f8
2408
2478
ENDCHAR
STARTCHAR 505E
ENCODING 20574
SWIDTH 520 0
DWIDTH 14 0
BBX 14 14 0 -4
BITMAP
1510
1510
2ffc
2510
65f0
6400
e7f8
a080
2080
2ffc
22c0
24b0
388c
2080
ENDCHAR
STARTCHAR 505F
ENCODING 20575
SWIDTH 520 0
DWIDTH 14 0
BBX 14 14 0 -4
BITMAP
0000
1100
17f8
2408
27f8
6408
67f8
e000
a7f8
2080
27f8
2080
2080
2ffc
ENDCHAR
STARTCHAR 5060
ENCODING 20576
SWIDTH 520 0
DWIDTH 14 0
BBX 14 14 0 -4
BITMAP
1000
1ff8
2140
2ff8
6948
6948
aff8
a100
2ff8
2410
2620
21e0
21b0
2e08
ENDCHAR
STARTCHAR 5061
ENCODING 20577
SWIDTH 520 0
DWIDTH 14 0
BBX 14 14 0 -4
BITMAP
1200
1210
2ffc
2210
63f0
6210
e3f0
a210
2ffc
24a0
2510
2608
27fc
0000
ENDCHAR
STARTCHAR 5062
ENCODING 20578
SWIDTH 520 0
DWIDTH 14 0
BBX 14 14 0 -4
BITMAP
1000
1f20
2220
22a4
6fe4
6268
a728
a6a0
2ae0
2a50
3250
2248
2288
2284
ENDCHAR
STARTCHAR 5063
ENCODING 20579
SWIDTH 520 0
DWIDTH 14 0
BBX 14 14 0 -4
BITMAP
1080
1040
2ff8
2210
6120
6ffc
e000
a7f8
2408
2408
27f8
2408
27f8
2408
ENDCHAR
STARTCHAR 5064
ENCODING 20580
SWIDTH 520 0
DWIDTH 14 0
BBX 14 14 0 -4
BITMAP
1210
1160
2ffc
2140
6140
6ff8
e948
ab78
2e08
2808
2ff8
2808
2ff8
2808
ENDCHAR
STARTCHAR 5065
ENCODING 20581
SWIDTH 520 0
DWIDTH 14 0
BBX 14 14 0 -4
BITMAP
0000
1020
1ef8
2228
25fc
6828
eef8
a220
2bf8
2e20
25f8
2e20
39fc
0000
ENDCHAR
STARTCHAR 5066
ENCODING 20582
SWIDTH 520 0
DWIDTH 14 0
BBX 14 14 0 -4
BITMAP
1000
17f8
2488
24f8
6680
69f8
e800
a7f0
2410
27f0
2410
27f0
2410
2470
ENDCHAR
STARTCHAR 5067
ENCODING 20583
SWIDTH 520 0
DWIDTH 14 0
BBX 14 14 0 -4
BITMAP
1080
1080
2ff8
2120
6790
6ffc
e720
a140
23c0
2df8
2310
25a0
21c0
2e00
ENDCHAR
STARTCHAR 5068
ENCODING 20584
SWIDTH 520 0
DWIDTH 14 0
BBX 14 14 0 -4
BITMAP
1120
1524
25a8
2530
6524
65a4
ee3c
a080
2ffc
21c0
22a0
2c90
388c
2080
ENDCHAR
STARTCHAR 5069
ENCODING 20585
SWIDTH 520 0
DWIDTH 14 0
BBX 14 14 0 -4
BITMAP
0000
1100
33e0
2440
2ff8
6408
e7f8
a408
27f8
2408
2408
27f8
2360
2c1c
ENDCHAR
STARTCHAR 506A
ENCODING 20586
SWIDTH 520 0
DWIDTH 14 0
BBX 14 14 0 -4
BITMAP
1000
1ff8
2000
27f0
6410
67f0
e000
aff8
2888
2ff8
2888
2888
2ff8
2808
ENDCHAR
STARTCHAR 506B
ENCODING 20587
SWIDTH 520 0
DWIDTH 14 0
BBX 14 14 0 -4
BITMAP
1220
1420
25f8
2820
7220
65fc
a410
ac10
35fc
2510
2490
2450
2410
2470
ENDCHAR
STARTCHAR 506C
ENCODING 20588
SWIDTH 520 0
DWIDTH 14 0
BBX 14 14 0 -4
BITMAP
0000
1200
37f8
24a8
2bc8
63e8
e588
a278
2080
2648
2a5c
3214
23e0
0000
ENDCHAR
STARTCHAR 506D
ENCODING 20589
SWIDTH 520 0
DWIDTH 14 0
BBX 14 14 0 -4
BITMAP
1000
1ffc
2080
2080
67f8
6528
e5e8
a528
2528
25e8
2528
2528
27f8
2408
ENDCHAR
STARTCHAR 506E
ENCODING 20590
SWIDTH 520 0
DWIDTH 14 0
BBX 14 14 0 -4
BITMAP
1000
17f8
2408
27f8
6000
6ffc
e408
a7f8
2408
27f8
2408
2ffc
2008
0000
ENDCHAR
STARTCHAR 506F
ENCODING 20591
SWIDTH 520 0
DWIDTH 14 0
BBX 14 14 0 -4
BITMAP
1080
1040
2ffc
2000
67f8
6408
e408
a7f8
2184
2258
2e30
3a60
2398
220c
ENDCHAR
STARTCHAR 5070
ENCODING 20592
SWIDTH 520 0
DWIDTH 14 0
BBX 14 14 0 -4
BITMAP
1200
1ff8
2248
2248
6f48
6248
ef88
a2f0
2080
2ffc
20c0
2120
2210
2c0c
ENDCHAR
STARTCHAR 5071
ENCODING 20593
SWIDTH 520 0
DWIDTH 14 0
BBX 14 14 0 -4
BITMAP
1038
17c0
2440
27fc
6440
6440
e5f8
a508
25f8
2508
29f8
2908
29f8
3108
ENDCHAR
STARTCHAR 5072
ENCODING 20594
SWIDTH 520 0
DWIDTH 14 0
BBX 14 14 0 -4
BITMAP
1000
17f8
2488
2488
67f8
6488
e488
a7f8
2080
2648
2a4c
2a14
3210
23e0
ENDCHAR
STARTCHAR 5073
ENCODING 20595
SWIDTH 520 0
DWIDTH 14 0
BBX 14 14 0 -4
BITMAP
1080
1488
2488
27f8
6000
6ffc
e080
a100
27f8
2528
2528
2528
2528
2438
ENDCHAR
STARTCHAR 5074
ENCODING 20596
SWIDTH 520 0
DWIDTH 14 0
BBX 14 14 0 -4
BITMAP
1008
1f88
28a8
28a8
6fa8
68a8
e8a8
afa8
28a8
2fa8
28a8
2508
2888
30b8
ENDCHAR
STARTCHAR 5075
ENCODING 20597
SWIDTH 520 0
DWIDTH 14 0
BBX 14 14 0 -4
BITMAP
0000
1080
30fc
2080
27f8
6408
e7f8
a408
27f8
2408
27f8
2120
2618
2c04
ENDCHAR
STARTCHAR 5076
ENCODING 20598
SWIDTH 520 0
DWIDTH 14 0
BBX 14 14 0 -4
BITMAP
0000
17f8
3448
27f8
2448
67f8
e040
affc
2864
2864
2bf4
2824
283c
0000
ENDCHAR
STARTCHAR 5077
ENCODING 20599
SWIDTH 520 0
DWIDTH 14 0
BBX 14 14 0 -4
BITMAP
0000
1040
31a0
23f8
2c04
67a8
e4a8
a7a8
24a8
27a8
24a8
2488
27b8
0000
ENDCHAR
STARTCHAR 5078
ENCODING 20600
SWIDTH 520 0
DWIDTH 14 0
BBX 14 14 0 -4
BITMAP
0000
1080
30c0
2320
2ff8
7004
ef94
a8a8
2fa8
28d0
2fd0
28a8
28a8
2b94
ENDCHAR
STARTCHAR 5079
ENCODING 20601
SWIDTH 520 0
DWIDTH 14 0
BBX 14 14 0 -4
BITMAP
0000
1080
31f8
2b18
2ca0
68f0
ef1c
abf8
2a48
2a48
2bf8
2248
23f8
2208
ENDCHAR
STARTCHAR 507A
ENCODING 20602
SWIDTH 520 0
DWIDTH 14 0
BBX 14 14 0 -4
BITMAP
0000
1240
33c0
24f0
274c
6b40
e7fc
ac00
27f0
2410
27f0
2410
27f0
2410
ENDCHAR
STARTCHAR 507B
ENCODING 20603
SWIDTH 520 0
DWIDTH 14 0
BBX 14 14 0 -4
BITMAP
0000
1488
3290
27fc
21c0
62b0
ec8c
a100
2ffc
2410
2320
20e0
2f18
0000
ENDCHAR
STARTCHAR 507C
ENCODING 20604
SWIDTH 520 0
DWIDTH 14 0
BBX 14 14 0 -4
BITMAP
0000
1080
30f8
2080
2ff0
6010
e7f0
a010
2ff0
2480
24f0
2c80
2bf8
3000
ENDCHAR
STARTCHAR 507D
ENCODING 20605
SWIDTH 520 0
DWIDTH 14 0
BBX 14 14 0 -4
BITMAP
1480
1280
2300
2ff0
6110
6320
e3f8
a410
27f8
2808
32a8
2768
2908
20f0
ENDCHAR
STARTCHAR 507E
ENCODING 20606
SWIDTH 520 0
DWIDTH 14 0
BBX 14 14 0 -4
BITMAP
0000
1080
37f8
2080
2210
6ffc
e210
a7f8
2408
2488
2488
2170
2e0c
0000
ENDCHAR
STARTCHAR 507F
ENCODING 20607
SWIDTH 520 0
DWIDTH 14 0
BBX 14 14 0 -4
BITMAP
0000
1080
3490
22a0
2ff8
6808
e3e0
a000
2ff8
2120
2210
24f0
2f08
0000
ENDCHAR
STARTCHAR 5080
ENCODING 20608
SWIDTH 520 0
DWIDTH 14 0
BBX 14 14 0 -4
BITMAP
0000
1100
37f8
2488
27f8
6488
e7f8
a508
2390
22e8
26fc
2484
28f8
0000
ENDCHAR
STARTCHAR 5081
ENCODING 20609
SWIDTH 520 0
DWIDTH 14 0
BBX 14 14 0 -4
BITMAP
1000
1380
26b8
2488
67b8
6488
e7f8
a488
2080
27f8
2218
2120
21c0
3e3c
ENDCHAR
STARTCHAR 5082
ENCODING 20610
SWIDTH 520 0
DWIDTH 14 0
BBX 14 14 0 -4
BITMAP
0000
101c
3ff0
2840
287c
6840
ebfc
aa44
2bf0
2a48
2af8
2e94
3494
391c
ENDCHAR
STARTCHAR 5083
ENCODING 20611
SWIDTH 520 0
DWIDTH 14 0
BBX 14 14 0 -4
BITMAP
1040
1ffc
2040
27f8
6040
6ffc
e110
a7e0
2090
2308
2ffc
2250
2c48
33c4
ENDCHAR
STARTCHAR 5084
ENCODING 20612
SWIDTH 520 0
DWIDTH 14 0
BBX 14 14 0 -4
BITMAP
0000
1080
3ff8
28c8
2750
6630
fffc
a410
27f0
2410
27f0
2410
27f0
2410
ENDCHAR
STARTCHAR 5085
ENCODING 20613
SWIDTH 520 0
DWIDTH 14 0
BBX 14 14 0 -4
BITMAP
0000
10b0
3ffc
2488
27f8
6488
e7f8
a488
2488
2010
2ffc
2110
20f0
0000
ENDCHAR
STARTCHAR 5086
ENCODING 20614
SWIDTH 520 0
DWIDTH 14 0
BBX 14 14 0 -4
BITMAP
1000
17fc
2440
2480
65f8
6508
e5f8
a508
25f8
2440
2550
2648
2a48
2dc4
ENDCHAR
STARTCHAR 5087
ENCODING 20615
SWIDTH 520 0
DWIDTH 14 0
BBX 14 14 0 -4
BITMAP
1200
1220
2ff8
2220
6ff8
6410
e7f0
a410
2410
27f0
2410
2ff8
2010
0000
ENDCHAR
STARTCHAR 5088
ENCODING 20616
SWIDTH 520 0
DWIDTH 14 0
BBX 14 14 0 -4
BITMAP
0000
1ff8
3140
2ff8
2948
6948
eff8
a808
2080
2ffc
21c0
26b0
388c
0000
ENDCHAR
STARTCHAR 5089
ENCODING 20617
SWIDTH 520 0
DWIDTH 14 0
BBX 14 14 0 -4
BITMAP
1000
17f8
2400
27f8
6400
67fc
e578
a55c
2590
2610
2ffc
2a10
2910
30f0
ENDCHAR
STARTCHAR 508A
ENCODING 20618
SWIDTH 520 0
DWIDTH 14 0
BBX 14 14 0 -4
BITMAP
1000
17f8
2408
27f8
6000
67f8
e408
a7f8
2408
27f8
2408
27f8
2330
2c0c
ENDCHAR
STARTCHAR 508B
ENCODING 20619
SWIDTH 520 0
DWIDTH 14 0
BBX 14 14 0 -4
BITMAP
0000
1120
3ff8
2120
27f8
6120
effc
a448
27f8
2448
2ffc
2408
2408
2438
ENDCHAR
STARTCHAR 508C
ENCODING 20620
SWIDTH 520 0
DWIDTH 14 0
BBX 14 14 0 -4
BITMAP
1000
17f8
2440
27f8
6440
67f8
e440
a7f8
2008
26a8
2658
2a08
2070
0000
ENDCHAR
STARTCHAR 508D
ENCODING 20621
SWIDTH 520 0
DWIDTH 14 0
BBX 14 14 0 -4
BITMAP
1080
1080
2ff8
2220
6340
6ff8
a8c8
aff8
2200
2200
23f0
2610
2c10
39e0
ENDCHAR
STARTCHAR 508E
ENCODING 20622
SWIDTH 520 0
DWIDTH 14 0
BBX 14 14 0 -4
BITMAP
0000
1040
3ffc
2040
27f8
6408
e7f8
a408
27f8
2408
2ffc
2130
2618
2c04
ENDCHAR
STARTCHAR 508F
ENCODING 20623
SWIDTH 520 0
DWIDTH 14 0
BBX 14 14 0 -4
BITMAP
0000
1080
37fc
2440
25f8
6448
e7fc
a448
27f8
2440
27f8
2608
2a08
2bf8
ENDCHAR
STARTCHAR 5090
ENCODING 20624
SWIDTH 520 0
DWIDTH 14 0
BBX 14 14 0 -4
BITMAP
0080
1040
3ff8
2000
27f0
6410
e7f0
a000
2ff8
2808
29e8
2928
29e8
2838
ENDCHAR
STARTCHAR 5091
ENCODING 20625
SWIDTH 520 0
DWIDTH 14 0
BBX 14 14 0 -4
BITMAP
1200
1610
2778
2950
7750
627c
a410
a890
2ff8
21c0
22a0
2c90
388c
2080
ENDCHAR
STARTCHAR 5092
ENCODING 20626
SWIDTH 520 0
DWIDTH 14 0
BBX 14 14 0 -4
BITMAP
1078
1f80
2488
2470
6700
6630
efc0
a230
2ff8
2080
3ff8
21c0
2660
3818
ENDCHAR
STARTCHAR 5093
ENCODING 20627
SWIDTH 520 0
DWIDTH 14 0
BBX 14 14 0 -4
BITMAP
0000
10c0
37f8
2408
27f8
6400
e7b8
a6a8
25a8
25a8
2db8
2ac8
2888
31f8
ENDCHAR
STARTCHAR 5094
ENCODING 20628
SWIDTH 520 0
DWIDTH 14 0
BBX 14 14 0 -4
BITMAP
1210
1120
2ffc
2140
67f8
6148
effc
a148
27f8
2368
2560
2d58
3144
2140
ENDCHAR
STARTCHAR 5095
ENCODING 20629
SWIDTH 520 0
DWIDTH 14 0
BBX 14 14 0 -4
BITMAP
1080
1080
2ff8
2948
6220
63f8
e440
aff8
3440
2440
27f8
2440
27f8
2400
ENDCHAR
STARTCHAR 5096
ENCODING 20630
SWIDTH 520 0
DWIDTH 14 0
BBX 14 14 0 -4
BITMAP
0840
10a0
1350
2c78
3ffc
6408
e7f8
a408
27f8
2400
2bf8
2a08
33f8
2208
ENDCHAR
STARTCHAR 5097
ENCODING 20631
SWIDTH 520 0
DWIDTH 14 0
BBX 14 14 0 -4
BITMAP
0000
10c0
3ffc
2118
2fe0
6190
e608
affc
27f8
2448
27f8
2448
27f8
2408
ENDCHAR
STARTCHAR 5098
ENCODING 20632
SWIDTH 520 0
DWIDTH 14 0
BBX 14 14 0 -4
BITMAP
0000
0300
0cc0
3130
c93c
1d60
6b98
1920
3570
6388
fffc
0100
0100
0000
ENDCHAR
STARTCHAR 5099
ENCODING 20633
SWIDTH 520 0
DWIDTH 14 0
BBX 14 14 0 -4
BITMAP
1200
1220
2ffc
2220
2ffc
6200
67f8
a448
ac48
37f8
2448
27f8
2448
2458
ENDCHAR
STARTCHAR 509A
ENCODING 20634
SWIDTH 520 0
DWIDTH 14 0
BBX 14 14 0 -4
BITMAP
0000
1420
1220
2fbc
2468
6b68
e8e8
b128
2928
2610
2610
2628
2948
3084
ENDCHAR
STARTCHAR 509B
ENCODING 20635
SWIDTH 520 0
DWIDTH 14 0
BBX 14 14 0 -4
BITMAP
1080
1040
2ff8
2828
6910
6288
e5c0
a320
2618
2ffc
2410
2410
27f0
2410
ENDCHAR
STARTCHAR 509C
ENCODING 20636
SWIDTH 520 0
DWIDTH 14 0
BBX 14 14 0 -4
BITMAP
1038
2fc0
2488
2450
6200
67f8
a480
a880
2ffc
2080
2488
2488
27f8
2008
ENDCHAR
STARTCHAR 509D
ENCODING 20637
SWIDTH 520 0
DWIDTH 14 0
BBX 14 14 0 -4
BITMAP
1000
17f0
2410
27f0
6410
67f0
e000
af78
2948
2528
2338
2dc8
3108
2f78
ENDCHAR
STARTCHAR 509E
ENCODING 20638
SWIDTH 520 0
DWIDTH 14 0
BBX 14 14 0 -4
BITMAP
1210
1120
2ffc
2100
67f8
6100
effc
a200
2400
27f8
2840
3040
27fc
2000
ENDCHAR
STARTCHAR 509F
ENCODING 20639
SWIDTH 520 0
DWIDTH 14 0
BBX 14 14 0 -4
BITMAP
1140
1220
2490
294c
6220
67e0
e010
af78
2d48
2728
2338
2dc8
3108
2778
ENDCHAR
STARTCHAR 50A0
ENCODING 20640
SWIDTH 520 0
DWIDTH 14 0
BBX 14 14 0 -4
BITMAP
0000
1208
1108
2ffc
2008
6f08
e048
af28
2018
2f08
2908
2908
2f08
2978
ENDCHAR
STARTCHAR 50A1
ENCODING 20641
SWIDTH 520 0
DWIDTH 14 0
BBX 14 14 0 -4
BITMAP
1420
1630
2210
3f78
6000
6948
e948
a948
2a30
2a30
2230
2310
3cf8
2000
ENDCHAR
STARTCHAR 50A2
ENCODING 20642
SWIDTH 520 0
DWIDTH 14 0
BBX 14 14 0 -4
BITMAP
1080
1040
2ff8
2808
6808
6ff8
e300
ac98
21b0
2260
2dd0
2358
2c4c
21c0
ENDCHAR
STARTCHAR 50A3
ENCODING 20643
SWIDTH 520 0
DWIDTH 14 0
BBX 14 14 0 -4
BITMAP
0000
1080
3ffc
2080
27f8
6100
effc
a630
3ebc
21e0
23f0
2c9c
2380
0000
ENDCHAR
STARTCHAR 50A4
ENCODING 20644
SWIDTH 520 0
DWIDTH 14 0
BBX 14 14 0 -4
BITMAP
1220
1238
2fac
2220
7ffc
6420
efa8
a828
2a30
2fb0
2224
2fa4
2254
2288
ENDCHAR
STARTCHAR 50A5
ENCODING 20645
SWIDTH 520 0
DWIDTH 14 0
BBX 14 14 0 -4
BITMAP
0000
1698
33b0
2ffc
2804
67f8
e408
a408
27f8
2120
2124
2224
2c3c
0000
ENDCHAR
STARTCHAR 50A6
ENCODING 20646
SWIDTH 520 0
DWIDTH 14 0
BBX 14 14 0 -4
BITMAP
1000
17f8
2408
27c8
6448
6ffc
e804
a7f8
2408
27f8
2408
27f8
2408
2478
ENDCHAR
STARTCHAR 50A7
ENCODING 20647
SWIDTH 520 0
DWIDTH 14 0
BBX 14 14 0 -4
BITMAP
0000
10c0
1ff8
2808
27f0
6400
e7f0
a440
2440
2ff8
2240
2430
2808
0000
ENDCHAR
STARTCHAR 50A8
ENCODING 20648
SWIDTH 520 0
DWIDTH 14 0
BBX 14 14 0 -4
BITMAP
0000
1840
15e4
2448
2070
7ffc
e440
a4f8
2788
24f8
2688
26f8
2488
0000
ENDCHAR
STARTCHAR 50A9
ENCODING 20649
SWIDTH 520 0
DWIDTH 14 0
BBX 14 14 0 -4
BITMAP
0000
1060
1e90
22fc
3290
6b90
edfc
a490
24fc
2a90
2a90
39fc
3080
0000
ENDCHAR
STARTCHAR 50AA
ENCODING 20650
SWIDTH 520 0
DWIDTH 14 0
BBX 14 14 0 -4
BITMAP
1080
1140
2630
2ff8
6578
6ffc
e180
a760
399c
2660
2188
2e30
21c0
2e00
ENDCHAR
STARTCHAR 50AB
ENCODING 20651
SWIDTH 520 0
DWIDTH 14 0
BBX 14 14 0 -4
BITMAP
1000
17f8
2488
27f8
2488
67f8
6130
a7e0
a1a0
2610
2ff8
22a0
2c90
3388
ENDCHAR
STARTCHAR 50AC
ENCODING 20652
SWIDTH 520 0
DWIDTH 14 0
BBX 14 14 0 -4
BITMAP
0000
1448
3448
27f8
2248
6460
e7fc
ac40
37fc
2440
27fc
2440
27fc
0000
ENDCHAR
STARTCHAR 50AD
ENCODING 20653
SWIDTH 520 0
DWIDTH 14 0
BBX 14 14 0 -4
BITMAP
10c0
1ffc
2840
2bf8
6bfc
6848
abf8
a840
2bf8
2a48
2bf8
2bf8
3248
3278
ENDCHAR
STARTCHAR 50AE
ENCODING 20654
SWIDTH 520 0
DWIDTH 14 0
BBX 14 14 0 -4
BITMAP
0000
1120
3ffc
2120
2ff8
6ff8
e928
aff8
2000
27f0
27f0
2410
27f0
2410
ENDCHAR
STARTCHAR 50AF
ENCODING 20655
SWIDTH 520 0
DWIDTH 14 0
BBX 14 14 0 -4
BITMAP
0000
1100
37f8
2488
25e8
67e8
e4c8
a728
27f8
2088
2648
2e5c
2a14
23e0
ENDCHAR
STARTCHAR 50B0
ENCODING 20656
SWIDTH 520 0
DWIDTH 14 0
BBX 14 14 0 -4
BITMAP
0000
1080
1488
27f8
2000
6778
6548
e778
a548
2548
2778
2948
29c8
37b8
ENDCHAR
STARTCHAR 50B1
ENCODING 20657
SWIDTH 520 0
DWIDTH 14 0
BBX 14 14 0 -4
BITMAP
0000
1248
1448
2858
32b8
64a4
e500
ac20
34bc
24a0
24a0
25a0
267c
0000
ENDCHAR
STARTCHAR 50B2
ENCODING 20658
SWIDTH 520 0
DWIDTH 14 0
BBX 14 14 0 -4
BITMAP
0000
1220
1fa0
223c
2fc8
6248
efc8
a428
27b0
24b0
2c90
28a8
33c4
0000
ENDCHAR
STARTCHAR 50B3
ENCODING 20659
SWIDTH 520 0
DWIDTH 14 0
BBX 14 14 0 -4
BITMAP
1080
1ffc
2080
27f8
6488
67f8
a488
a7f8
2ffc
2010
2ffc
2210
2110
2070
ENDCHAR
STARTCHAR 50B4
ENCODING 20660
SWIDTH 520 0
DWIDTH 14 0
BBX 14 14 0 -4
BITMAP
1000
17f8
2400
25f0
6510
6510
e5f0
a400
27b8
26a8
27b8
26a8
2400
27f8
ENDCHAR
STARTCHAR 50B5
ENCODING 20661
SWIDTH 520 0
DWIDTH 14 0
BBX 14 14 0 -4
BITMAP
1080
1ffc
2080
27f8
6ffc
6000
e7f8
a408
27f8
27f8
2408
27f8
2330
2c0c
ENDCHAR
STARTCHAR 50B6
ENCODING 20662
SWIDTH 520 0
DWIDTH 14 0
BBX 14 14 0 -4
BITMAP
0000
1030
1028
2ff8
2920
69a8
6928
a928
aff0
2930
2bb4
2b74
3534
3348
ENDCHAR
STARTCHAR 50B7
ENCODING 20663
SWIDTH 520 0
DWIDTH 14 0
BBX 14 14 0 -4
BITMAP
1200
17fc
2400
2ff0
67f0
6410
e7f0
a000
3ffc
27f8
2928
3268
26c8
29b8
ENDCHAR
STARTCHAR 50B8
ENCODING 20664
SWIDTH 520 0
DWIDTH 14 0
BBX 14 14 0 -4
BITMAP
1080
1080
2ff8
2080
6ae8
64b0
aac8
aac8
24b0
2ac8
2140
2320
2630
3818
ENDCHAR
STARTCHAR 50B9
ENCODING 20665
SWIDTH 520 0
DWIDTH 14 0
BBX 14 14 0 -4
BITMAP
0000
10c0
17f8
2210
2120
6ffc
67f8
a408
a7f8
2408
27f8
2124
2224
2c3c
ENDCHAR
STARTCHAR 50BA
ENCODING 20666
SWIDTH 520 0
DWIDTH 14 0
BBX 14 14 0 -4
BITMAP
0000
1440
3ff8
2ac8
3930
7620
e7f0
ac08
27f0
2080
22a0
2490
2988
0000
ENDCHAR
STARTCHAR 50BB
ENCODING 20667
SWIDTH 520 0
DWIDTH 14 0
BBX 14 14 0 -4
BITMAP
0000
1100
37f8
2728
24c8
6728
e7f8
a630
390c
27f0
2f20
20c0
2f3c
0000
ENDCHAR
STARTCHAR 50BC
ENCODING 20668
SWIDTH 520 0
DWIDTH 14 0
BBX 14 14 0 -4
BITMAP
1210
1ff8
2210
23f0
6080
67f8
e488
a7f8
2080
27f8
2080
3ffc
2140
3e3c
ENDCHAR
STARTCHAR 50BD
ENCODING 20669
SWIDTH 520 0
DWIDTH 14 0
BBX 14 14 0 -4
BITMAP
0080
1040
17fc
2110
2ffc
6000
e7f8
a7f8
2408
27f8
2080
2ffc
2080
2080
ENDCHAR
STARTCHAR 50BE
ENCODING 20670
SWIDTH 520 0
DWIDTH 14 0
BBX 14 14 0 -4
BITMAP
1800
1bfc
2840
29f8
6f08
6908
a9f8
a908
29f8
2908
2bf8
2d08
2198
230c
ENDCHAR
STARTCHAR 50BF
ENCODING 20671
SWIDTH 520 0
DWIDTH 14 0
BBX 14 14 0 -4
BITMAP
1000
17f8
2080
24f0
6480
6ff8
a400
a7f8
2400
27f8
2128
2da8
2a88
21f0
ENDCHAR
STARTCHAR 50C0
ENCODING 20672
SWIDTH 520 0
DWIDTH 14 0
BBX 14 14 0 -4
BITMAP
0000
1350
1ffc
2354
25d4
681c
effc
a884
2884
27f8
2488
2488
24b8
2080
ENDCHAR
STARTCHAR 50C1
ENCODING 20673
SWIDTH 520 0
DWIDTH 14 0
BBX 14 14 0 -4
BITMAP
1000
1ff8
2658
2170
6ffc
60e0
e150
a648
2904
20c0
2628
261c
2a14
23e0
ENDCHAR
STARTCHAR 50C2
ENCODING 20674
SWIDTH 520 0
DWIDTH 14 0
BBX 14 14 0 -4
BITMAP
0000
1080
17f8
2488
2ffc
67f8
e080
a7f8
27f8
2100
2ffc
2210
21e0
2f1c
ENDCHAR
STARTCHAR 50C3
ENCODING 20675
SWIDTH 520 0
DWIDTH 14 0
BBX 14 14 0 -4
BITMAP
0000
1120
3ffc
2200
27f8
6408
efe8
b528
27e8
2528
27e8
2568
2008
20f0
ENDCHAR
STARTCHAR 50C4
ENCODING 20676
SWIDTH 520 0
DWIDTH 14 0
BBX 14 14 0 -4
BITMAP
1000
1ff8
2140
2ff8
6948
6948
aff8
a000
27f0
2000
27fc
22a0
2498
2b84
ENDCHAR
STARTCHAR 50C5
ENCODING 20677
SWIDTH 520 0
DWIDTH 14 0
BBX 14 14 0 -4
BITMAP
0000
1210
1ffc
2210
23f0
6080
67f8
a488
a7f8
27f8
2080
27f8
2080
2ffc
ENDCHAR
STARTCHAR 50C6
ENCODING 20678
SWIDTH 520 0
DWIDTH 14 0
BBX 14 14 0 -4
BITMAP
0000
1840
17f8
2440
21f8
6148
6df8
a548
a5f8
2440
25fc
2440
2e00
33fc
ENDCHAR
STARTCHAR 50C7
ENCODING 20679
SWIDTH 520 0
DWIDTH 14 0
BBX 14 14 0 -4
BITMAP
1000
1f78
2548
2328
6738
6948
e1c0
a670
398c
2660
2198
2e70
2180
2e00
ENDCHAR
STARTCHAR 50C8
ENCODING 20680
SWIDTH 520 0
DWIDTH 14 0
BBX 14 14 0 -4
BITMAP
1000
17f0
27f0
2410
67f0
6000
eff8
a948
2ff8
27f0
2430
23c0
23c0
2c38
ENDCHAR
STARTCHAR 50C9
ENCODING 20681
SWIDTH 520 0
DWIDTH 14 0
BBX 14 14 0 -4
BITMAP
0000
0100
0680
0c40
3ff0
c00c
3cf0
2490
2490
3cf0
0840
1cc0
33b0
6308
ENDCHAR
STARTCHAR 50CA
ENCODING 20682
SWIDTH 520 0
DWIDTH 14 0
BBX 14 14 0 -4
BITMAP
1000
1ff8
2140
2ff8
6948
6ff8
a080
bff8
2220
27f8
3c10
27f8
2408
27f0
ENDCHAR
STARTCHAR 50CB
ENCODING 20683
SWIDTH 520 0
DWIDTH 14 0
BBX 14 14 0 -4
BITMAP
0000
1040
31a0
2358
2fe4
6040
e7f8
a408
27f8
27f8
2408
27f8
2330
2c0c
ENDCHAR
STARTCHAR 50CC
ENCODING 20684
SWIDTH 520 0
DWIDTH 14 0
BBX 14 14 0 -4
BITMAP
0000
1220
3fa0
223c
2fe8
6ae8
efe8
aaa8
2aa8
2f98
2210
2f98
2228
2244
ENDCHAR
STARTCHAR 50CD
ENCODING 20685
SWIDTH 520 0
DWIDTH 14 0
BBX 14 14 0 -4
BITMAP
0000
1fa0
1220
2ff8
2fa8
6aa8
efa8
aaa8
2fa8
2228
2fc8
2248
2fc8
20b8
ENDCHAR
STARTCHAR 50CE
ENCODING 20686
SWIDTH 520 0
DWIDTH 14 0
BBX 14 14 0 -4
BITMAP
0000
1f78
1948
2f78
2840
68c4
6ffc
e220
affc
2220
2220
2ffc
2360
2c1c
ENDCHAR
STARTCHAR 50CF
ENCODING 20687
SWIDTH 520 0
DWIDTH 14 0
BBX 14 14 0 -4
BITMAP
0000
1300
33e0
2460
2ff8
6448
e7f8
a188
2ed0
2370
2ce8
2324
2dc0
0000
ENDCHAR
STARTCHAR 50D0
ENCODING 20688
SWIDTH 520 0
DWIDTH 14 0
BBX 14 14 0 -4
BITMAP
1210
1120
2ffc
2080
67f8
6ffc
a498
a290
2ffc
2000
27f8
2408
27f8
2408
ENDCHAR
STARTCHAR 50D1
ENCODING 20689
SWIDTH 520 0
DWIDTH 14 0
BBX 14 14 0 -4
BITMAP
1000
1ff8
2100
2ffc
6330
67fc
bbf0
a000
2ff8
2808
2be8
2a28
2be8
2878
ENDCHAR
STARTCHAR 50D2
ENCODING 20690
SWIDTH 520 0
DWIDTH 14 0
BBX 14 14 0 -4
BITMAP
0000
10c0
3ffc
2b34
2c0c
67f8
e108
affc
27f8
2200
27f8
2a08
23f8
2208
ENDCHAR
STARTCHAR 50D3
ENCODING 20691
SWIDTH 520 0
DWIDTH 14 0
BBX 14 14 0 -4
BITMAP
1080
17f8
2488
27f8
6ffc
6000
e7f8
a408
27f8
27f8
2408
27f8
2330
2c0c
ENDCHAR
STARTCHAR 50D4
ENCODING 20692
SWIDTH 520 0
DWIDTH 14 0
BBX 14 14 0 -4
BITMAP
0210
1120
3ffc
2120
27f8
6738
e408
a7f8
27f8
2010
2ffc
2610
2310
20f0
ENDCHAR
STARTCHAR 50D5
ENCODING 20693
SWIDTH 520 0
DWIDTH 14 0
BBX 14 14 0 -4
BITMAP
0000
1928
3528
2530
2ffc
6110
e7f8
a080
27f8
2080
2ffc
2080
2360
2c1c
ENDCHAR
STARTCHAR 50D6
ENCODING 20694
SWIDTH 520 0
DWIDTH 14 0
BBX 14 14 0 -4
BITMAP
0000
1080
3ffc
2080
2ff8
6408
e7f8
a120
2ffc
2000
27f8
2408
27f8
0000
ENDCHAR
STARTCHAR 50D7
ENCODING 20695
SWIDTH 520 0
DWIDTH 14 0
BBX 14 14 0 -4
BITMAP
1210
1ab4
2738
2210
6528
68c4
effc
a884
2080
27f8
2088
2088
2308
2638
ENDCHAR
STARTCHAR 50D8
ENCODING 20696
SWIDTH 520 0
DWIDTH 14 0
BBX 14 14 0 -4
BITMAP
1220
1aa0
27c0
273c
6268
6fe8
e8e8
afa8
2da8
2d98
2d90
2f98
28a8
28c4
ENDCHAR
STARTCHAR 50D9
ENCODING 20697
SWIDTH 520 0
DWIDTH 14 0
BBX 14 14 0 -4
BITMAP
0000
1120
3ff8
2120
2ffc
6080
e7f8
a488
27f8
2488
27f8
2008
2360
2c1c
ENDCHAR
STARTCHAR 50DA
ENCODING 20698
SWIDTH 520 0
DWIDTH 14 0
BBX 14 14 0 -4
BITMAP
0000
1080
3ff8
25d8
2320
6ffc
e410
a7f0
2410
27f0
24a0
2890
3388
0000
ENDCHAR
STARTCHAR 50DB
ENCODING 20699
SWIDTH 520 0
DWIDTH 14 0
BBX 14 14 0 -4
BITMAP
1920
1920
2ffc
2944
6f9c
6998
e910
af10
2910
3ff0
2528
28a8
28c8
3084
ENDCHAR
STARTCHAR 50DC
ENCODING 20700
SWIDTH 520 0
DWIDTH 14 0
BBX 14 14 0 -4
BITMAP
1090
1f60
2948
2630
6ff0
780c
e7f0
a410
2410
27f0
2220
2140
2ff8
2000
ENDCHAR
STARTCHAR 50DD
ENCODING 20701
SWIDTH 520 0
DWIDTH 14 0
BBX 14 14 0 -4
BITMAP
1000
17fc
2404
27fc
65f8
6410
e5fc
a420
24c0
27dc
2c4c
2bfc
2888
33b8
ENDCHAR
STARTCHAR 50DE
ENCODING 20702
SWIDTH 520 0
DWIDTH 14 0
BBX 14 14 0 -4
BITMAP
0000
17fc
1488
2250
27f0
6410
e410
a7f8
2408
27fc
2814
2b54
34a4
201c
ENDCHAR
STARTCHAR 50DF
ENCODING 20703
SWIDTH 520 0
DWIDTH 14 0
BBX 14 14 0 -4
BITMAP
0000
1250
1460
2964
2e78
6558
6b7c
ed64
a450
2ffc
2454
2764
2864
3198
ENDCHAR
STARTCHAR 50E0
ENCODING 20704
SWIDTH 520 0
DWIDTH 14 0
BBX 14 14 0 -4
BITMAP
1000
1ff8
2488
2290
6ffc
61a0
e690
b88c
27f8
2448
27f8
2448
27f8
2408
ENDCHAR
STARTCHAR 50E1
ENCODING 20705
SWIDTH 520 0
DWIDTH 14 0
BBX 14 14 0 -4
BITMAP
0000
1080
1ffc
2080
27f8
67f8
6488
e7f8
a098
2ffc
2b88
3a5c
3214
23e0
ENDCHAR
STARTCHAR 50E2
ENCODING 20706
SWIDTH 520 0
DWIDTH 14 0
BBX 14 14 0 -4
BITMAP
1078
1f80
2488
2250
6ffc
6804
a210
a7fc
2490
2cb0
237c
2310
2610
2810
ENDCHAR
STARTCHAR 50E3
ENCODING 20707
SWIDTH 520 0
DWIDTH 14 0
BBX 14 14 0 -4
BITMAP
0000
1220
1ff8
2240
2f7c
6220
e550
b88c
27f0
2410
27f0
2410
27f0
2410
ENDCHAR
STARTCHAR 50E4
ENCODING 20708
SWIDTH 520 0
DWIDTH 14 0
BBX 14 14 0 -4
BITMAP
1000
1f78
2948
2f78
6000
67f0
a490
a7f0
2490
27f0
2080
2ff8
2080
2080
ENDCHAR
STARTCHAR 50E5
ENCODING 20709
SWIDTH 520 0
DWIDTH 14 0
BBX 14 14 0 -4
BITMAP
0000
1080
17f8
2080
2ffc
6210
6ffc
a210
affc
2000
2ffc
2124
2224
2c38
ENDCHAR
STARTCHAR 50E6
ENCODING 20710
SWIDTH 520 0
DWIDTH 14 0
BBX 14 14 0 -4
BITMAP
0000
1420
1238
2fa4
207c
6fa0
e8b0
a8b0
2fb0
2254
2bd4
32d4
2e9c
0000
ENDCHAR
STARTCHAR 50E7
ENCODING 20711
SWIDTH 520 0
DWIDTH 14 0
BBX 14 14 0 -4
BITMAP
0000
1330
3ff8
2a98
69a8
eff8
a000
27f0
2410
27f0
2410
27f0
2410
0000
ENDCHAR
STARTCHAR 50E8
ENCODING 20712
SWIDTH 520 0
DWIDTH 14 0
BBX 14 14 0 -4
BITMAP
1080
17f8
2290
2ffc
6210
67f8
e408
a7f8
2408
27f8
2408
27f8
2330
2c0c
ENDCHAR
STARTCHAR 50E9
ENCODING 20713
SWIDTH 520 0
DWIDTH 14 0
BBX 14 14 0 -4
BITMAP
1000
1f78
2948
2f78
6948
6f78
ebe8
aa28
2be8
2a28
2be8
2e28
2ce8
2818
ENDCHAR
STARTCHAR 50EA
ENCODING 20714
SWIDTH 520 0
DWIDTH 14 0
BBX 14 14 0 -4
BITMAP
1000
17f0
2320
20c0
67f8
61d0
a7c0
aff8
2948
2a28
2ff8
2a28
2be8
2838
ENDCHAR
STARTCHAR 50EB
ENCODING 20715
SWIDTH 520 0
DWIDTH 14 0
BBX 14 14 0 -4
BITMAP
1000
1ff8
2120
2738
6408
6408
e738
a120
2ffc
2280
2648
2a54
3214
23e0
ENDCHAR
STARTCHAR 50EC
ENCODING 20716
SWIDTH 520 0
DWIDTH 14 0
BBX 14 14 0 -4
BITMAP
0000
1240
3620
2ffc
2c40
77f8
e440
a7f8
2440
27fc
2400
2548
28a4
0000
ENDCHAR
STARTCHAR 50ED
ENCODING 20717
SWIDTH 520 0
DWIDTH 14 0
BBX 14 14 0 -4
BITMAP
0000
1f78
3a50
2ff8
2220
6534
e5dc
a880
27f8
2408
27f8
2408
27f8
0000
ENDCHAR
STARTCHAR 50EE
ENCODING 20718
SWIDTH 520 0
DWIDTH 14 0
BBX 14 14 0 -4
BITMAP
10c0
17fc
2110
2120
6ffc
6488
a7f8
a488
27f8
2080
27f8
2080
2ffc
0000
ENDCHAR
STARTCHAR 50EF
ENCODING 20719
SWIDTH 520 0
DWIDTH 14 0
BBX 14 14 0 -4
BITMAP
1448
1250
2160
27fc
60e0
6350
ee4c
a610
277c
2930
3550
227c
2410
2810
ENDCHAR
STARTCHAR 50F0
ENCODING 20720
SWIDTH 520 0
DWIDTH 14 0
BBX 14 14 0 -4
BITMAP
0000
1020
7dfc
1020
7cf8
54a8
7cb8
5c68
92a4
1320
0380
04c0
1820
e01c
ENDCHAR
STARTCHAR 50F1
ENCODING 20721
SWIDTH 520 0
DWIDTH 14 0
BBX 14 14 0 -4
BITMAP
0000
1080
1ff8
2808
2ff8
6940
6a20
ebfc
ae20
2ffc
2a20
2bfc
3220
33fc
ENDCHAR
STARTCHAR 50F2
ENCODING 20722
SWIDTH 520 0
DWIDTH 14 0
BBX 14 14 0 -4
BITMAP
1000
1ffc
2140
2ff8
6948
6ff8
e800
a410
2ffc
2950
3590
22fc
2410
2810
ENDCHAR
STARTCHAR 50F3
ENCODING 20723
SWIDTH 520 0
DWIDTH 14 0
BBX 14 14 0 -4
BITMAP
0000
1ff8
3140
2ff8
2948
6948
eff8
a490
22e0
3ffc
21c0
26b0
388c
0000
ENDCHAR
STARTCHAR 50F4
ENCODING 20724
SWIDTH 520 0
DWIDTH 14 0
BBX 14 14 0 -4
BITMAP
1000
1f78
2948
2f78
6948
6f78
e808
abe8
2a28
2be8
2a28
2be8
2a08
2838
ENDCHAR
STARTCHAR 50F5
ENCODING 20725
SWIDTH 520 0
DWIDTH 14 0
BBX 14 14 0 -4
BITMAP
0000
1ffc
3488
27f8
2488
67f8
e408
a000
2ffc
2488
27f8
2488
2ffc
0000
ENDCHAR
STARTCHAR 50F6
ENCODING 20726
SWIDTH 520 0
DWIDTH 14 0
BBX 14 14 0 -4
BITMAP
1000
1ff8
2948
2f78
6948
6140
ef78
a948
2f78
2948
2f78
2944
2144
21f8
ENDCHAR
STARTCHAR 50F7
ENCODING 20727
SWIDTH 520 0
DWIDTH 14 0
BBX 14 14 0 -4
BITMAP
0000
1220
1ffc
2220
2ffc
6510
e5f0
a400
27f8
2ffc
21c0
22b0
2c8c
0000
ENDCHAR
STARTCHAR 50F8
ENCODING 20728
SWIDTH 520 0
DWIDTH 14 0
BBX 14 14 0 -4
BITMAP
1220
1220
2ff8
2360
67b0
6b28
a000
a7f0
2000
2ff0
2080
22a0
2c90
3388
ENDCHAR
STARTCHAR 50F9
ENCODING 20729
SWIDTH 520 0
DWIDTH 14 0
BBX 14 14 0 -4
BITMAP
1000
1ff8
2140
2ff8
6948
6ff8
e7f0
a410
27f0
27f0
2410
27f0
2360
2c18
ENDCHAR
STARTCHAR 50FA
ENCODING 20730
SWIDTH 520 0
DWIDTH 14 0
BBX 14 14 0 -4
BITMAP
1000
17f0
2410
27f0
6000
6f78
e948
af78
2080
3ffc
22c0
24b0
388c
2080
ENDCHAR
STARTCHAR 50FB
ENCODING 20731
SWIDTH 520 0
DWIDTH 14 0
BBX 14 14 0 -4
BITMAP
0000
1f10
1978
2948
2f70
6930
e8f8
af20
2d20
35f8
3520
3720
2520
0000
ENDCHAR
STARTCHAR 50FC
ENCODING 20732
SWIDTH 520 0
DWIDTH 14 0
BBX 14 14 0 -4
BITMAP
0000
1140
1ff8
2948
2ff8
6948
6ff8
effc
a000
27f8
2408
27f8
2330
2ffc
ENDCHAR
STARTCHAR 50FD
ENCODING 20733
SWIDTH 520 0
DWIDTH 14 0
BBX 14 14 0 -4
BITMAP
0000
1f20
12a4
2264
2f68
6260
e750
aa88
3304
2088
2658
2654
2a14
23e0
ENDCHAR
STARTCHAR 50FE
ENCODING 20734
SWIDTH 520 0
DWIDTH 14 0
BBX 14 14 0 -4
BITMAP
0000
1ffc
3488
2250
2ffc
68d0
e618
abe4
2100
23f0
2630
29e0
21c0
3e3c
ENDCHAR
STARTCHAR 50FF
ENCODING 20735
SWIDTH 520 0
DWIDTH 14 0
BBX 14 14 0 -4
BITMAP
0000
10c0
3ff8
2a28
2ff8
6220
e7f0
bffc
2220
2cb0
37ec
2080
2ff8
0000
ENDCHAR
STARTCHAR 5100
ENCODING 20736
SWIDTH 520 0
DWIDTH 14 0
BBX 14 14 0 -4
BITMAP
1210
1120
2ffc
2080
67f8
6080
effc
a230
2ffc
2220
23a8
2e30
2274
2e9c
ENDCHAR
STARTCHAR 5101
ENCODING 20737
SWIDTH 520 0
DWIDTH 14 0
BBX 14 14 0 -4
BITMAP
1280
1440
27f8
2c40
6ff8
7440
e7f8
a7f8
2000
2f38
2928
29e8
2808
2818
ENDCHAR
STARTCHAR 5102
ENCODING 20738
SWIDTH 520 0
DWIDTH 14 0
BBX 14 14 0 -4
BITMAP
1140
17f8
2548
27f8
6548
67f8
e400
a7f8
2400
27fc
2648
2a30
2a50
338c
ENDCHAR
STARTCHAR 5103
ENCODING 20739
SWIDTH 520 0
DWIDTH 14 0
BBX 14 14 0 -4
BITMAP
0000
10c0
1ffc
27f8
2408
65e8
65e8
e7f8
a000
27f8
27f8
2408
27f8
2ffc
ENDCHAR
STARTCHAR 5104
ENCODING 20740
SWIDTH 520 0
DWIDTH 14 0
BBX 14 14 0 -4
BITMAP
0000
1080
17f8
2110
2ffc
6000
67f8
e408
a7f8
27f8
2480
2e58
3a14
23e0
ENDCHAR
STARTCHAR 5105
ENCODING 20741
SWIDTH 520 0
DWIDTH 14 0
BBX 14 14 0 -4
BITMAP
0000
1648
3150
2ffc
2804
6bf4
e210
a3f0
27f8
2448
27f8
2448
27f8
2408
ENDCHAR
STARTCHAR 5106
ENCODING 20742
SWIDTH 520 0
DWIDTH 14 0
BBX 14 14 0 -4
BITMAP
0000
1520
1fa0
253c
2848
6f48
f128
bf38
2b30
2b30
2f30
2948
2784
0000
ENDCHAR
STARTCHAR 5107
ENCODING 20743
SWIDTH 520 0
DWIDTH 14 0
BBX 14 14 0 -4
BITMAP
0000
17f8
3528
27f8
2000
6ffc
a000
a7f8
2408
27f8
2348
3e30
23cc
0000
ENDCHAR
STARTCHAR 5108
ENCODING 20744
SWIDTH 520 0
DWIDTH 14 0
BBX 14 14 0 -4
BITMAP
1040
10a0
2330
27f8
380c
6ff8
6a98
a9a8
aff8
2808
27f8
27f8
2408
27f8
ENDCHAR
STARTCHAR 5109
ENCODING 20745
SWIDTH 520 0
DWIDTH 14 0
BBX 14 14 0 -4
BITMAP
0000
10c0
3160
2230
2ff8
780c
ef78
a948
2948
2f78
2000
2210
25b8
38c4
ENDCHAR
STARTCHAR 510A
ENCODING 20746
SWIDTH 520 0
DWIDTH 14 0
BBX 14 14 0 -4
BITMAP
1200
1210
27fc
2738
66dc
6a94
a000
a7fc
244c
247c
2c40
2b40
31fc
0000
ENDCHAR
STARTCHAR 510B
ENCODING 20747
SWIDTH 520 0
DWIDTH 14 0
BBX 14 14 0 -4
BITMAP
0100
13e0
3c20
3ffc
6908
ea64
affc
2800
2bf8
2800
2bf8
3208
33f8
0000
ENDCHAR
STARTCHAR 510C
ENCODING 20748
SWIDTH 520 0
DWIDTH 14 0
BBX 14 14 0 -4
BITMAP
0200
1220
1fa0
28bc
2fe8
68e8
e768
a228
3ff0
2410
2790
2ca8
28a8
3344
ENDCHAR
STARTCHAR 510D
ENCODING 20749
SWIDTH 520 0
DWIDTH 14 0
BBX 14 14 0 -4
BITMAP
1080
12a0
2ff8
29c8
6ea8
6ff8
e220
ad10
3308
27f0
2e30
2140
21e0
2e1c
ENDCHAR
STARTCHAR 510E
ENCODING 20750
SWIDTH 520 0
DWIDTH 14 0
BBX 14 14 0 -4
BITMAP
0000
1238
1fe4
2220
3ffc
6220
6fa4
afa4
aaa8
2fa8
2f90
2294
2ff4
224c
ENDCHAR
STARTCHAR 510F
ENCODING 20751
SWIDTH 520 0
DWIDTH 14 0
BBX 14 14 0 -4
BITMAP
1100
11bc
2504
2fa8
7498
6318
e624
bc48
2250
3ffc
20e0
2350
3c4c
2040
ENDCHAR
STARTCHAR 5110
ENCODING 20752
SWIDTH 520 0
DWIDTH 14 0
BBX 14 14 0 -4
BITMAP
0000
10c0
3ffc
2804
2bf4
6348
ec70
a1f8
2ff8
2408
27f8
27f8
2330
2c0c
ENDCHAR
STARTCHAR 5111
ENCODING 20753
SWIDTH 520 0
DWIDTH 14 0
BBX 14 14 0 -4
BITMAP
1000
17f8
2408
27f8
67f8
6210
a4a4
af78
2210
2568
2ffc
2648
256c
2924
ENDCHAR
STARTCHAR 5112
ENCODING 20754
SWIDTH 520 0
DWIDTH 14 0
BBX 14 14 0 -4
BITMAP
0000
1ff8
3080
2ff8
2888
6ff8
e000
aff8
2080
2ff8
2948
2948
2978
0000
ENDCHAR
STARTCHAR 5113
ENCODING 20755
SWIDTH 520 0
DWIDTH 14 0
BBX 14 14 0 -4
BITMAP
1080
1ffc
2080
2ff8
6408
6ffc
a804
affc
2320
27f0
2088
2ff8
2080
2ffc
ENDCHAR
STARTCHAR 5114
ENCODING 20756
SWIDTH 520 0
DWIDTH 14 0
BBX 14 14 0 -4
BITMAP
1080
1ff8
2080
27f8
6ff8
6008
e7f8
aff0
2000
2ff8
2ff8
2950
2f30
2030
ENDCHAR
STARTCHAR 5115
ENCODING 20757
SWIDTH 520 0
DWIDTH 14 0
BBX 14 14 0 -4
BITMAP
0000
10c0
3ff8
2158
2ef0
66b0
e6a8
aeb8
24a0
27f0
2410
27f0
2c10
2810
ENDCHAR
STARTCHAR 5116
ENCODING 20758
SWIDTH 520 0
DWIDTH 14 0
BBX 14 14 0 -4
BITMAP
1000
1fa0
2a20
2fb8
28c0
6fd0
6ac8
aa08
af80
27f8
2548
2548
2548
2ff8
ENDCHAR
STARTCHAR 5117
ENCODING 20759
SWIDTH 520 0
DWIDTH 14 0
BBX 14 14 0 -4
BITMAP
1800
19f8
2f08
2950
6e30
68f8
ae28
b4a8
24a0
3fb8
24a0
26a0
2960
3138
ENDCHAR
STARTCHAR 5118
ENCODING 20760
SWIDTH 520 0
DWIDTH 14 0
BBX 14 14 0 -4
BITMAP
1080
17f8
2088
2ffc
6088
67f8
e080
affc
2548
28a4
27f8
2528
2528
2ffc
ENDCHAR
STARTCHAR 5119
ENCODING 20761
SWIDTH 520 0
DWIDTH 14 0
BBX 14 14 0 -4
BITMAP
1840
1bf8
2648
27f8
6040
6ff8
a508
a5f8
2500
25f8
2508
2df8
2a00
31f8
ENDCHAR
STARTCHAR 511A
ENCODING 20762
SWIDTH 520 0
DWIDTH 14 0
BBX 14 14 0 -4
BITMAP
1120
1ffc
2120
2ffc
6924
6ffc
a000
affc
2904
27f8
2e18
21e0
21c0
2e00
ENDCHAR
STARTCHAR 511B
ENCODING 20763
SWIDTH 520 0
DWIDTH 14 0
BBX 14 14 0 -4
BITMAP
1400
1ffc
2d50
2550
67fc
6550
affc
a410
2ffc
2950
3690
22fc
2c10
3810
ENDCHAR
STARTCHAR 511C
ENCODING 20764
SWIDTH 520 0
DWIDTH 14 0
BBX 14 14 0 -4
BITMAP
0000
10c0
3ffc
29d4
2778
69e4
eff8
ad28
2d28
2ffc
2ffc
2040
2040
23c0
ENDCHAR
STARTCHAR 511D
ENCODING 20765
SWIDTH 520 0
DWIDTH 14 0
BBX 14 14 0 -4
BITMAP
0000
1210
3ab4
2718
2528
68c4
effc
a884
2080
2ffc
21c0
26b0
388c
2080
ENDCHAR
STARTCHAR 511E
ENCODING 20766
SWIDTH 520 0
DWIDTH 14 0
BBX 14 14 0 -4
BITMAP
1000
1ffc
22b0
2c8c
6ff8
6d98
abd8
aaa8
2dd8
2dd8
2aa8
2dd8
2888
28b8
ENDCHAR
STARTCHAR 511F
ENCODING 20767
SWIDTH 520 0
DWIDTH 14 0
BBX 14 14 0 -4
BITMAP
1498
12b0
2ffc
2804
6bf4
63f0
a7f8
a408
27f8
2408
27f8
27f8
2330
2c0c
ENDCHAR
STARTCHAR 5120
ENCODING 20768
SWIDTH 520 0
DWIDTH 14 0
BBX 14 14 0 -4
BITMAP
0000
1258
1da0
26d8
2ff8
6b28
ebe8
aff8
2000
2af0
2cd0
2ab4
2ab4
2ccc
ENDCHAR
STARTCHAR 5121
ENCODING 20769
SWIDTH 520 0
DWIDTH 14 0
BBX 14 14 0 -4
BITMAP
0000
1ff8
2888
2ff8
4888
cff8
c000
5f7c
5554
5f7c
5554
5f7c
5144
0000
ENDCHAR
STARTCHAR 5122
ENCODING 20770
SWIDTH 520 0
DWIDTH 14 0
BBX 14 14 0 -4
BITMAP
1080
10f8
2080
2ffc
6ff8
68f8
a800
abf8
2bf8
2a48
2bf8
2b58
373c
35e4
ENDCHAR
STARTCHAR 5123
ENCODING 20771
SWIDTH 520 0
DWIDTH 14 0
BBX 14 14 0 -4
BITMAP
0000
10c0
3ffc
2910
2ff8
6910
effc
abf8
2a48
2bf8
2a48
2bf8
31b0
360c
ENDCHAR
STARTCHAR 5124
ENCODING 20772
SWIDTH 520 0
DWIDTH 14 0
BBX 14 14 0 -4
BITMAP
1000
17f8
2408
27f8
67f8
6120
aff8
a120
3ffc
22a0
27f0
3bec
2c98
2380
ENDCHAR
STARTCHAR 5125
ENCODING 20773
SWIDTH 520 0
DWIDTH 14 0
BBX 14 14 0 -4
BITMAP
1080
1ff8
2080
27f8
6000
6ff8
e948
aff8
2410
27f0
2410
27f0
2370
2c1c
ENDCHAR
STARTCHAR 5126
ENCODING 20774
SWIDTH 520 0
DWIDTH 14 0
BBX 14 14 0 -4
BITMAP
0000
10c0
3ffc
2920
2ff8
6928
eff8
aa28
2bfc
2a24
2ab8
2b28
333c
3494
ENDCHAR
STARTCHAR 5127
ENCODING 20775
SWIDTH 520 0
DWIDTH 14 0
BBX 14 14 0 -4
BITMAP
1210
1738
2210
2ffc
6330
6ccc
e7f8
a408
27f8
27f8
2408
27f8
2330
2c0c
ENDCHAR
STARTCHAR 5128
ENCODING 20776
SWIDTH 520 0
DWIDTH 14 0
BBX 14 14 0 -4
BITMAP
1318
1e60
2840
2f7c
6a50
7290
eff8
a808
2ff8
2ff8
2808
2ff8
2370
2c0c
ENDCHAR
STARTCHAR 5129
ENCODING 20777
SWIDTH 520 0
DWIDTH 14 0
BBX 14 14 0 -4
BITMAP
1000
1ef8
2a88
2af8
6e88
6af8
ae80
abf8
2b58
2f58
2aa8
2b28
3148
31b8
ENDCHAR
STARTCHAR 512A
ENCODING 20778
SWIDTH 520 0
DWIDTH 14 0
BBX 14 14 0 -4
BITMAP
1000
1ffc
2080
27f8
6408
67f8
e408
affc
29c8
2514
2bf8
2510
28e0
3f1c
ENDCHAR
STARTCHAR 512B
ENCODING 20779
SWIDTH 520 0
DWIDTH 14 0
BBX 14 14 0 -4
BITMAP
10c0
1ffc
27f0
2410
67f0
6000
effc
abf4
21c8
26d0
2370
2ca8
2324
2dc0
ENDCHAR
STARTCHAR 512C
ENCODING 20780
SWIDTH 520 0
DWIDTH 14 0
BBX 14 14 0 -4
BITMAP
1200
1278
2f48
2f48
6278
6fc8
a078
af48
2948
2f78
2930
2f3c
297c
2bd8
ENDCHAR
STARTCHAR 512D
ENCODING 20781
SWIDTH 520 0
DWIDTH 14 0
BBX 14 14 0 -4
BITMAP
1400
1278
2f48
2948
6678
6fc8
a478
a448
2f48
2478
2d50
3cd4
34dc
2d98
ENDCHAR
STARTCHAR 512E
ENCODING 20782
SWIDTH 520 0
DWIDTH 14 0
BBX 14 14 0 -4
BITMAP
1000
1ffc
2800
2bb8
6910
6ffc
ab90
adf8
2d94
2840
2978
2940
37fc
3000
ENDCHAR
STARTCHAR 512F
ENCODING 20783
SWIDTH 520 0
DWIDTH 14 0
BBX 14 14 0 -4
BITMAP
0000
1490
1290
2ff8
2080
7ffc
63e0
a490
bffc
27f0
27f8
26c8
2968
2070
ENDCHAR
STARTCHAR 5130
ENCODING 20784
SWIDTH 520 0
DWIDTH 14 0
BBX 14 14 0 -4
BITMAP
1120
1ffc
2000
2ff8
6488
6250
a7f8
a408
27f8
2408
27fc
2ed4
2c6c
301c
ENDCHAR
STARTCHAR 5131
ENCODING 20785
SWIDTH 520 0
DWIDTH 14 0
BBX 14 14 0 -4
BITMAP
1240
1f7c
2940
267c
6f84
607c
af40
a97c
2f40
297c
2f40
297c
2944
2b7c
ENDCHAR
STARTCHAR 5132
ENCODING 20786
SWIDTH 520 0
DWIDTH 14 0
BBX 14 14 0 -4
BITMAP
1420
1224
2f78
2028
6e30
60fc
a020
aef8
21c8
2e78
2a48
2a48
2e78
2a48
ENDCHAR
STARTCHAR 5133
ENCODING 20787
SWIDTH 520 0
DWIDTH 14 0
BBX 14 14 0 -4
BITMAP
1300
17e0
2ff8
2408
67f8
6778
e544
a678
27e0
2ff8
2488
27f8
21f4
2e78
ENDCHAR
STARTCHAR 5134
ENCODING 20788
SWIDTH 520 0
DWIDTH 14 0
BBX 14 14 0 -4
BITMAP
1080
1ffc
2000
2f78
6948
6ff8
a220
aff8
2220
3ffc
2180
2658
3db0
260c
ENDCHAR
STARTCHAR 5135
ENCODING 20789
SWIDTH 520 0
DWIDTH 14 0
BBX 14 14 0 -4
BITMAP
1080
11fc
2a88
2c70
2f9c
2bfc
6b54
6ad4
2bfc
2bfc
2840
27fc
22a8
2454
ENDCHAR
STARTCHAR 5136
ENCODING 20790
SWIDTH 520 0
DWIDTH 14 0
BBX 14 14 0 -4
BITMAP
0000
1488
17f8
2240
2ff8
7ff8
67f8
e440
a7f8
2ff8
2928
2bf8
29e8
2838
ENDCHAR
STARTCHAR 5137
ENCODING 20791
SWIDTH 520 0
DWIDTH 14 0
BBX 14 14 0 -4
BITMAP
1000
1f7c
2f78
2d68
6b58
60c0
affc
aff8
2948
2ff8
2a40
2bfc
32c4
3378
ENDCHAR
STARTCHAR 5138
ENCODING 20792
SWIDTH 520 0
DWIDTH 14 0
BBX 14 14 0 -4
BITMAP
1000
1ff8
2948
2ff8
2450
6990
72fc
be90
a6fc
2a90
2f90
20fc
2d90
2dfc
ENDCHAR
STARTCHAR 5139
ENCODING 20793
SWIDTH 520 0
DWIDTH 14 0
BBX 14 14 0 -4
BITMAP
0000
1650
17f8
2a50
2ffc
65ac
6b4c
eff8
aff8
2808
2ff8
2ff8
2360
3c1c
ENDCHAR
STARTCHAR 513A
ENCODING 20794
SWIDTH 520 0
DWIDTH 14 0
BBX 14 14 0 -4
BITMAP
0000
1930
1fc8
293c
2f48
2248
7ffc
72c8
3fc8
3ffc
2248
3fc8
267c
39c0
ENDCHAR
STARTCHAR 513B
ENCODING 20795
SWIDTH 520 0
DWIDTH 14 0
BBX 14 14 0 -4
BITMAP
1488
1698
2ffc
2ffc
6408
67f8
effc
ab5c
2ffc
2040
2ffc
2ffc
2548
28a4
ENDCHAR
STARTCHAR 513C
ENCODING 20796
SWIDTH 520 0
DWIDTH 14 0
BBX 14 14 0 -4
BITMAP
1000
1ff8
28c8
2ff8
6ffc
6810
ab90
abbc
2aa8
2be8
2b98
2a90
33a8
36c4
ENDCHAR
STARTCHAR 513D
ENCODING 20797
SWIDTH 520 0
DWIDTH 14 0
BBX 14 14 0 -4
BITMAP
1000
17f8
27f8
27f8
2000
6ffc
6ffc
affc
a1d8
27f0
2108
27fc
2358
3dc4
ENDCHAR
STARTCHAR 513E
ENCODING 20798
SWIDTH 520 0
DWIDTH 14 0
BBX 14 14 0 -4
BITMAP
1080
1ffc
27f8
27f8
6ffc
6804
af7c
a778
2ffc
2ff8
2ffc
2348
3ef0
230c
ENDCHAR
STARTCHAR 513F
ENCODING 20799
SWIDTH 520 0
DWIDTH 14 0
BBX 14 14 0 -4
BITMAP
0000
0880
0880
0880
0880
0880
0880
0880
0884
1084
3084
6084
c0f8
0000
ENDCHAR
STARTCHAR 5140
ENCODING 20800
SWIDTH 520 0
DWIDTH 14 0
BBX 14 14 0 -4
BITMAP
0000
fffc
0880
0880
0880
0880
0880
0880
0880
1084
3084
6084
c0f8
0000
ENDCHAR
STARTCHAR 5141
ENCODING 20801
SWIDTH 520 0
DWIDTH 14 0
BBX 14 14 0 -4
BITMAP
0000
0200
0400
0840
3030
7ff8
0884
0880
0880
1084
1084
2084
c0f8
0000
ENDCHAR
STARTCHAR 5142
ENCODING 20802
SWIDTH 520 0
DWIDTH 14 0
BBX 14 14 0 -4
BITMAP
0200
0200
3ff8
0200
2200
4200
7ffc
0280
0280
0484
0484
1884
30f8
c000
ENDCHAR
STARTCHAR 5143
ENCODING 20803
SWIDTH 520 0
DWIDTH 14 0
BBX 14 14 0 -4
BITMAP
0000
3ff8
0000
0000
0000
fffc
0880
0880
0880
1884
1084
6084
c0f8
0000
ENDCHAR
STARTCHAR 5144
ENCODING 20804
SWIDTH 520 0
DWIDTH 14 0
BBX 14 14 0 -4
BITMAP
0000
3ff0
2010
2010
2010
2010
3ff0
2490
0480
0484
0884
3084
c0f8
0000
ENDCHAR
STARTCHAR 5145
ENCODING 20805
SWIDTH 520 0
DWIDTH 14 0
BBX 14 14 0 -4
BITMAP
0000
0200
0380
7ffc
0200
0420
0810
3ff8
0448
0440
0844
1844
607c
0000
ENDCHAR
STARTCHAR 5146
ENCODING 20806
SWIDTH 520 0
DWIDTH 14 0
BBX 14 14 0 -4
BITMAP
0000
0900
0900
c908
6910
1920
0900
39e0
c918
1900
1104
6104
c1f8
0000
ENDCHAR
STARTCHAR 5147
ENCODING 20807
SWIDTH 520 0
DWIDTH 14 0
BBX 14 14 0 -4
BITMAP
0000
5040
4888
4708
4708
58c8
6068
4008
7ff8
0880
0880
1084
2084
c0f8
ENDCHAR
STARTCHAR 5148
ENCODING 20808
SWIDTH 520 0
DWIDTH 14 0
BBX 14 14 0 -4
BITMAP
0000
1100
1100
3ff8
2100
4100
0100
7ffc
0480
0480
0884
3084
c0fc
0000
ENDCHAR
STARTCHAR 5149
ENCODING 20809
SWIDTH 520 0
DWIDTH 14 0
BBX 14 14 0 -4
BITMAP
0000
0200
6208
3230
0a60
0200
fffc
0880
0880
0884
1084
2084
c0f8
0000
ENDCHAR
STARTCHAR 514A
ENCODING 20810
SWIDTH 520 0
DWIDTH 14 0
BBX 14 14 0 -4
BITMAP
0000
0480
0840
3030
c10c
06c0
0830
1ff8
0480
0480
0484
0884
1084
60f8
ENDCHAR
STARTCHAR 514B
ENCODING 20811
SWIDTH 520 0
DWIDTH 14 0
BBX 14 14 0 -4
BITMAP
0000
0100
fffc
0100
3ff0
2010
2010
3ff0
2490
0484
0884
1084
e0f8
0000
ENDCHAR
STARTCHAR 514C
ENCODING 20812
SWIDTH 520 0
DWIDTH 14 0
BBX 14 14 0 -4
BITMAP
0280
0440
0820
3010
fffc
2010
2010
2010
3ff0
2480
0484
0c84
1884
60f8
ENDCHAR
STARTCHAR 514D
ENCODING 20813
SWIDTH 520 0
DWIDTH 14 0
BBX 14 14 0 -4
BITMAP
0000
0400
0fe0
1040
7ff0
a110
2110
3ff0
2210
0504
0d04
1104
61f8
0000
ENDCHAR
STARTCHAR 514E
ENCODING 20814
SWIDTH 520 0
DWIDTH 14 0
BBX 14 14 0 -4
BITMAP
0000
7ff8
0100
0100
3ff0
2110
2110
2210
3ff0
2210
0524
0914
3104
c1f8
ENDCHAR
STARTCHAR 514F
ENCODING 20815
SWIDTH 520 0
DWIDTH 14 0
BBX 14 14 0 -4
BITMAP
003c
3fc0
2080
2080
20f8
2080
2080
3ffc
2240
2240
2244
2444
5844
7078
ENDCHAR
STARTCHAR 5150
ENCODING 20816
SWIDTH 520 0
DWIDTH 14 0
BBX 14 14 0 -4
BITMAP
0000
47f8
4408
4408
47f8
4408
47f8
4008
0480
0480
0c84
0884
3084
c0f8
ENDCHAR
STARTCHAR 5151
ENCODING 20817
SWIDTH 520 0
DWIDTH 14 0
BBX 14 14 0 -4
BITMAP
0000
0820
04c0
3ff0
2010
2010
2010
3ff0
2490
0480
0884
1884
60f8
0000
ENDCHAR
STARTCHAR 5152
ENCODING 20818
SWIDTH 520 0
DWIDTH 14 0
BBX 14 14 0 -4
BITMAP
0600
38f8
2008
2008
3ef8
2008
2008
3ff8
2488
0480
0480
0884
1084
60f8
ENDCHAR
STARTCHAR 5153
ENCODING 20819
SWIDTH 520 0
DWIDTH 14 0
BBX 14 14 0 -4
BITMAP
0000
fefc
1040
50c0
50c0
9140
fdfc
1040
1860
1ae0
2aa0
6d24
4b24
863c
ENDCHAR
STARTCHAR 5154
ENCODING 20820
SWIDTH 520 0
DWIDTH 14 0
BBX 14 14 0 -4
BITMAP
0000
0400
0fe0
1040
7ff0
a110
2110
3ff0
2210
0520
0d14
1104
61f8
0000
ENDCHAR
STARTCHAR 5155
ENCODING 20821
SWIDTH 520 0
DWIDTH 14 0
BBX 14 14 0 -4
BITMAP
0000
7cf8
4488
4488
4788
4008
4008
7ff8
4488
0480
0884
3084
c0f8
0000
ENDCHAR
STARTCHAR 5156
ENCODING 20822
SWIDTH 520 0
DWIDTH 14 0
BBX 14 14 0 -4
BITMAP
0000
0300
7ff8
0440
1830
6208
04c0
0830
1ff8
0480
0484
0884
70f8
0000
ENDCHAR
STARTCHAR 5157
ENCODING 20823
SWIDTH 520 0
DWIDTH 14 0
BBX 14 14 0 -4
BITMAP
0000
0300
fffc
0c60
3018
c004
3ff0
2010
2010
3ff0
0484
0484
1884
e0f8
ENDCHAR
STARTCHAR 5158
ENCODING 20824
SWIDTH 520 0
DWIDTH 14 0
BBX 14 14 0 -4
BITMAP
0040
7ca0
0090
0110
7ff8
2808
29f0
2910
2910
2914
29f4
2804
4ff8
4000
ENDCHAR
STARTCHAR 5159
ENCODING 20825
SWIDTH 520 0
DWIDTH 14 0
BBX 14 14 0 -4
BITMAP
1020
1020
7e20
1020
7e20
43fc
4220
7e20
2420
2424
2424
4404
47f8
8000
ENDCHAR
STARTCHAR 515A
ENCODING 20826
SWIDTH 520 0
DWIDTH 14 0
BBX 14 14 0 -4
BITMAP
0000
3130
1960
7ff8
4008
5fe8
1020
1020
1fe0
0480
0484
1884
60f8
0000
ENDCHAR
STARTCHAR 515B
ENCODING 20827
SWIDTH 520 0
DWIDTH 14 0
BBX 14 14 0 -4
BITMAP
1000
11fc
7e20
1020
7e20
43fc
4220
7e20
2420
2424
2424
4404
47f8
8000
ENDCHAR
STARTCHAR 515C
ENCODING 20828
SWIDTH 520 0
DWIDTH 14 0
BBX 14 14 0 -4
BITMAP
0000
0200
3fd8
6848
4fc8
4848
4848
6fd8
4008
0880
0884
1084
e0f8
0000
ENDCHAR
STARTCHAR 515D
ENCODING 20829
SWIDTH 520 0
DWIDTH 14 0
BBX 14 14 0 -4
BITMAP
1010
1050
7e48
1088
1088
7f04
42f8
4248
7e48
2888
2988
2a7c
4804
8ffc
ENDCHAR
STARTCHAR 515E
ENCODING 20830
SWIDTH 520 0
DWIDTH 14 0
BBX 14 14 0 -4
BITMAP
0000
1018
7de0
1040
1078
7dc0
4440
7c78
2bc8
2848
287c
4804
8ff8
0000
ENDCHAR
STARTCHAR 515F
ENCODING 20831
SWIDTH 520 0
DWIDTH 14 0
BBX 14 14 0 -4
BITMAP
0000
1020
3120
7df8
5220
9220
1020
fdfc
2890
2890
2a90
4d14
4914
821c
ENDCHAR
STARTCHAR 5160
ENCODING 20832
SWIDTH 520 0
DWIDTH 14 0
BBX 14 14 0 -4
BITMAP
0000
1100
17a0
74a4
14b8
17a0
74a4
17a4
04b8
0480
0484
0884
1884
60f8
ENDCHAR
STARTCHAR 5161
ENCODING 20833
SWIDTH 520 0
DWIDTH 14 0
BBX 14 14 0 -4
BITMAP
1000
11fc
7c40
1040
7cf8
4488
44f8
7c88
2888
28f8
288c
4804
8ff8
0000
ENDCHAR
STARTCHAR 5162
ENCODING 20834
SWIDTH 520 0
DWIDTH 14 0
BBX 14 14 0 -4
BITMAP
0000
1020
1020
7dfc
1020
7df8
4508
4508
7df8
2850
2a54
4c94
931c
0000
ENDCHAR
STARTCHAR 5163
ENCODING 20835
SWIDTH 520 0
DWIDTH 14 0
BBX 14 14 0 -4
BITMAP
1000
11f8
7d00
11f8
7df8
45a8
45f8
7d20
29f8
2a20
2afc
4804
8ffc
0000
ENDCHAR
STARTCHAR 5164
ENCODING 20836
SWIDTH 520 0
DWIDTH 14 0
BBX 14 14 0 -4
BITMAP
2040
a7f8
ec90
75f8
37fc
fc40
55f8
5548
55f8
55f8
54b0
591c
9a04
8ff8
ENDCHAR
STARTCHAR 5165
ENCODING 20837
SWIDTH 520 0
DWIDTH 14 0
BBX 14 14 0 -4
BITMAP
0000
0800
0400
0200
0300
0300
0480
0480
0840
1860
3020
6018
c00c
0000
ENDCHAR
STARTCHAR 5166
ENCODING 20838
SWIDTH 520 0
DWIDTH 14 0
BBX 14 14 0 -4
BITMAP
0000
4400
4200
4100
4180
4180
4340
4260
4420
5818
700c
4000
7ffc
0000
ENDCHAR
STARTCHAR 5167
ENCODING 20839
SWIDTH 520 0
DWIDTH 14 0
BBX 14 14 0 -4
BITMAP
0000
0200
0200
7ff0
4210
4210
4510
4510
4890
5050
4010
4010
40f0
0000
ENDCHAR
STARTCHAR 5168
ENCODING 20840
SWIDTH 520 0
DWIDTH 14 0
BBX 14 14 0 -4
BITMAP
0000
0200
0500
1880
3060
fff8
0200
0200
3fe0
0200
0200
0200
7ff0
0000
ENDCHAR
STARTCHAR 5169
ENCODING 20841
SWIDTH 520 0
DWIDTH 14 0
BBX 14 14 0 -4
BITMAP
0000
fffc
0200
0200
7ff8
5248
4a28
5a68
5a68
6698
6718
4208
4208
42f8
ENDCHAR
STARTCHAR 516A
ENCODING 20842
SWIDTH 520 0
DWIDTH 14 0
BBX 14 14 0 -4
BITMAP
0000
0600
0780
0840
3ff0
c00c
3e20
2248
3e90
2330
3f20
2290
2250
2e28
ENDCHAR
STARTCHAR 516B
ENCODING 20843
SWIDTH 520 0
DWIDTH 14 0
BBX 14 14 0 -4
BITMAP
0000
0880
0880
0880
0880
1840
1040
1040
1060
2020
6010
4018
800c
0000
ENDCHAR
STARTCHAR 516C
ENCODING 20844
SWIDTH 520 0
DWIDTH 14 0
BBX 14 14 0 -4
BITMAP
0000
0480
08c0
1840
3020
6030
c208
0400
0480
0840
1020
23e0
7c10
0000
ENDCHAR
STARTCHAR 516D
ENCODING 20845
SWIDTH 520 0
DWIDTH 14 0
BBX 14 14 0 -4
BITMAP
0000
0200
0100
0100
0000
fffc
0000
0840
1020
3010
2018
4008
8004
0000
ENDCHAR
STARTCHAR 516E
ENCODING 20846
SWIDTH 520 0
DWIDTH 14 0
BBX 14 14 0 -4
BITMAP
0000
0480
0840
1840
3020
7ff8
880c
1000
1fe0
0020
0020
0060
07c0
0000
ENDCHAR
STARTCHAR 516F
ENCODING 20847
SWIDTH 520 0
DWIDTH 14 0
BBX 14 14 0 -4
BITMAP
2020
1040
0840
0080
fff0
0810
0810
0810
0810
0810
09f0
0800
0800
0800
ENDCHAR
STARTCHAR 5170
ENCODING 20848
SWIDTH 520 0
DWIDTH 14 0
BBX 14 14 0 -4
BITMAP
0000
1020
0840
0480
fffc
0000
0000
0000
7ff0
0000
0000
0000
fffc
0000
ENDCHAR
STARTCHAR 5171
ENCODING 20849
SWIDTH 520 0
DWIDTH 14 0
BBX 14 14 0 -4
BITMAP
0000
0840
0840
0840
7ff8
0840
0840
0840
fffc
0000
0cc0
3030
c00c
0000
ENDCHAR
STARTCHAR 5172
ENCODING 20850
SWIDTH 520 0
DWIDTH 14 0
BBX 14 14 0 -4
BITMAP
0000
7ffc
0100
0100
3ff8
0100
0100
fffc
0480
0840
1840
3020
6018
c00c
ENDCHAR
STARTCHAR 5173
ENCODING 20851
SWIDTH 520 0
DWIDTH 14 0
BBX 14 14 0 -4
BITMAP
0000
1020
0c40
0480
3ff8
0100
0100
7ffc
0300
0280
0440
1830
600c
0000
ENDCHAR
STARTCHAR 5174
ENCODING 20852
SWIDTH 520 0
DWIDTH 14 0
BBX 14 14 0 -4
BITMAP
0000
0200
4204
2108
2110
1020
0000
fffc
0000
0440
0830
3018
6004
0000
ENDCHAR
STARTCHAR 5175
ENCODING 20853
SWIDTH 520 0
DWIDTH 14 0
BBX 14 14 0 -4
BITMAP
0000
0070
1f80
1000
1000
1ff8
1040
1040
7ffc
0000
0c60
1818
600c
0000
ENDCHAR
STARTCHAR 5176
ENCODING 20854
SWIDTH 520 0
DWIDTH 14 0
BBX 14 14 0 -4
BITMAP
0000
1020
1020
7ff8
1020
1fe0
1020
1fe0
1020
7ff8
0880
1860
6018
0000
ENDCHAR
STARTCHAR 5177
ENCODING 20855
SWIDTH 520 0
DWIDTH 14 0
BBX 14 14 0 -4
BITMAP
0000
3ff0
2010
3ff0
2010
3ff0
2010
3ff0
2010
fffc
0000
1ce0
e01c
0000
ENDCHAR
STARTCHAR 5178
ENCODING 20856
SWIDTH 520 0
DWIDTH 14 0
BBX 14 14 0 -4
BITMAP
0000
0480
0480
3ff0
2490
2490
3ff0
2490
2490
7ff8
0000
0cc0
7038
0000
ENDCHAR
STARTCHAR 5179
ENCODING 20857
SWIDTH 520 0
DWIDTH 14 0
BBX 14 14 0 -4
BITMAP
0000
0810
0460
7ffc
0820
1040
2288
4510
79f0
0820
1468
224c
7ffc
0000
ENDCHAR
STARTCHAR 517A
ENCODING 20858
SWIDTH 520 0
DWIDTH 14 0
BBX 14 14 0 -4
BITMAP
0480
0840
3030
dffc
0420
0c20
19e0
6080
7c84
4498
44e4
4484
7c84
44f8
ENDCHAR
STARTCHAR 517B
ENCODING 20859
SWIDTH 520 0
DWIDTH 14 0
BBX 14 14 0 -4
BITMAP
1020
08c0
7ff8
0400
3ff0
0200
0400
fffc
0840
f87c
0840
0840
1040
6040
ENDCHAR
STARTCHAR 517C
ENCODING 20860
SWIDTH 520 0
DWIDTH 14 0
BBX 14 14 0 -4
BITMAP
0000
1840
fffc
0880
7ff0
0890
fffc
0890
7ff0
18c0
28a0
4890
888c
0000
ENDCHAR
STARTCHAR 517D
ENCODING 20861
SWIDTH 520 0
DWIDTH 14 0
BBX 14 14 0 -4
BITMAP
0000
0c40
3ff0
2110
3ff0
2110
3ff0
0000
7ff8
0000
1fe0
1020
1fe0
0000
ENDCHAR
STARTCHAR 517E
ENCODING 20862
SWIDTH 520 0
DWIDTH 14 0
BBX 14 14 0 -4
BITMAP
0420
02c0
3ff8
2108
3ff8
2108
3ff8
0440
7ffc
0440
7ffc
0000
0ee0
701c
ENDCHAR
STARTCHAR 517F
ENCODING 20863
SWIDTH 520 0
DWIDTH 14 0
BBX 14 14 0 -4
BITMAP
0820
0460
fffc
1080
fff0
1f90
f194
1654
f008
3ff0
0000
fffc
1860
7ff8
ENDCHAR
STARTCHAR 5180
ENCODING 20864
SWIDTH 520 0
DWIDTH 14 0
BBX 14 14 0 -4
BITMAP
0488
04f0
fc80
0484
fffc
2108
3ff8
2108
7ffc
0840
7ffc
1cf0
701c
0000
ENDCHAR
STARTCHAR 5181
ENCODING 20865
SWIDTH 520 0
DWIDTH 14 0
BBX 14 14 0 -4
BITMAP
0000
45fc
2904
7dfc
5500
7d48
55fc
5548
7dfc
11a0
7f9c
12e8
14c4
0000
ENDCHAR
STARTCHAR 5182
ENCODING 20866
SWIDTH 520 0
DWIDTH 14 0
BBX 14 14 0 -4
BITMAP
0000
7ff0
4010
4010
4010
4010
4010
4010
4010
4010
4010
4010
40f0
0000
ENDCHAR
STARTCHAR 5183
ENCODING 20867
SWIDTH 520 0
DWIDTH 14 0
BBX 14 14 0 -4
BITMAP
0000
7ff8
4008
4008
5fe8
4008
4008
4008
5fe8
4008
4008
4008
4078
4000
ENDCHAR
STARTCHAR 5184
ENCODING 20868
SWIDTH 520 0
DWIDTH 14 0
BBX 14 14 0 -4
BITMAP
0000
3ff0
2010
2010
fffc
2010
2010
2010
fffc
2010
2010
2010
20f0
2000
ENDCHAR
STARTCHAR 5185
ENCODING 20869
SWIDTH 520 0
DWIDTH 14 0
BBX 14 14 0 -4
BITMAP
0000
0200
0200
7ff0
4210
4210
4610
4590
58d0
7030
4010
4010
40f0
0000
ENDCHAR
STARTCHAR 5186
ENCODING 20870
SWIDTH 520 0
DWIDTH 14 0
BBX 14 14 0 -4
BITMAP
0000
7ff8
4108
4108
4108
4108
4108
7ff8
4008
4008
4008
4008
4078
4000
ENDCHAR
STARTCHAR 5187
ENCODING 20871
SWIDTH 520 0
DWIDTH 14 0
BBX 14 14 0 -4
BITMAP
0400
0400
fffc
0800
1000
3ff0
3010
5010
9010
1010
1010
1010
1010
10f0
ENDCHAR
STARTCHAR 5188
ENCODING 20872
SWIDTH 520 0
DWIDTH 14 0
BBX 14 14 0 -4
BITMAP
0000
7ff8
4008
5048
4888
4588
4708
4308
4588
4888
5048
4008
40f0
0000
ENDCHAR
STARTCHAR 5189
ENCODING 20873
SWIDTH 520 0
DWIDTH 14 0
BBX 14 14 0 -4
BITMAP
0000
0100
3ff0
2110
2110
3ff0
2110
2110
2110
fffc
2010
2010
20f0
0000
ENDCHAR
STARTCHAR 518A
ENCODING 20874
SWIDTH 520 0
DWIDTH 14 0
BBX 14 14 0 -4
BITMAP
0000
7ff0
4890
4890
4890
4890
fff8
4890
4890
4890
4890
4890
4890
4870
ENDCHAR
STARTCHAR 518B
ENCODING 20875
SWIDTH 520 0
DWIDTH 14 0
BBX 14 14 0 -4
BITMAP
0000
7ff8
4008
4008
4fc8
4848
4848
4848
4fc8
4808
4008
4008
4078
0000
ENDCHAR
STARTCHAR 518C
ENCODING 20876
SWIDTH 520 0
DWIDTH 14 0
BBX 14 14 0 -4
BITMAP
0000
7cf0
4490
4490
4490
4490
fff8
4490
4490
4490
4510
8510
9e70
0000
ENDCHAR
STARTCHAR 518D
ENCODING 20877
SWIDTH 520 0
DWIDTH 14 0
BBX 14 14 0 -4
BITMAP
0000
7ff8
0100
3ff0
2110
2110
3ff0
2110
2110
fffc
2010
2010
20f0
0000
ENDCHAR
STARTCHAR 518E
ENCODING 20878
SWIDTH 520 0
DWIDTH 14 0
BBX 14 14 0 -4
BITMAP
0000
3ff0
2010
2010
3f10
2110
2110
7ff8
4008
4008
4008
4008
4008
4078
ENDCHAR
STARTCHAR 518F
ENCODING 20879
SWIDTH 520 0
DWIDTH 14 0
BBX 14 14 0 -4
BITMAP
0000
7ff8
4008
4488
5868
6018
4fc8
4848
4848
4848
4fc8
4808
4008
4078
ENDCHAR
STARTCHAR 5190
ENCODING 20880
SWIDTH 520 0
DWIDTH 14 0
BBX 14 14 0 -4
BITMAP
0000
7ff8
4008
5fe8
4008
5fe8
0000
3ff0
2010
3ff0
2010
3ff0
2010
20f0
ENDCHAR
STARTCHAR 5191
ENCODING 20881
SWIDTH 520 0
DWIDTH 14 0
BBX 14 14 0 -4
BITMAP
0000
0100
7ff8
4108
7ff8
4108
7ff8
7ff8
4008
5fe8
4008
5fe8
4008
4078
ENDCHAR
STARTCHAR 5192
ENCODING 20882
SWIDTH 520 0
DWIDTH 14 0
BBX 14 14 0 -4
BITMAP
0000
7ff8
4008
5fe8
4008
3ff0
2010
3ff0
2010
3ff0
2010
3ff0
2010
0000
ENDCHAR
STARTCHAR 5193
ENCODING 20883
SWIDTH 520 0
DWIDTH 14 0
BBX 14 14 0 -4
BITMAP
0000
0840
7ff8
0840
7ff8
0840
fffc
2110
3ff0
2110
fffc
2010
2010
2070
ENDCHAR
STARTCHAR 5194
ENCODING 20884
SWIDTH 520 0
DWIDTH 14 0
BBX 14 14 0 -4
BITMAP
0000
3ff0
2010
2fd0
2010
3ff0
0000
7bf8
4820
4bf8
4820
4820
7820
49e0
ENDCHAR
STARTCHAR 5195
ENCODING 20885
SWIDTH 520 0
DWIDTH 14 0
BBX 14 14 0 -4
BITMAP
0000
7ff8
4008
5fe8
5fe8
0400
0fe0
1040
3ff0
6110
3ff0
0704
1904
e1f8
ENDCHAR
STARTCHAR 5196
ENCODING 20886
SWIDTH 520 0
DWIDTH 14 0
BBX 14 14 0 -4
BITMAP
0000
7ff8
4008
4008
0000
0000
0000
0000
0000
0000
0000
0000
0000
0000
ENDCHAR
STARTCHAR 5197
ENCODING 20887
SWIDTH 520 0
DWIDTH 14 0
BBX 14 14 0 -4
BITMAP
0000
7ff8
4008
4008
0000
0fc0
0840
0840
0840
0844
1044
2044
c078
0000
ENDCHAR
STARTCHAR 5198
ENCODING 20888
SWIDTH 520 0
DWIDTH 14 0
BBX 14 14 0 -4
BITMAP
0000
0200
0200
7ff8
4208
4208
0200
0500
0500
0500
0904
1104
6104
c1f8
ENDCHAR
STARTCHAR 5199
ENCODING 20889
SWIDTH 520 0
DWIDTH 14 0
BBX 14 14 0 -4
BITMAP
0000
7ff8
4008
4808
1ff0
1000
1000
1ff0
0010
ffd0
0010
0010
03e0
0000
ENDCHAR
STARTCHAR 519A
ENCODING 20890
SWIDTH 520 0
DWIDTH 14 0
BBX 14 14 0 -4
BITMAP
0000
7ff8
4008
4008
0200
0200
2210
2210
2210
2210
2210
2210
3ff0
0010
ENDCHAR
STARTCHAR 519B
ENCODING 20891
SWIDTH 520 0
DWIDTH 14 0
BBX 14 14 0 -4
BITMAP
0000
7ff8
4008
0400
7ff8
1100
3100
3ff0
0100
0100
7ff8
0100
0100
0000
ENDCHAR
STARTCHAR 519C
ENCODING 20892
SWIDTH 520 0
DWIDTH 14 0
BBX 14 14 0 -4
BITMAP
0200
0200
7ff8
4608
4608
0e00
0910
1960
3880
68c0
8860
0890
0f0c
1800
ENDCHAR
STARTCHAR 519D
ENCODING 20893
SWIDTH 520 0
DWIDTH 14 0
BBX 14 14 0 -4
BITMAP
0000
7ff8
4008
4008
1fe0
1020
1fe0
1020
1020
1fe0
1020
1020
7ff8
0000
ENDCHAR
STARTCHAR 519E
ENCODING 20894
SWIDTH 520 0
DWIDTH 14 0
BBX 14 14 0 -4
BITMAP
0000
7ff8
4008
4208
5218
1a20
0a40
7ff8
0700
0a80
1240
6230
c20c
0200
ENDCHAR
STARTCHAR 519F
ENCODING 20895
SWIDTH 520 0
DWIDTH 14 0
BBX 14 14 0 -4
BITMAP
0000
7ff8
4408
7ff8
2010
3ff0
2010
3ff0
0010
2070
3f88
2008
3ff0
0000
ENDCHAR
STARTCHAR 51A0
ENCODING 20896
SWIDTH 520 0
DWIDTH 14 0
BBX 14 14 0 -4
BITMAP
0000
7ff8
4008
0010
3e10
01f8
0010
7f90
1450
1414
14f4
2404
47f8
0000
ENDCHAR
STARTCHAR 51A1
ENCODING 20897
SWIDTH 520 0
DWIDTH 14 0
BBX 14 14 0 -4
BITMAP
0000
7ff8
4008
5fe8
0000
7ff8
0410
1a60
67c0
0b40
1520
6910
110c
6e00
ENDCHAR
STARTCHAR 51A2
ENCODING 20898
SWIDTH 520 0
DWIDTH 14 0
BBX 14 14 0 -4
BITMAP
0000
7ff8
4008
3ff0
0600
1e10
7260
1dc0
39a0
4aa0
0498
188c
6f00
0000
ENDCHAR
STARTCHAR 51A3
ENCODING 20899
SWIDTH 520 0
DWIDTH 14 0
BBX 14 14 0 -4
BITMAP
0000
7ff8
4008
0000
7e00
25f8
3c88
2488
2490
3c50
2460
2f60
74d8
050c
ENDCHAR
STARTCHAR 51A4
ENCODING 20900
SWIDTH 520 0
DWIDTH 14 0
BBX 14 14 0 -4
BITMAP
0000
7ff8
4408
5fc8
3080
7ff8
2108
2108
3ff8
2320
0d14
1104
e1f8
0000
ENDCHAR
STARTCHAR 51A5
ENCODING 20901
SWIDTH 520 0
DWIDTH 14 0
BBX 14 14 0 -4
BITMAP
0000
7ff8
4008
5fe8
1020
1fe0
1020
1fe0
1220
0100
7ffc
0c60
3818
6004
ENDCHAR
STARTCHAR 51A6
ENCODING 20902
SWIDTH 520 0
DWIDTH 14 0
BBX 14 14 0 -4
BITMAP
0000
7ffc
4004
4040
3e78
0040
7ff0
2410
24b0
2464
2474
458c
87f8
0000
ENDCHAR
STARTCHAR 51A7
ENCODING 20903
SWIDTH 520 0
DWIDTH 14 0
BBX 14 14 0 -4
BITMAP
0000
7ff8
4008
4848
0840
7ff8
0860
1ce0
3f50
2b50
4948
8a44
0840
0840
ENDCHAR
STARTCHAR 51A8
ENCODING 20904
SWIDTH 520 0
DWIDTH 14 0
BBX 14 14 0 -4
BITMAP
0000
7ff8
4008
5fe8
0000
1fe0
1020
3ff0
2210
3ff0
2210
2210
3ff0
2010
ENDCHAR
STARTCHAR 51A9
ENCODING 20905
SWIDTH 520 0
DWIDTH 14 0
BBX 14 14 0 -4
BITMAP
0000
7ff8
4008
7ef8
2010
3ef0
2010
3ff0
0800
3ff8
d148
3928
2528
01f0
ENDCHAR
STARTCHAR 51AA
ENCODING 20906
SWIDTH 520 0
DWIDTH 14 0
BBX 14 14 0 -4
BITMAP
0000
7ff8
4488
7ff8
3ff0
3ff0
2010
3ff0
fffc
2120
dffc
1120
1160
0100
ENDCHAR
STARTCHAR 51AB
ENCODING 20907
SWIDTH 520 0
DWIDTH 14 0
BBX 14 14 0 -4
BITMAP
0000
2000
1000
0c00
0400
0000
0000
0400
0800
0800
1000
1000
2000
0000
ENDCHAR
STARTCHAR 51AC
ENCODING 20908
SWIDTH 520 0
DWIDTH 14 0
BBX 14 14 0 -4
BITMAP
0000
0400
0ff0
3820
64c0
0380
0ee0
701c
0e00
01c0
1800
0780
0060
0000
ENDCHAR
STARTCHAR 51AD
ENCODING 20909
SWIDTH 520 0
DWIDTH 14 0
BBX 14 14 0 -4
BITMAP
0000
0100
0200
fffc
0480
1840
3030
cc0c
0780
00c0
0000
3800
0f80
0060
ENDCHAR
STARTCHAR 51AE
ENCODING 20910
SWIDTH 520 0
DWIDTH 14 0
BBX 14 14 0 -4
BITMAP
0000
0000
9ff8
4080
2080
0080
0080
2080
2080
4080
4080
8080
9ffc
0000
ENDCHAR
STARTCHAR 51AF
ENCODING 20911
SWIDTH 520 0
DWIDTH 14 0
BBX 14 14 0 -4
BITMAP
0000
8fe0
4420
2420
0c20
0c20
2ff8
2008
4008
5fe8
8008
8008
00f0
0000
ENDCHAR
STARTCHAR 51B0
ENCODING 20912
SWIDTH 520 0
DWIDTH 14 0
BBX 14 14 0 -4
BITMAP
0000
8080
4080
4080
3e88
02d0
02e0
24c0
24a0
48a0
5090
a088
8780
0000
ENDCHAR
STARTCHAR 51B1
ENCODING 20913
SWIDTH 520 0
DWIDTH 14 0
BBX 14 14 0 -4
BITMAP
0000
9ffc
4400
4400
27f0
0810
0810
2810
2ff0
4010
4010
8010
9ffc
0000
ENDCHAR
STARTCHAR 51B2
ENCODING 20914
SWIDTH 520 0
DWIDTH 14 0
BBX 14 14 0 -4
BITMAP
0000
0080
8080
4080
27f8
0488
0488
2488
27f8
4488
8080
8080
0080
0000
ENDCHAR
STARTCHAR 51B3
ENCODING 20915
SWIDTH 520 0
DWIDTH 14 0
BBX 14 14 0 -4
BITMAP
0000
0100
8100
4ff0
2110
0110
2110
3ffc
4180
4380
8640
8c30
300c
0000
ENDCHAR
STARTCHAR 51B4
ENCODING 20916
SWIDTH 520 0
DWIDTH 14 0
BBX 14 14 0 -4
BITMAP
0000
8ffc
4020
4420
2420
0820
0ffc
2060
20a0
4120
4220
cc20
99e0
0000
ENDCHAR
STARTCHAR 51B5
ENCODING 20917
SWIDTH 520 0
DWIDTH 14 0
BBX 14 14 0 -4
BITMAP
0000
87f8
4408
6408
2408
0408
07f8
2548
2140
4140
4244
8c44
187c
0000
ENDCHAR
STARTCHAR 51B6
ENCODING 20918
SWIDTH 520 0
DWIDTH 14 0
BBX 14 14 0 -4
BITMAP
0000
8080
4100
6220
2410
0ff8
0004
2000
27f8
4408
4408
87f8
8408
0000
ENDCHAR
STARTCHAR 51B7
ENCODING 20919
SWIDTH 520 0
DWIDTH 14 0
BBX 14 14 0 -4
BITMAP
0000
0080
c140
6320
0590
184c
0000
2ff8
6010
4c60
43c0
80c0
0060
0000
ENDCHAR
STARTCHAR 51B8
ENCODING 20920
SWIDTH 520 0
DWIDTH 14 0
BBX 14 14 0 -4
BITMAP
0080
8888
4c90
24a0
0080
1ff8
2080
2080
4080
5ff8
4080
8080
8080
0080
ENDCHAR
STARTCHAR 51B9
ENCODING 20921
SWIDTH 520 0
DWIDTH 14 0
BBX 14 14 0 -4
BITMAP
0260
8230
4200
7ffc
2200
0200
07f0
2610
2a20
4920
5140
9080
a760
181c
ENDCHAR
STARTCHAR 51BA
ENCODING 20922
SWIDTH 520 0
DWIDTH 14 0
BBX 14 14 0 -4
BITMAP
0000
8ff8
4808
6808
2ff8
0848
2840
2840
4ffc
4840
4840
88c4
8b24
0c18
ENDCHAR
STARTCHAR 51BB
ENCODING 20923
SWIDTH 520 0
DWIDTH 14 0
BBX 14 14 0 -4
BITMAP
0000
0100
8100
5ff8
2200
0440
0840
2ffc
2040
4250
4448
8848
93c4
0000
ENDCHAR
STARTCHAR 51BC
ENCODING 20924
SWIDTH 520 0
DWIDTH 14 0
BBX 14 14 0 -4
BITMAP
0000
8480
4480
47f8
2880
0880
0080
2ffc
2240
4240
4444
c844
b078
0000
ENDCHAR
STARTCHAR 51BD
ENCODING 20925
SWIDTH 520 0
DWIDTH 14 0
BBX 14 14 0 -4
BITMAP
0000
9f88
4428
2428
0728
0928
2928
3e28
5228
4628
c408
8808
1038
0000
ENDCHAR
STARTCHAR 51BE
ENCODING 20926
SWIDTH 520 0
DWIDTH 14 0
BBX 14 14 0 -4
BITMAP
0040
80e0
41a0
2310
0c08
1bf4
2000
2000
47f8
4408
4408
8408
87f8
0408
ENDCHAR
STARTCHAR 51BF
ENCODING 20927
SWIDTH 520 0
DWIDTH 14 0
BBX 14 14 0 -4
BITMAP
0000
8100
9ff0
4110
5ff8
0110
2ff0
2110
4100
4ff0
4100
bff8
8100
0100
ENDCHAR
STARTCHAR 51C0
ENCODING 20928
SWIDTH 520 0
DWIDTH 14 0
BBX 14 14 0 -4
BITMAP
0000
0200
87e0
4c40
2880
1ff0
0110
3ff8
6110
4ff0
4110
8100
0700
0000
ENDCHAR
STARTCHAR 51C1
ENCODING 20929
SWIDTH 520 0
DWIDTH 14 0
BBX 14 14 0 -4
BITMAP
0080
8080
5ffc
2080
0ff8
0888
2888
2ff8
49c8
42c0
44a0
8898
b084
0080
ENDCHAR
STARTCHAR 51C2
ENCODING 20930
SWIDTH 520 0
DWIDTH 14 0
BBX 14 14 0 -4
BITMAP
0000
0200
87f0
4820
3040
0ff8
0888
2908
2ff8
4908
4240
c644
8844
3078
ENDCHAR
STARTCHAR 51C3
ENCODING 20931
SWIDTH 520 0
DWIDTH 14 0
BBX 14 14 0 -4
BITMAP
0000
0080
8140
4220
2c30
17e8
2080
2080
4ff0
4080
44a0
8890
9088
0380
ENDCHAR
STARTCHAR 51C4
ENCODING 20932
SWIDTH 520 0
DWIDTH 14 0
BBX 14 14 0 -4
BITMAP
0000
8100
5ff8
4110
3ff8
0110
0ff0
2200
3ff8
4420
4740
c3e0
9c30
0000
ENDCHAR
STARTCHAR 51C5
ENCODING 20933
SWIDTH 520 0
DWIDTH 14 0
BBX 14 14 0 -4
BITMAP
0000
8ff8
8808
4888
4ff8
0888
2888
2be8
4a28
4be8
4a28
8808
8ff8
0808
ENDCHAR
STARTCHAR 51C6
ENCODING 20934
SWIDTH 520 0
DWIDTH 14 0
BBX 14 14 0 -4
BITMAP
0000
0240
c420
67fc
0c20
17f8
0420
2420
47f8
4420
c420
87fc
0400
0000
ENDCHAR
STARTCHAR 51C7
ENCODING 20935
SWIDTH 520 0
DWIDTH 14 0
BBX 14 14 0 -4
BITMAP
0000
8450
8450
4488
5e88
058c
0f24
2f40
5550
5488
4488
84fc
0584
0000
ENDCHAR
STARTCHAR 51C8
ENCODING 20936
SWIDTH 520 0
DWIDTH 14 0
BBX 14 14 0 -4
BITMAP
0000
9ff8
4908
4490
2420
0ff8
0088
2ffc
2088
4088
4ff8
c080
8080
0780
ENDCHAR
STARTCHAR 51C9
ENCODING 20937
SWIDTH 520 0
DWIDTH 14 0
BBX 14 14 0 -4
BITMAP
0000
8180
5ffc
4000
27f8
0408
0408
27f8
2080
4490
4888
9084
8780
0000
ENDCHAR
STARTCHAR 51CA
ENCODING 20938
SWIDTH 520 0
DWIDTH 14 0
BBX 14 14 0 -4
BITMAP
0000
0080
8ffc
4080
4ff8
2080
1ffc
2ff8
2808
4ff8
4808
8ff8
8808
0878
ENDCHAR
STARTCHAR 51CB
ENCODING 20939
SWIDTH 520 0
DWIDTH 14 0
BBX 14 14 0 -4
BITMAP
0000
8ff8
4888
4888
2be8
0888
0ff8
2808
2be8
4a28
4a28
d3e8
9208
2078
ENDCHAR
STARTCHAR 51CC
ENCODING 20940
SWIDTH 520 0
DWIDTH 14 0
BBX 14 14 0 -4
BITMAP
0000
0080
8ff8
4080
3ffc
0230
0c18
3904
27f0
4e30
5140
c1e0
9e1c
0000
ENDCHAR
STARTCHAR 51CD
ENCODING 20941
SWIDTH 520 0
DWIDTH 14 0
BBX 14 14 0 -4
BITMAP
0000
0080
9ffc
4080
2ff8
0888
0ff8
2888
2ff8
41c0
42a0
cc90
988c
0080
ENDCHAR
STARTCHAR 51CE
ENCODING 20942
SWIDTH 520 0
DWIDTH 14 0
BBX 14 14 0 -4
BITMAP
0080
81c0
4120
6630
2c18
1ff4
2080
2080
4ff8
4888
4488
8290
9ffc
0000
ENDCHAR
STARTCHAR 51CF
ENCODING 20943
SWIDTH 520 0
DWIDTH 14 0
BBX 14 14 0 -4
BITMAP
0000
0050
8048
4ff8
2840
0fc8
2848
2fd0
4cb0
4fa0
d468
90e8
2118
0000
ENDCHAR
STARTCHAR 51D0
ENCODING 20944
SWIDTH 520 0
DWIDTH 14 0
BBX 14 14 0 -4
BITMAP
0000
9ffc
8140
4ff8
4948
0948
2ff8
2888
4080
4ff8
4080
8080
9ffc
0000
ENDCHAR
STARTCHAR 51D1
ENCODING 20945
SWIDTH 520 0
DWIDTH 14 0
BBX 14 14 0 -4
BITMAP
0000
0100
8ff0
4100
4ff0
2100
0ff8
2240
6fe0
5118
4fe0
8380
1c70
0000
ENDCHAR
STARTCHAR 51D2
ENCODING 20946
SWIDTH 520 0
DWIDTH 14 0
BBX 14 14 0 -4
BITMAP
0000
0080
8888
4ff8
4000
0ff8
0000
2ff8
2808
4808
4ff8
8420
8240
1ffc
ENDCHAR
STARTCHAR 51D3
ENCODING 20947
SWIDTH 520 0
DWIDTH 14 0
BBX 14 14 0 -4
BITMAP
0000
8ff8
8140
4ff8
4948
0948
2ff8
2008
4080
5ffc
81c0
86b0
188c
0080
ENDCHAR
STARTCHAR 51D4
ENCODING 20948
SWIDTH 520 0
DWIDTH 14 0
BBX 14 14 0 -4
BITMAP
0040
80a0
4150
4658
2ffc
0408
07f8
2408
27f8
4400
4ff8
cc08
97f8
0408
ENDCHAR
STARTCHAR 51D5
ENCODING 20949
SWIDTH 520 0
DWIDTH 14 0
BBX 14 14 0 -4
BITMAP
0000
9ffc
5004
4ff8
2808
0ff8
0808
2808
2ff8
4080
5ffc
4260
8c18
900c
ENDCHAR
STARTCHAR 51D6
ENCODING 20950
SWIDTH 520 0
DWIDTH 14 0
BBX 14 14 0 -4
BITMAP
0240
8640
47fc
2c40
0ff8
1440
27f8
4440
47fc
8100
fffc
0100
0100
0100
ENDCHAR
STARTCHAR 51D7
ENCODING 20951
SWIDTH 520 0
DWIDTH 14 0
BBX 14 14 0 -4
BITMAP
0000
0888
8888
4ff8
2448
0860
0ffc
5840
6ffc
4840
8ffc
8840
8ffc
8800
ENDCHAR
STARTCHAR 51D8
ENCODING 20952
SWIDTH 520 0
DWIDTH 14 0
BBX 14 14 0 -4
BITMAP
0000
8918
9ff0
4940
4940
0f7c
0948
4f48
4948
5fc8
8a48
9148
9188
2088
ENDCHAR
STARTCHAR 51D9
ENCODING 20953
SWIDTH 520 0
DWIDTH 14 0
BBX 14 14 0 -4
BITMAP
0000
9ff8
5248
5ff8
2080
0ff0
0080
7ffc
4620
5ff8
8080
9ffc
8080
8080
ENDCHAR
STARTCHAR 51DA
ENCODING 20954
SWIDTH 520 0
DWIDTH 14 0
BBX 14 14 0 -4
BITMAP
0420
8420
5ffc
4660
2db8
1524
0000
4ff0
4000
5ffc
8080
84a0
9898
a784
ENDCHAR
STARTCHAR 51DB
ENCODING 20955
SWIDTH 520 0
DWIDTH 14 0
BBX 14 14 0 -4
BITMAP
0000
0180
9ffc
8000
4ff8
4a28
4be8
0808
4ff8
4000
9ffc
9898
2784
0000
ENDCHAR
STARTCHAR 51DC
ENCODING 20956
SWIDTH 520 0
DWIDTH 14 0
BBX 14 14 0 -4
BITMAP
0180
9ffc
4000
4ff8
2be8
0be8
0808
0ff8
4800
4ff8
5ffc
81c0
86b0
988c
ENDCHAR
STARTCHAR 51DD
ENCODING 20957
SWIDTH 520 0
DWIDTH 14 0
BBX 14 14 0 -4
BITMAP
1000
92f8
9e08
5250
5c30
10f8
1028
7e28
68a0
7eb8
88a0
8ce0
9378
2200
ENDCHAR
STARTCHAR 51DE
ENCODING 20958
SWIDTH 520 0
DWIDTH 14 0
BBX 14 14 0 -4
BITMAP
0000
8ffc
8d24
4d24
4ffc
0c60
0fe4
4d24
5524
57fc
9008
9248
a324
2124
ENDCHAR
STARTCHAR 51DF
ENCODING 20959
SWIDTH 520 0
DWIDTH 14 0
BBX 14 14 0 -4
BITMAP
0080
bff8
8080
9ff8
4000
5ff8
1248
5ff8
4810
4ff0
8810
8ff0
8670
b81c
ENDCHAR
STARTCHAR 51E0
ENCODING 20960
SWIDTH 520 0
DWIDTH 14 0
BBX 14 14 0 -4
BITMAP
0000
1fc0
1040
1040
1040
1040
1040
1040
1040
3044
2044
4044
8078
0000
ENDCHAR
STARTCHAR 51E1
ENCODING 20961
SWIDTH 520 0
DWIDTH 14 0
BBX 14 14 0 -4
BITMAP
0000
1fc0
1040
1040
1040
1440
1240
1340
1140
1044
1044
2044
2078
4000
ENDCHAR
STARTCHAR 51E2
ENCODING 20962
SWIDTH 520 0
DWIDTH 14 0
BBX 14 14 0 -4
BITMAP
0200
0400
0400
1fc0
1040
1040
1040
1040
1040
1044
2044
2044
4078
8000
ENDCHAR
STARTCHAR 51E3
ENCODING 20963
SWIDTH 520 0
DWIDTH 14 0
BBX 14 14 0 -4
BITMAP
0200
0200
0200
1fc0
1040
1040
1040
1040
1040
1044
2044
2044
4078
8000
ENDCHAR
STARTCHAR 51E4
ENCODING 20964
SWIDTH 520 0
DWIDTH 14 0
BBX 14 14 0 -4
BITMAP
0000
7ff0
4010
4010
5f90
4090
5090
4d10
4610
4714
4d94
b054
8008
0000
ENDCHAR
STARTCHAR 51E5
ENCODING 20965
SWIDTH 520 0
DWIDTH 14 0
BBX 14 14 0 -4
BITMAP
0000
3ff8
2008
2008
3ff8
2008
2000
27e0
2420
2420
2420
4824
5824
b03c
ENDCHAR
STARTCHAR 51E6
ENCODING 20966
SWIDTH 520 0
DWIDTH 14 0
BBX 14 14 0 -4
BITMAP
2000
20f0
2090
7c90
4490
4490
a494
a994
3914
1218
1800
2600
41fc
8000
ENDCHAR
STARTCHAR 51E7
ENCODING 20967
SWIDTH 520 0
DWIDTH 14 0
BBX 14 14 0 -4
BITMAP
0000
7ff0
4010
4210
4210
5f90
5290
5290
5290
5290
5294
5394
8214
8008
ENDCHAR
STARTCHAR 51E8
ENCODING 20968
SWIDTH 520 0
DWIDTH 14 0
BBX 14 14 0 -4
BITMAP
0000
7ff0
4010
4010
5fd0
4010
5fd0
4410
4510
4894
4f94
9854
8008
0000
ENDCHAR
STARTCHAR 51E9
ENCODING 20969
SWIDTH 520 0
DWIDTH 14 0
BBX 14 14 0 -4
BITMAP
0000
7ff0
4010
4210
4210
5fd0
4610
4710
4b90
5a54
6214
8214
8008
0000
ENDCHAR
STARTCHAR 51EA
ENCODING 20970
SWIDTH 520 0
DWIDTH 14 0
BBX 14 14 0 -4
BITMAP
0000
7ff0
4010
4210
4a10
4a10
4bd0
4a10
4a10
4a14
4a14
9fd4
8008
0000
ENDCHAR
STARTCHAR 51EB
ENCODING 20971
SWIDTH 520 0
DWIDTH 14 0
BBX 14 14 0 -4
BITMAP
0000
0400
3ff0
2c10
2370
2000
3ff8
0008
1f88
10f0
1084
2084
c0f8
0000
ENDCHAR
STARTCHAR 51EC
ENCODING 20972
SWIDTH 520 0
DWIDTH 14 0
BBX 14 14 0 -4
BITMAP
0000
7ff0
4010
5fd0
4010
4010
5f90
5090
5f90
5094
5f94
9094
8008
0000
ENDCHAR
STARTCHAR 51ED
ENCODING 20973
SWIDTH 520 0
DWIDTH 14 0
BBX 14 14 0 -4
BITMAP
0000
1038
2fe0
2080
6ffc
a080
2080
27f8
0000
0fc4
0844
1844
e078
0000
ENDCHAR
STARTCHAR 51EE
ENCODING 20974
SWIDTH 520 0
DWIDTH 14 0
BBX 14 14 0 -4
BITMAP
0000
7ff0
4010
5fd0
4410
4410
5f90
5090
5f90
5090
5094
5f94
9094
8008
ENDCHAR
STARTCHAR 51EF
ENCODING 20975
SWIDTH 520 0
DWIDTH 14 0
BBX 14 14 0 -4
BITMAP
0000
10f0
5290
5290
7e90
0090
7c90
0490
7c90
4494
4114
5d14
621c
0000
ENDCHAR
STARTCHAR 51F0
ENCODING 20976
SWIDTH 520 0
DWIDTH 14 0
BBX 14 14 0 -4
BITMAP
0000
7ff0
4410
4410
5fd0
5050
5fd0
5050
5ff0
4214
5fd4
8214
bfe8
0000
ENDCHAR
STARTCHAR 51F1
ENCODING 20977
SWIDTH 520 0
DWIDTH 14 0
BBX 14 14 0 -4
BITMAP
0800
4af0
4a90
7e90
0090
7e90
0090
7e90
4290
7e90
2494
1514
1714
7a1c
ENDCHAR
STARTCHAR 51F2
ENCODING 20978
SWIDTH 520 0
DWIDTH 14 0
BBX 14 14 0 -4
BITMAP
0000
7ff0
4910
5fd0
4510
5fd0
4550
7ff0
4550
5fd4
4d94
b574
8508
0000
ENDCHAR
STARTCHAR 51F3
ENCODING 20979
SWIDTH 520 0
DWIDTH 14 0
BBX 14 14 0 -4
BITMAP
0000
3d60
2c98
1fe0
6018
1fe0
1020
1fe0
0c40
7ff8
0840
1048
6078
0000
ENDCHAR
STARTCHAR 51F4
ENCODING 20980
SWIDTH 520 0
DWIDTH 14 0
BBX 14 14 0 -4
BITMAP
0000
47f8
2440
17f8
07f8
1440
27f8
20a8
4b58
0838
0fc0
0844
1844
6078
ENDCHAR
STARTCHAR 51F5
ENCODING 20981
SWIDTH 520 0
DWIDTH 14 0
BBX 14 14 0 -4
BITMAP
0000
4008
4008
4008
4008
4008
4008
4008
4008
4008
4008
7ff8
0008
0000
ENDCHAR
STARTCHAR 51F6
ENCODING 20982
SWIDTH 520 0
DWIDTH 14 0
BBX 14 14 0 -4
BITMAP
0000
2020
1840
4cc8
4788
4308
4308
4c88
5848
6028
4008
7ff8
0008
0000
ENDCHAR
STARTCHAR 51F7
ENCODING 20983
SWIDTH 520 0
DWIDTH 14 0
BBX 14 14 0 -4
BITMAP
0100
0100
0100
4108
5fe8
4108
4108
4108
4108
5fe8
4008
4008
7ff8
0008
ENDCHAR
STARTCHAR 51F8
ENCODING 20984
SWIDTH 520 0
DWIDTH 14 0
BBX 14 14 0 -4
BITMAP
0000
0fc0
0840
0840
0840
7878
4008
4008
4008
4008
4008
7ff8
4008
0000
ENDCHAR
STARTCHAR 51F9
ENCODING 20985
SWIDTH 520 0
DWIDTH 14 0
BBX 14 14 0 -4
BITMAP
0000
7cf8
4488
4488
4488
4488
4788
4008
4008
4008
4008
7ff8
4008
0000
ENDCHAR
STARTCHAR 51FA
ENCODING 20986
SWIDTH 520 0
DWIDTH 14 0
BBX 14 14 0 -4
BITMAP
0000
0200
4208
4208
4208
7ff8
0208
4208
4208
4208
4208
7ff8
0008
0000
ENDCHAR
STARTCHAR 51FB
ENCODING 20987
SWIDTH 520 0
DWIDTH 14 0
BBX 14 14 0 -4
BITMAP
0000
0200
0200
3ff0
0200
0200
7ff8
0200
2210
2210
2210
3ff0
0010
0000
ENDCHAR
STARTCHAR 51FC
ENCODING 20988
SWIDTH 520 0
DWIDTH 14 0
BBX 14 14 0 -4
BITMAP
0000
0100
4128
7d48
4588
4908
49c8
5168
6118
4708
4008
7ff8
0008
0000
ENDCHAR
STARTCHAR 51FD
ENCODING 20989
SWIDTH 520 0
DWIDTH 14 0
BBX 14 14 0 -4
BITMAP
0000
3ff0
0060
5198
4928
4548
47c8
5d68
7118
4f08
4008
7ff8
0008
0000
ENDCHAR
STARTCHAR 51FE
ENCODING 20990
SWIDTH 520 0
DWIDTH 14 0
BBX 14 14 0 -4
BITMAP
0000
3fe0
0060
40c0
5d88
55e8
5528
55a8
5d68
5168
4fa8
4008
7ff8
0008
ENDCHAR
STARTCHAR 51FF
ENCODING 20991
SWIDTH 520 0
DWIDTH 14 0
BBX 14 14 0 -4
BITMAP
0000
6498
14b0
fffc
0840
4488
5fe8
4108
5fe8
4108
4108
7ff8
0008
0000
ENDCHAR
STARTCHAR 5200
ENCODING 20992
SWIDTH 520 0
DWIDTH 14 0
BBX 14 14 0 -4
BITMAP
0000
7ff0
0410
0410
0410
0410
0410
0810
0810
1010
3010
6010
c1e0
0000
ENDCHAR
STARTCHAR 5201
ENCODING 20993
SWIDTH 520 0
DWIDTH 14 0
BBX 14 14 0 -4
BITMAP
0000
3ff0
0010
0010
0050
0190
0210
0c10
3010
4010
0010
0010
03e0
0000
ENDCHAR
STARTCHAR 5202
ENCODING 20994
SWIDTH 520 0
DWIDTH 14 0
BBX 14 14 0 -4
BITMAP
0000
0010
0110
0110
0110
0110
0110
0110
0110
0110
0010
0010
00f0
0000
ENDCHAR
STARTCHAR 5203
ENCODING 20995
SWIDTH 520 0
DWIDTH 14 0
BBX 14 14 0 -4
BITMAP
0000
0000
7ff0
0210
0210
1210
2210
2210
4410
0410
0810
1810
31e0
6000
ENDCHAR
STARTCHAR 5204
ENCODING 20996
SWIDTH 520 0
DWIDTH 14 0
BBX 14 14 0 -4
BITMAP
0000
0000
3ff0
0410
4410
2410
1410
0c10
0f10
09f0
101c
2010
41e0
0000
ENDCHAR
STARTCHAR 5205
ENCODING 20997
SWIDTH 520 0
DWIDTH 14 0
BBX 14 14 0 -4
BITMAP
0000
0000
7fe0
0420
0420
2428
6428
4c24
4824
8820
1020
2020
47c0
0000
ENDCHAR
STARTCHAR 5206
ENCODING 20998
SWIDTH 520 0
DWIDTH 14 0
BBX 14 14 0 -4
BITMAP
0000
0480
0840
1860
3010
400c
1fe0
0420
0420
0c20
0820
1020
63c0
0000
ENDCHAR
STARTCHAR 5207
ENCODING 20999
SWIDTH 520 0
DWIDTH 14 0
BBX 14 14 0 -4
BITMAP
0000
2000
27f8
2110
2d10
f110
2110
2110
2510
2910
3210
4610
0cf0
0000
ENDCHAR
STARTCHAR 5208
ENCODING 21000
SWIDTH 520 0
DWIDTH 14 0
BBX 14 14 0 -4
BITMAP
0000
0208
4248
2448
3448
1448
0c48
0c48
1c48
1448
2208
2208
4078
0000
ENDCHAR
STARTCHAR 5209
ENCODING 21001
SWIDTH 520 0
DWIDTH 14 0
BBX 14 14 0 -4
BITMAP
2008
2008
7f48
4048
8048
7e48
0448
0848
1848
3048
2148
4108
4108
7e78
ENDCHAR
STARTCHAR 520A
ENCODING 21002
SWIDTH 520 0
DWIDTH 14 0
BBX 14 14 0 -4
BITMAP
0000
fe08
1088
1088
1088
1088
fe88
1088
1088
1088
1008
1008
1078
0000
ENDCHAR
STARTCHAR 520B
ENCODING 21003
SWIDTH 520 0
DWIDTH 14 0
BBX 14 14 0 -4
BITMAP
0000
0108
7e48
0848
0848
0848
0848
7f48
0848
0848
1048
1008
2008
4078
ENDCHAR
STARTCHAR 520C
ENCODING 21004
SWIDTH 520 0
DWIDTH 14 0
BBX 14 14 0 -4
BITMAP
0408
0408
0448
ff48
0448
4448
2448
2448
1448
0448
0408
0408
3c78
0000
ENDCHAR
STARTCHAR 520D
ENCODING 21005
SWIDTH 520 0
DWIDTH 14 0
BBX 14 14 0 -4
BITMAP
0000
0800
1fc0
2080
4100
fff0
0010
0010
3ff0
0010
0010
7ff0
0010
0000
ENDCHAR
STARTCHAR 520E
ENCODING 21006
SWIDTH 520 0
DWIDTH 14 0
BBX 14 14 0 -4
BITMAP
0000
2008
6028
7f28
5528
9528
1528
2928
2928
4928
9108
2108
4e38
0000
ENDCHAR
STARTCHAR 520F
ENCODING 21007
SWIDTH 520 0
DWIDTH 14 0
BBX 14 14 0 -4
BITMAP
0000
2008
3f48
4048
7e48
8048
0048
7c48
0448
0448
04c8
0488
0688
0378
ENDCHAR
STARTCHAR 5210
ENCODING 21008
SWIDTH 520 0
DWIDTH 14 0
BBX 14 14 0 -4
BITMAP
0000
3e08
2248
3248
2a48
2648
2248
7f48
2248
2248
2248
4208
4208
9e78
ENDCHAR
STARTCHAR 5211
ENCODING 21009
SWIDTH 520 0
DWIDTH 14 0
BBX 14 14 0 -4
BITMAP
0000
7f08
2448
2448
2448
2448
ff48
2448
2448
2448
4408
4408
8478
0000
ENDCHAR
STARTCHAR 5212
ENCODING 21010
SWIDTH 520 0
DWIDTH 14 0
BBX 14 14 0 -4
BITMAP
0000
2c08
2248
2f48
f048
2148
2248
1448
1848
1088
6888
cc88
0778
0000
ENDCHAR
STARTCHAR 5213
ENCODING 21011
SWIDTH 520 0
DWIDTH 14 0
BBX 14 14 0 -4
BITMAP
0008
7e08
0048
0048
0048
ff48
2448
2448
2448
2448
4508
4608
4408
8878
ENDCHAR
STARTCHAR 5214
ENCODING 21012
SWIDTH 520 0
DWIDTH 14 0
BBX 14 14 0 -4
BITMAP
0000
1008
1048
7e48
1248
1248
1248
1248
ff48
1048
2c48
2608
4108
8078
ENDCHAR
STARTCHAR 5215
ENCODING 21013
SWIDTH 520 0
DWIDTH 14 0
BBX 14 14 0 -4
BITMAP
0000
3ff0
0410
0410
0810
19e0
6000
0000
7ef8
1248
1248
32c8
2288
5f78
ENDCHAR
STARTCHAR 5216
ENCODING 21014
SWIDTH 520 0
DWIDTH 14 0
BBX 14 14 0 -4
BITMAP
0000
7e08
4248
4248
7e48
4248
4248
7e48
4248
4248
4208
8208
9e78
0000
ENDCHAR
STARTCHAR 5217
ENCODING 21015
SWIDTH 520 0
DWIDTH 14 0
BBX 14 14 0 -4
BITMAP
0000
7f08
0848
0848
1f48
3148
2348
5a48
8e48
0c48
1808
3008
6078
0000
ENDCHAR
STARTCHAR 5218
ENCODING 21016
SWIDTH 520 0
DWIDTH 14 0
BBX 14 14 0 -4
BITMAP
0000
1008
0848
ff48
0248
4248
2448
1448
1848
0c48
1448
3208
6108
8078
ENDCHAR
STARTCHAR 5219
ENCODING 21017
SWIDTH 520 0
DWIDTH 14 0
BBX 14 14 0 -4
BITMAP
0000
7e08
4248
4a48
4a48
4a48
4a48
4a48
4a48
1c08
1608
6308
c078
0000
ENDCHAR
STARTCHAR 521A
ENCODING 21018
SWIDTH 520 0
DWIDTH 14 0
BBX 14 14 0 -4
BITMAP
0000
7f08
4128
6328
5528
5528
4928
4928
5528
5528
6308
4108
4738
0000
ENDCHAR
STARTCHAR 521B
ENCODING 21019
SWIDTH 520 0
DWIDTH 14 0
BBX 14 14 0 -4
BITMAP
0000
0408
0a48
1148
20c8
7f48
2148
2148
2148
2e48
2088
2088
3f78
0000
ENDCHAR
STARTCHAR 521C
ENCODING 21020
SWIDTH 520 0
DWIDTH 14 0
BBX 14 14 0 -4
BITMAP
2408
2408
ff48
2548
2548
ff48
a448
a448
ffc8
24c8
2488
4788
8408
0478
ENDCHAR
STARTCHAR 521D
ENCODING 21021
SWIDTH 520 0
DWIDTH 14 0
BBX 14 14 0 -4
BITMAP
0000
2000
13f8
7888
0888
1088
3488
7c88
5708
1108
1208
1608
1c70
0000
ENDCHAR
STARTCHAR 521E
ENCODING 21022
SWIDTH 520 0
DWIDTH 14 0
BBX 14 14 0 -4
BITMAP
0008
7e08
4248
4248
4248
7e48
4248
4248
7e48
4248
4248
4708
f808
0078
ENDCHAR
STARTCHAR 521F
ENCODING 21023
SWIDTH 520 0
DWIDTH 14 0
BBX 14 14 0 -4
BITMAP
0008
7f08
1148
1148
2148
6148
8748
0048
7f48
4148
4148
4108
7f08
4178
ENDCHAR
STARTCHAR 5220
ENCODING 21024
SWIDTH 520 0
DWIDTH 14 0
BBX 14 14 0 -4
BITMAP
0000
7708
5528
5528
5528
5528
ffe8
5528
5528
5528
5508
9908
bb38
0000
ENDCHAR
STARTCHAR 5221
ENCODING 21025
SWIDTH 520 0
DWIDTH 14 0
BBX 14 14 0 -4
BITMAP
0008
7f08
4148
4148
7f48
4948
4848
4848
7fc8
4848
4848
5888
6488
4378
ENDCHAR
STARTCHAR 5222
ENCODING 21026
SWIDTH 520 0
DWIDTH 14 0
BBX 14 14 0 -4
BITMAP
0808
1c48
1248
2248
5148
8848
0848
7e48
0248
0448
2448
1c08
0808
0478
ENDCHAR
STARTCHAR 5223
ENCODING 21027
SWIDTH 520 0
DWIDTH 14 0
BBX 14 14 0 -4
BITMAP
0000
1008
2448
2248
4248
7f48
c148
0048
7f48
4148
4148
4108
7f08
4178
ENDCHAR
STARTCHAR 5224
ENCODING 21028
SWIDTH 520 0
DWIDTH 14 0
BBX 14 14 0 -4
BITMAP
0000
0808
4908
2948
2a48
0848
7f48
0848
7f48
0848
0808
1008
2078
0000
ENDCHAR
STARTCHAR 5225
ENCODING 21029
SWIDTH 520 0
DWIDTH 14 0
BBX 14 14 0 -4
BITMAP
0008
7e08
4248
4248
7e48
4248
2048
2048
3e48
2248
2248
4208
4208
9e78
ENDCHAR
STARTCHAR 5226
ENCODING 21030
SWIDTH 520 0
DWIDTH 14 0
BBX 14 14 0 -4
BITMAP
0808
0808
0848
7f48
0848
0848
0848
7f48
0848
1448
1248
2208
7f08
0178
ENDCHAR
STARTCHAR 5227
ENCODING 21031
SWIDTH 520 0
DWIDTH 14 0
BBX 14 14 0 -4
BITMAP
1000
11f8
7e48
1048
1048
1048
7e48
1048
1888
2488
2488
7b08
0270
0000
ENDCHAR
STARTCHAR 5228
ENCODING 21032
SWIDTH 520 0
DWIDTH 14 0
BBX 14 14 0 -4
BITMAP
0000
2008
7f48
4148
fd48
4548
4548
7d48
4148
4e48
4088
4088
7f78
0000
ENDCHAR
STARTCHAR 5229
ENCODING 21033
SWIDTH 520 0
DWIDTH 14 0
BBX 14 14 0 -4
BITMAP
0000
0708
7848
0848
7f48
0848
1848
1c48
2a48
6948
4848
0808
0838
0000
ENDCHAR
STARTCHAR 522A
ENCODING 21034
SWIDTH 520 0
DWIDTH 14 0
BBX 14 14 0 -4
BITMAP
0008
7f08
5528
5528
5528
5528
ffa8
5528
5528
5528
5508
5508
4108
4738
ENDCHAR
STARTCHAR 522B
ENCODING 21035
SWIDTH 520 0
DWIDTH 14 0
BBX 14 14 0 -4
BITMAP
0000
7e08
4248
4248
7e48
4248
1048
fe48
1248
1248
2208
6208
de78
0000
ENDCHAR
STARTCHAR 522C
ENCODING 21036
SWIDTH 520 0
DWIDTH 14 0
BBX 14 14 0 -4
BITMAP
0000
1c08
1648
1f48
f048
1048
17c8
f848
10c8
1148
0e88
0c88
3c88
c778
ENDCHAR
STARTCHAR 522D
ENCODING 21037
SWIDTH 520 0
DWIDTH 14 0
BBX 14 14 0 -4
BITMAP
0000
0008
3e08
0648
0c48
3e48
6148
0048
3e48
0848
0808
0f08
7078
0000
ENDCHAR
STARTCHAR 522E
ENCODING 21038
SWIDTH 520 0
DWIDTH 14 0
BBX 14 14 0 -4
BITMAP
0108
fe08
0848
0848
ff48
0848
0848
0848
7e48
4248
4248
4208
7e08
4278
ENDCHAR
STARTCHAR 522F
ENCODING 21039
SWIDTH 520 0
DWIDTH 14 0
BBX 14 14 0 -4
BITMAP
0008
ff08
0048
0048
7f48
4148
7f48
4148
4148
7f48
4108
0008
0708
f878
ENDCHAR
STARTCHAR 5230
ENCODING 21040
SWIDTH 520 0
DWIDTH 14 0
BBX 14 14 0 -4
BITMAP
0000
ff08
1048
2448
2248
7f48
0048
0848
ff48
0848
0808
0f08
f078
0000
ENDCHAR
STARTCHAR 5231
ENCODING 21041
SWIDTH 520 0
DWIDTH 14 0
BBX 14 14 0 -4
BITMAP
2400
25f8
2448
7c48
2448
2548
254c
264c
7e48
24c8
2488
4488
4508
8670
ENDCHAR
STARTCHAR 5232
ENCODING 21042
SWIDTH 520 0
DWIDTH 14 0
BBX 14 14 0 -4
BITMAP
0808
0808
7f48
0848
0848
7f48
0048
0848
0848
7f48
0848
0808
0f08
7078
ENDCHAR
STARTCHAR 5233
ENCODING 21043
SWIDTH 520 0
DWIDTH 14 0
BBX 14 14 0 -4
BITMAP
0000
0408
7f28
1e28
2328
dea8
0028
7f28
2028
3f28
0108
0108
1f38
0000
ENDCHAR
STARTCHAR 5234
ENCODING 21044
SWIDTH 520 0
DWIDTH 14 0
BBX 14 14 0 -4
BITMAP
0008
7e08
1248
1348
2148
6148
cf48
0048
0848
ff48
1c48
2a08
4908
8878
ENDCHAR
STARTCHAR 5235
ENCODING 21045
SWIDTH 520 0
DWIDTH 14 0
BBX 14 14 0 -4
BITMAP
0008
ff08
4248
4248
7e48
4248
4248
7e48
4248
4248
4f08
f208
0208
0278
ENDCHAR
STARTCHAR 5236
ENCODING 21046
SWIDTH 520 0
DWIDTH 14 0
BBX 14 14 0 -4
BITMAP
0000
2808
6848
7f48
c848
8848
ffc8
0848
7f48
4948
4908
4f08
0878
0000
ENDCHAR
STARTCHAR 5237
ENCODING 21047
SWIDTH 520 0
DWIDTH 14 0
BBX 14 14 0 -4
BITMAP
0000
7f08
4128
7f28
4128
4428
5fa8
54a8
54a8
54a8
5488
9788
8438
0000
ENDCHAR
STARTCHAR 5238
ENCODING 21048
SWIDTH 520 0
DWIDTH 14 0
BBX 14 14 0 -4
BITMAP
2110
1110
0a20
7ff8
0400
fffc
0840
1030
7fec
8420
0420
1860
63c0
0000
ENDCHAR
STARTCHAR 5239
ENCODING 21049
SWIDTH 520 0
DWIDTH 14 0
BBX 14 14 0 -4
BITMAP
0000
4108
3648
0c48
3648
c948
0848
ff48
0848
2a48
4908
8888
7878
0000
ENDCHAR
STARTCHAR 523A
ENCODING 21050
SWIDTH 520 0
DWIDTH 14 0
BBX 14 14 0 -4
BITMAP
0000
0808
ff48
0848
7f48
4948
4948
5f48
1848
2c48
4a08
8908
0878
0000
ENDCHAR
STARTCHAR 523B
ENCODING 21051
SWIDTH 520 0
DWIDTH 14 0
BBX 14 14 0 -4
BITMAP
0000
0808
0c08
ff48
1048
6648
7c48
0948
3248
6648
ce08
3308
60f8
0000
ENDCHAR
STARTCHAR 523C
ENCODING 21052
SWIDTH 520 0
DWIDTH 14 0
BBX 14 14 0 -4
BITMAP
1000
13f8
fc48
1048
1148
1148
fe48
1248
2848
4488
8c88
f388
0170
0200
ENDCHAR
STARTCHAR 523D
ENCODING 21053
SWIDTH 520 0
DWIDTH 14 0
BBX 14 14 0 -4
BITMAP
0000
0808
1448
6248
c148
3e48
0048
0048
ff48
1448
6208
ff08
00f8
0000
ENDCHAR
STARTCHAR 523E
ENCODING 21054
SWIDTH 520 0
DWIDTH 14 0
BBX 14 14 0 -4
BITMAP
0808
0848
7f48
0848
4948
2a48
0848
7f48
0848
0c48
1e08
1208
2108
4078
ENDCHAR
STARTCHAR 523F
ENCODING 21055
SWIDTH 520 0
DWIDTH 14 0
BBX 14 14 0 -4
BITMAP
0000
0808
4948
4948
7f48
1048
3f48
2148
5248
8e48
0c08
3008
c078
0000
ENDCHAR
STARTCHAR 5240
ENCODING 21056
SWIDTH 520 0
DWIDTH 14 0
BBX 14 14 0 -4
BITMAP
0000
0808
4948
4948
7f48
0048
7f48
0148
7f48
4148
4008
5f08
7078
0000
ENDCHAR
STARTCHAR 5241
ENCODING 21057
SWIDTH 520 0
DWIDTH 14 0
BBX 14 14 0 -4
BITMAP
0000
3e08
2248
2248
4248
8b48
0848
ff48
1c48
2e48
6908
8808
0878
0000
ENDCHAR
STARTCHAR 5242
ENCODING 21058
SWIDTH 520 0
DWIDTH 14 0
BBX 14 14 0 -4
BITMAP
0000
1008
0808
ff48
0248
7448
1c48
e348
2448
2448
2408
4408
8478
0000
ENDCHAR
STARTCHAR 5243
ENCODING 21059
SWIDTH 520 0
DWIDTH 14 0
BBX 14 14 0 -4
BITMAP
0000
2208
1428
7f28
0928
7f28
4828
7fa8
18a8
28a8
4f88
8808
0838
0000
ENDCHAR
STARTCHAR 5244
ENCODING 21060
SWIDTH 520 0
DWIDTH 14 0
BBX 14 14 0 -4
BITMAP
0000
ff08
4948
5248
a448
a248
5148
4848
ff48
1048
1008
1f08
e078
0000
ENDCHAR
STARTCHAR 5245
ENCODING 21061
SWIDTH 520 0
DWIDTH 14 0
BBX 14 14 0 -4
BITMAP
0008
7f48
0048
0048
7f48
4148
4148
7f48
0148
2248
1408
0f08
f008
0078
ENDCHAR
STARTCHAR 5246
ENCODING 21062
SWIDTH 520 0
DWIDTH 14 0
BBX 14 14 0 -4
BITMAP
1008
0808
7e48
4248
4248
7e48
4248
4248
7e48
4848
4448
4e08
5108
6078
ENDCHAR
STARTCHAR 5247
ENCODING 21063
SWIDTH 520 0
DWIDTH 14 0
BBX 14 14 0 -4
BITMAP
0008
7e08
4248
4248
7e48
4248
4248
7e48
4248
7e48
4248
2808
4608
8178
ENDCHAR
STARTCHAR 5248
ENCODING 21064
SWIDTH 520 0
DWIDTH 14 0
BBX 14 14 0 -4
BITMAP
0008
7e08
4248
4248
7e48
0048
7f48
4148
7f48
4148
7f48
4108
4108
4778
ENDCHAR
STARTCHAR 5249
ENCODING 21065
SWIDTH 520 0
DWIDTH 14 0
BBX 14 14 0 -4
BITMAP
0808
2a08
2a48
4a48
6a48
6d48
9dc8
9cc8
0848
7f48
0848
0808
0f08
f078
ENDCHAR
STARTCHAR 524A
ENCODING 21066
SWIDTH 520 0
DWIDTH 14 0
BBX 14 14 0 -4
BITMAP
0000
4908
2a48
0848
7f48
4148
7f48
4148
4148
7f48
4108
4108
4f78
0000
ENDCHAR
STARTCHAR 524B
ENCODING 21067
SWIDTH 520 0
DWIDTH 14 0
BBX 14 14 0 -4
BITMAP
0808
0848
ff48
0848
0848
7f48
4148
4148
7f48
1448
1408
347c
6404
c7f8
ENDCHAR
STARTCHAR 524C
ENCODING 21068
SWIDTH 520 0
DWIDTH 14 0
BBX 14 14 0 -4
BITMAP
0000
0808
ff48
0848
7f48
4948
4948
7f48
5c48
2a48
4908
8808
0878
0000
ENDCHAR
STARTCHAR 524D
ENCODING 21069
SWIDTH 520 0
DWIDTH 14 0
BBX 14 14 0 -4
BITMAP
0000
0820
04c0
fffc
0000
7e48
4248
7e48
4248
7e48
4248
4208
4e78
0000
ENDCHAR
STARTCHAR 524E
ENCODING 21070
SWIDTH 520 0
DWIDTH 14 0
BBX 14 14 0 -4
BITMAP
0000
4108
3648
0c48
3648
cd48
0a48
0848
ff48
1848
2c48
4a08
8908
0878
ENDCHAR
STARTCHAR 524F
ENCODING 21071
SWIDTH 520 0
DWIDTH 14 0
BBX 14 14 0 -4
BITMAP
4400
29f8
3048
fc48
2948
2948
2948
fe48
2a48
2888
2888
4988
4908
8a70
ENDCHAR
STARTCHAR 5250
ENCODING 21072
SWIDTH 520 0
DWIDTH 14 0
BBX 14 14 0 -4
BITMAP
0000
0008
3f08
2128
2128
3f28
0828
7fa8
48a8
5ea8
7188
4088
47b8
0000
ENDCHAR
STARTCHAR 5251
ENCODING 21073
SWIDTH 520 0
DWIDTH 14 0
BBX 14 14 0 -4
BITMAP
0000
0808
1648
2148
40c8
be48
0048
4948
4948
2648
2a48
0788
7878
0000
ENDCHAR
STARTCHAR 5252
ENCODING 21074
SWIDTH 520 0
DWIDTH 14 0
BBX 14 14 0 -4
BITMAP
2408
2408
ff48
2448
2448
ff48
0048
7f48
4148
4148
7f48
4108
7f08
4178
ENDCHAR
ENDFONT
